SplineFontDB: 3.0
FontName: OxygenSans-Regular
FullName: OxygenSans Regular
FamilyName: OxygenSans
Weight: Book
Copyright: Copyright (c) 2011-12 by vernon adams. All rights reserved.
Version: Release 0.2.3
ItalicAngle: 0
UnderlinePosition: -22
UnderlineWidth: 0
Ascent: 1638
Descent: 410
sfntRevision: 0x00003333
LayerCount: 2
Layer: 0 1 "Back"  1
Layer: 1 1 "Fore"  0
XUID: [1021 332 1330122705 14378110]
FSType: 0
OS2Version: 1
OS2_WeightWidthSlopeOnly: 0
OS2_UseTypoMetrics: 1
CreationTime: 1353192826
ModificationTime: 1353193096
PfmFamily: 17
TTFWeight: 400
TTFWidth: 5
LineGap: 0
VLineGap: 0
Panose: 2 0 5 3 0 0 0 0 0 0
OS2TypoAscent: 2035
OS2TypoAOffset: 0
OS2TypoDescent: -672
OS2TypoDOffset: 0
OS2TypoLinegap: 0
OS2WinAscent: 2035
OS2WinAOffset: 0
OS2WinDescent: 672
OS2WinDOffset: 0
HheadAscent: 2035
HheadAOffset: 0
HheadDescent: -672
HheadDOffset: 0
OS2SubXSize: 1331
OS2SubYSize: 1433
OS2SubXOff: 0
OS2SubYOff: 286
OS2SupXSize: 1331
OS2SupYSize: 1433
OS2SupXOff: 0
OS2SupYOff: 983
OS2StrikeYSize: 102
OS2StrikeYPos: 530
OS2Vendor: 'newt'
OS2CodePages: 0000009f.00000001
OS2UnicodeRanges: 000010ff.0001004f.00000002.00000000
Lookup: 258 0 0 "'kern' Horizontal Kerning in Latin lookup 0"  {"'kern' Horizontal Kerning in Latin lookup 0 per glyph data 0"  "'kern' Horizontal Kerning in Latin lookup 0 kerning class 1"  } ['kern' ('DFLT' <'dflt' > 'latn' <'dflt' > ) ]
MarkAttachClasses: 1
DEI: 91125
KernClass2: 15 15 "'kern' Horizontal Kerning in Latin lookup 0 kerning class 1" 
 89 A Agrave Aacute Acircumflex Atilde Adieresis Aring Amacron Abreve Aogonek uni0200 uni0202
 1 B
 111 D O Q Eth Ograve Oacute Ocircumflex Otilde Odieresis Oslash Dcaron Omacron Obreve Ohungarumlaut uni020C uni020E
 1 F
 1 K
 1 L
 1 P
 44 R Racute Rcommaaccent Rcaron uni0210 uni0212
 1 V
 1 W
 18 Y Yacute Ydieresis
 1 a
 114 b o p ograve oacute ocircumflex otilde odieresis oslash thorn omacron obreve ohungarumlaut uni020D uni020F uni1E57
 1 g

StartChar: .notdef
Encoding: 65536 -1 0
Width: 931
Flags: W
LayerCount: 2
Fore
SplineSet
93 0 m 1,0,-1
 93 994 l 1,1,-1
 839 994 l 1,2,-1
 839 0 l 1,3,-1
 93 0 l 1,0,-1
186 93 m 1,4,-1
 746 93 l 1,5,-1
 746 901 l 1,6,-1
 186 901 l 1,7,-1
 186 93 l 1,4,-1
EndSplineSet
EndChar

StartChar: exclam
Encoding: 33 33 4
Width: 557
GlyphClass: 2
Flags: W
LayerCount: 2
Fore
SplineSet
368 1232 m 1,0,-1
 317 396 l 1,1,-1
 245 396 l 1,2,-1
 189 1232 l 1,3,-1
 189 1390 l 1,4,-1
 368 1390 l 1,5,-1
 368 1232 l 1,0,-1
279 -11 m 128,-1,7
 222 -11 222 -11 190 24.5 c 128,-1,8
 158 60 158 60 158 109 c 128,-1,9
 158 158 158 158 190 193.5 c 128,-1,10
 222 229 222 229 279 229 c 128,-1,11
 336 229 336 229 368 193.5 c 128,-1,12
 400 158 400 158 400 109 c 128,-1,13
 400 60 400 60 368 24.5 c 128,-1,6
 336 -11 336 -11 279 -11 c 128,-1,7
EndSplineSet
EndChar

StartChar: quotedbl
Encoding: 34 34 5
Width: 610
GlyphClass: 2
Flags: W
LayerCount: 2
Fore
SplineSet
126 925 m 1,0,-1
 106 1374 l 1,1,-1
 244 1374 l 1,2,-1
 217 925 l 1,3,-1
 126 925 l 1,0,-1
386 925 m 1,4,-1
 367 1374 l 1,5,-1
 504 1374 l 1,6,-1
 478 925 l 1,7,-1
 386 925 l 1,4,-1
EndSplineSet
EndChar

StartChar: numbersign
Encoding: 35 35 6
Width: 1079
GlyphClass: 2
Flags: W
LayerCount: 2
Fore
SplineSet
286 488 m 1,0,-1
 341 846 l 1,1,-1
 180 846 l 1,2,-1
 188 960 l 1,3,-1
 364 960 l 1,4,-1
 440 1330 l 1,5,-1
 579 1330 l 1,6,-1
 507 960 l 1,7,-1
 720 960 l 1,8,-1
 784 1330 l 1,9,-1
 901 1330 l 1,10,-1
 841 960 l 1,11,-1
 966 960 l 1,12,-1
 954 847 l 1,13,-1
 820 847 l 1,14,-1
 759 488 l 1,15,-1
 893 488 l 1,16,-1
 884 373 l 1,17,-1
 743 373 l 1,18,-1
 664 -21 l 1,19,-1
 527 -21 l 1,20,-1
 603 373 l 1,21,-1
 389 373 l 1,22,-1
 317 -21 l 1,23,-1
 199 -21 l 1,24,-1
 266 373 l 1,25,-1
 110 373 l 1,26,-1
 119 488 l 1,27,-1
 286 488 l 1,0,-1
411 488 m 1,28,-1
 626 488 l 1,29,-1
 698 847 l 1,30,-1
 484 847 l 1,31,-1
 411 488 l 1,28,-1
EndSplineSet
EndChar

StartChar: dollar
Encoding: 36 36 7
Width: 1166
GlyphClass: 2
Flags: W
LayerCount: 2
Fore
SplineSet
632 -177 m 1,0,-1
 546 -177 l 1,1,-1
 546 -19 l 1,2,3
 425 -14 425 -14 310.5 18.5 c 128,-1,4
 196 51 196 51 131 91 c 1,5,-1
 178 222 l 1,6,7
 248 187 248 187 293 169 c 128,-1,8
 338 151 338 151 417 135 c 128,-1,9
 496 119 496 119 589 119 c 0,10,11
 738 119 738 119 796 189 c 128,-1,12
 854 259 854 259 854 398 c 0,13,14
 854 479 854 479 796 534 c 128,-1,15
 738 589 738 589 611 633 c 2,16,-1
 447 690 l 1,17,18
 297 740 297 740 215 819.5 c 128,-1,19
 133 899 133 899 133 1026 c 0,20,21
 133 1117 133 1117 164.5 1188.5 c 128,-1,22
 196 1260 196 1260 253 1306 c 128,-1,23
 310 1352 310 1352 383.5 1377.5 c 128,-1,24
 457 1403 457 1403 546 1408 c 1,25,-1
 546 1584 l 1,26,-1
 632 1584 l 1,27,-1
 632 1408 l 1,28,29
 719 1404 719 1404 811.5 1381.5 c 128,-1,30
 904 1359 904 1359 964 1321 c 1,31,-1
 918 1198 l 1,32,33
 847 1232 847 1232 771 1249.5 c 128,-1,34
 695 1267 695 1267 576 1270 c 1,35,36
 450 1270 450 1270 375 1206 c 128,-1,37
 300 1142 300 1142 300 1037 c 0,38,39
 300 961 300 961 352 913.5 c 128,-1,40
 404 866 404 866 506 833 c 1,41,-1
 658 782 l 2,42,43
 741 754 741 754 800 725 c 128,-1,44
 859 696 859 696 912.5 652 c 128,-1,45
 966 608 966 608 993.5 545.5 c 128,-1,46
 1021 483 1021 483 1021 403 c 0,47,48
 1021 205 1021 205 922 99 c 128,-1,49
 823 -7 823 -7 632 -18 c 1,50,-1
 632 -177 l 1,0,-1
EndSplineSet
EndChar

StartChar: percent
Encoding: 37 37 8
Width: 1657
GlyphClass: 2
Flags: W
LayerCount: 2
Fore
SplineSet
352 768 m 128,-1,1
 435 768 435 768 480.5 836 c 128,-1,2
 526 904 526 904 526 1005 c 0,3,4
 526 1110 526 1110 479.5 1182 c 128,-1,5
 433 1254 433 1254 352 1254 c 0,6,7
 270 1254 270 1254 224.5 1181 c 128,-1,8
 179 1108 179 1108 179 1005 c 0,9,10
 179 900 179 900 224 834 c 128,-1,0
 269 768 269 768 352 768 c 128,-1,1
352 662 m 128,-1,12
 221 662 221 662 142.5 758.5 c 128,-1,13
 64 855 64 855 64 1005 c 0,14,15
 64 1157 64 1157 143 1256 c 128,-1,16
 222 1355 222 1355 352 1355 c 0,17,18
 484 1355 484 1355 563.5 1256.5 c 128,-1,19
 643 1158 643 1158 643 1005 c 0,20,21
 643 855 643 855 563 758.5 c 128,-1,11
 483 662 483 662 352 662 c 128,-1,12
335 -4 m 1,22,-1
 1058 1330 l 1,23,-1
 1206 1330 l 1,24,-1
 458 -4 l 1,25,-1
 335 -4 l 1,22,-1
1272 89 m 128,-1,27
 1369 89 1369 89 1423.5 161 c 128,-1,28
 1478 233 1478 233 1478 336 c 0,29,30
 1478 441 1478 441 1423.5 511.5 c 128,-1,31
 1369 582 1369 582 1272 582 c 128,-1,32
 1175 582 1175 582 1121 510.5 c 128,-1,33
 1067 439 1067 439 1067 336 c 0,34,35
 1067 231 1067 231 1121 160 c 128,-1,26
 1175 89 1175 89 1272 89 c 128,-1,27
1272 -14 m 0,36,37
 1120 -14 1120 -14 1036 84 c 128,-1,38
 952 182 952 182 952 336 c 128,-1,39
 952 490 952 490 1036.5 588 c 128,-1,40
 1121 686 1121 686 1272 686 c 0,41,42
 1426 686 1426 686 1509.5 589 c 128,-1,43
 1593 492 1593 492 1593 336 c 0,44,45
 1593 183 1593 183 1508 84.5 c 128,-1,46
 1423 -14 1423 -14 1272 -14 c 0,36,37
EndSplineSet
EndChar

StartChar: ampersand
Encoding: 38 38 9
Width: 1258
GlyphClass: 2
Flags: W
LayerCount: 2
Fore
SplineSet
528 -21 m 0,0,1
 298 -21 298 -21 178 79.5 c 128,-1,2
 58 180 58 180 58 359 c 0,3,4
 58 621 58 621 374 781 c 1,5,6
 207 964 207 964 207 1115 c 0,7,8
 207 1251 207 1251 303.5 1332 c 128,-1,9
 400 1413 400 1413 561 1413 c 0,10,11
 710 1413 710 1413 812.5 1339 c 128,-1,12
 915 1265 915 1265 915 1131 c 0,13,14
 915 1016 915 1016 825.5 912.5 c 128,-1,15
 736 809 736 809 600 746 c 1,16,-1
 966 337 l 1,17,18
 1046 422 1046 422 1101 545 c 1,19,-1
 1211 461 l 1,20,21
 1156 339 1156 339 1063 230 c 1,22,-1
 1251 27 l 1,23,-1
 1108 -20 l 1,24,-1
 965 130 l 1,25,26
 777 -21 777 -21 528 -21 c 0,0,1
536 120 m 0,27,28
 714 120 714 120 860 236 c 1,29,30
 792 309 792 309 659.5 458.5 c 128,-1,31
 527 608 527 608 459 681 c 1,32,33
 349 625 349 625 284 545.5 c 128,-1,34
 219 466 219 466 219 369 c 0,35,36
 219 252 219 252 303 186 c 128,-1,37
 387 120 387 120 536 120 c 0,27,28
515 838 m 1,38,39
 613 886 613 886 678.5 965 c 128,-1,40
 744 1044 744 1044 744 1127 c 0,41,42
 744 1203 744 1203 692 1245.5 c 128,-1,43
 640 1288 640 1288 564 1288 c 0,44,45
 479 1288 479 1288 424 1243 c 128,-1,46
 369 1198 369 1198 369 1121 c 0,47,48
 369 1056 369 1056 411 977 c 128,-1,49
 453 898 453 898 515 838 c 1,38,39
EndSplineSet
EndChar

StartChar: quotesingle
Encoding: 39 39 10
Width: 364
GlyphClass: 2
Flags: W
LayerCount: 2
Fore
SplineSet
142 796 m 1,0,-1
 95 1390 l 1,1,-1
 301 1390 l 1,2,-1
 227 796 l 1,3,-1
 142 796 l 1,0,-1
EndSplineSet
EndChar

StartChar: parenleft
Encoding: 40 40 11
Width: 595
GlyphClass: 2
Flags: W
LayerCount: 2
Fore
SplineSet
508 -191 m 1,0,-1
 369 -191 l 1,1,2
 251 -28 251 -28 184.5 176.5 c 128,-1,3
 118 381 118 381 118 600 c 0,4,5
 118 1046 118 1046 367 1408 c 1,6,-1
 508 1408 l 1,7,8
 273 1042 273 1042 273 604 c 0,9,10
 273 399 273 399 335 189.5 c 128,-1,11
 397 -20 397 -20 508 -191 c 1,0,-1
EndSplineSet
EndChar

StartChar: parenright
Encoding: 41 41 12
Width: 598
GlyphClass: 2
Flags: W
LayerCount: 2
Fore
SplineSet
228 -191 m 1,0,-1
 89 -191 l 1,1,2
 200 -20 200 -20 262 189.5 c 128,-1,3
 324 399 324 399 324 604 c 0,4,5
 324 1041 324 1041 88 1408 c 1,6,-1
 229 1408 l 1,7,8
 479 1041 479 1041 479 600 c 0,9,10
 479 381 479 381 412.5 176.5 c 128,-1,11
 346 -28 346 -28 228 -191 c 1,0,-1
EndSplineSet
EndChar

StartChar: asterisk
Encoding: 42 42 13
Width: 1055
GlyphClass: 2
Flags: W
LayerCount: 2
Fore
SplineSet
148 1148 m 1,0,-1
 473 1011 l 1,1,-1
 440 1385 l 1,2,-1
 609 1385 l 1,3,-1
 576 1011 l 1,4,-1
 903 1148 l 1,5,-1
 948 993 l 1,6,-1
 614 917 l 1,7,8
 629 897 629 897 715.5 783.5 c 128,-1,9
 802 670 802 670 844 614 c 1,10,11
 821 599 821 599 773.5 571.5 c 128,-1,12
 726 544 726 544 703 529 c 1,13,-1
 521 858 l 1,14,-1
 349 529 l 1,15,-1
 207 614 l 1,16,-1
 433 917 l 1,17,-1
 103 993 l 1,18,-1
 148 1148 l 1,0,-1
EndSplineSet
EndChar

StartChar: plus
Encoding: 43 43 14
Width: 1052
GlyphClass: 2
Flags: W
LayerCount: 2
Fore
SplineSet
465 653 m 1,0,-1
 465 1039 l 1,1,-1
 590 1039 l 1,2,-1
 590 653 l 1,3,-1
 945 653 l 1,4,-1
 945 530 l 1,5,-1
 589 530 l 1,6,-1
 589 139 l 1,7,-1
 464 139 l 1,8,-1
 464 530 l 1,9,-1
 103 530 l 1,10,-1
 103 653 l 1,11,-1
 465 653 l 1,0,-1
EndSplineSet
EndChar

StartChar: comma
Encoding: 44 44 15
Width: 524
GlyphClass: 2
Flags: W
LayerCount: 2
Fore
SplineSet
207 -293 m 1,0,-1
 111 -293 l 1,1,-1
 178 213 l 1,2,-1
 358 213 l 1,3,-1
 358 173 l 1,4,5
 337 88 337 88 278.5 -88 c 128,-1,6
 220 -264 220 -264 207 -293 c 1,0,-1
EndSplineSet
EndChar

StartChar: hyphen
Encoding: 45 45 16
Width: 812
GlyphClass: 2
Flags: W
LayerCount: 2
Fore
SplineSet
127 452 m 1,0,-1
 127 586 l 1,1,-1
 685 586 l 1,2,-1
 685 452 l 1,3,-1
 127 452 l 1,0,-1
EndSplineSet
EndChar

StartChar: period
Encoding: 46 46 17
Width: 524
GlyphClass: 2
Flags: W
LayerCount: 2
Fore
SplineSet
271 -11 m 128,-1,1
 214 -11 214 -11 182 24.5 c 128,-1,2
 150 60 150 60 150 109 c 128,-1,3
 150 158 150 158 182 193.5 c 128,-1,4
 214 229 214 229 271 229 c 128,-1,5
 328 229 328 229 360 193.5 c 128,-1,6
 392 158 392 158 392 109 c 128,-1,7
 392 60 392 60 360 24.5 c 128,-1,0
 328 -11 328 -11 271 -11 c 128,-1,1
EndSplineSet
EndChar

StartChar: slash
Encoding: 47 47 18
Width: 898
GlyphClass: 2
Flags: W
LayerCount: 2
Fore
SplineSet
68 -198 m 1,0,-1
 683 1334 l 1,1,-1
 816 1334 l 1,2,-1
 199 -198 l 1,3,-1
 68 -198 l 1,0,-1
EndSplineSet
EndChar

StartChar: zero
Encoding: 48 48 19
Width: 1145
GlyphClass: 2
Flags: W
LayerCount: 2
Fore
SplineSet
576 120 m 0,0,1
 718 120 718 120 790.5 261 c 128,-1,2
 863 402 863 402 863 680 c 0,3,4
 863 1228 863 1228 576 1228 c 0,5,6
 434 1228 434 1228 358 1086.5 c 128,-1,7
 282 945 282 945 282 680 c 0,8,9
 282 404 282 404 357.5 262 c 128,-1,10
 433 120 433 120 576 120 c 0,0,1
576 -18 m 0,11,12
 479 -18 479 -18 400.5 16 c 128,-1,13
 322 50 322 50 267.5 110.5 c 128,-1,14
 213 171 213 171 177 258 c 128,-1,15
 141 345 141 345 124 448.5 c 128,-1,16
 107 552 107 552 107 674 c 0,17,18
 107 997 107 997 225.5 1181.5 c 128,-1,19
 344 1366 344 1366 576 1366 c 0,20,21
 732 1366 732 1366 836.5 1279 c 128,-1,22
 941 1192 941 1192 989.5 1039.5 c 128,-1,23
 1038 887 1038 887 1038 674 c 0,24,25
 1038 520 1038 520 1012 396.5 c 128,-1,26
 986 273 986 273 932 179 c 128,-1,27
 878 85 878 85 787.5 33.5 c 128,-1,28
 697 -18 697 -18 576 -18 c 0,11,12
EndSplineSet
EndChar

StartChar: one
Encoding: 49 49 20
Width: 1006
GlyphClass: 2
Flags: W
LayerCount: 2
Fore
SplineSet
901 0 m 1,0,-1
 175 0 l 1,1,-1
 175 140 l 1,2,-1
 480 140 l 1,3,-1
 480 1222 l 1,4,5
 424 1186 424 1186 348.5 1159.5 c 128,-1,6
 273 1133 273 1133 204 1129 c 1,7,-1
 204 1271 l 1,8,9
 262 1275 262 1275 350.5 1312.5 c 128,-1,10
 439 1350 439 1350 496 1390 c 1,11,-1
 641 1390 l 1,12,-1
 641 140 l 1,13,-1
 901 140 l 1,14,-1
 901 0 l 1,0,-1
EndSplineSet
EndChar

StartChar: two
Encoding: 50 50 21
Width: 1141
GlyphClass: 2
Flags: W
LayerCount: 2
Fore
SplineSet
175 0 m 1,0,-1
 155 149 l 1,1,-1
 659 690 l 2,2,3
 752 790 752 790 792 861 c 128,-1,4
 832 932 832 932 832 1032 c 0,5,6
 832 1146 832 1146 768.5 1210.5 c 128,-1,7
 705 1275 705 1275 590 1275 c 0,8,9
 502 1275 502 1275 423 1248.5 c 128,-1,10
 344 1222 344 1222 256 1158 c 1,11,-1
 204 1294 l 1,12,13
 287 1354 287 1354 378 1383.5 c 128,-1,14
 469 1413 469 1413 595 1413 c 0,15,16
 781 1413 781 1413 894 1312 c 128,-1,17
 1007 1211 1007 1211 1007 1043 c 0,18,19
 1007 974 1007 974 992.5 917 c 128,-1,20
 978 860 978 860 943 803 c 128,-1,21
 908 746 908 746 869.5 699.5 c 128,-1,22
 831 653 831 653 763 581 c 2,23,-1
 347 140 l 1,24,-1
 982 140 l 1,25,-1
 972 0 l 1,26,-1
 175 0 l 1,0,-1
EndSplineSet
EndChar

StartChar: three
Encoding: 51 51 22
Width: 1105
GlyphClass: 2
Flags: W
LayerCount: 2
Fore
SplineSet
800 371 m 0,0,1
 800 438 800 438 778.5 487.5 c 128,-1,2
 757 537 757 537 722 567 c 128,-1,3
 687 597 687 597 631.5 615 c 128,-1,4
 576 633 576 633 520 639.5 c 128,-1,5
 464 646 464 646 388 648 c 1,6,-1
 344 648 l 1,7,-1
 344 784 l 1,8,-1
 389 784 l 1,9,10
 453 786 453 786 501 791.5 c 128,-1,11
 549 797 549 797 598.5 812 c 128,-1,12
 648 827 648 827 679.5 852 c 128,-1,13
 711 877 711 877 731 919.5 c 128,-1,14
 751 962 751 962 751 1020 c 0,15,16
 751 1130 751 1130 688.5 1179 c 128,-1,17
 626 1228 626 1228 501 1228 c 0,18,19
 320 1228 320 1228 196 1130 c 1,20,-1
 145 1263 l 1,21,22
 281 1366 281 1366 536 1366 c 0,23,24
 640 1366 640 1366 726.5 1331 c 128,-1,25
 813 1296 813 1296 869.5 1220.5 c 128,-1,26
 926 1145 926 1145 926 1041 c 0,27,28
 926 791 926 791 687 716 c 1,29,30
 815 688 815 688 887 599 c 128,-1,31
 959 510 959 510 959 369 c 0,32,33
 959 190 959 190 831 86 c 128,-1,34
 703 -18 703 -18 501 -18 c 0,35,36
 378 -18 378 -18 283.5 13 c 128,-1,37
 189 44 189 44 145 85 c 1,38,-1
 196 218 l 1,39,40
 319 120 319 120 502 120 c 0,41,42
 639 120 639 120 719.5 184.5 c 128,-1,43
 800 249 800 249 800 371 c 0,0,1
EndSplineSet
EndChar

StartChar: four
Encoding: 52 52 23
Width: 1138
GlyphClass: 2
Flags: W
LayerCount: 2
Fore
SplineSet
715 1361 m 1,0,-1
 885 1361 l 1,1,-1
 885 470 l 1,2,-1
 1052 470 l 1,3,-1
 1040 338 l 1,4,-1
 885 338 l 1,5,-1
 885 0 l 1,6,-1
 732 0 l 1,7,-1
 732 338 l 1,8,-1
 117 338 l 1,9,-1
 117 477 l 1,10,-1
 715 1361 l 1,0,-1
732 470 m 1,11,-1
 732 1155 l 1,12,-1
 277 470 l 1,13,-1
 732 470 l 1,11,-1
EndSplineSet
EndChar

StartChar: five
Encoding: 53 53 24
Width: 1043
GlyphClass: 2
Flags: W
LayerCount: 2
Fore
SplineSet
474 -21 m 0,0,1
 246 -21 246 -21 109 104 c 1,2,-1
 168 232 l 1,3,4
 302 126 302 126 480 126 c 0,5,6
 628 126 628 126 710 210.5 c 128,-1,7
 792 295 792 295 792 432 c 0,8,9
 792 554 792 554 719 630 c 128,-1,10
 646 706 646 706 512 706 c 0,11,12
 376 706 376 706 295 616 c 1,13,-1
 169 633 l 1,14,-1
 204 1361 l 1,15,-1
 902 1361 l 1,16,-1
 889 1212 l 1,17,-1
 333 1212 l 1,18,19
 333 1208 333 1208 320 784 c 1,20,21
 423 849 423 849 543 849 c 0,22,23
 742 849 742 849 849.5 732.5 c 128,-1,24
 957 616 957 616 957 434 c 0,25,26
 957 227 957 227 829 103 c 128,-1,27
 701 -21 701 -21 474 -21 c 0,0,1
EndSplineSet
EndChar

StartChar: six
Encoding: 54 54 25
Width: 1172
GlyphClass: 2
Flags: W
LayerCount: 2
Fore
SplineSet
585 -18 m 0,0,1
 444 -18 444 -18 339.5 44 c 128,-1,2
 235 106 235 106 183.5 207 c 128,-1,3
 132 308 132 308 132 433 c 0,4,5
 132 581 132 581 186.5 698 c 128,-1,6
 241 815 241 815 383 994 c 0,7,8
 417 1038 417 1038 491 1126 c 128,-1,9
 565 1214 565 1214 622 1280 c 2,10,-1
 678 1346 l 1,11,-1
 886 1346 l 1,12,-1
 404 776 l 1,13,14
 453 802 453 802 516.5 821.5 c 128,-1,15
 580 841 580 841 631 841 c 0,16,17
 805 841 805 841 922.5 719.5 c 128,-1,18
 1040 598 1040 598 1040 412 c 128,-1,19
 1040 226 1040 226 915 104 c 128,-1,20
 790 -18 790 -18 585 -18 c 0,0,1
580 120 m 128,-1,22
 715 120 715 120 791.5 203 c 128,-1,23
 868 286 868 286 868 409 c 0,24,25
 868 540 868 540 797.5 622.5 c 128,-1,26
 727 705 727 705 594 705 c 0,27,28
 449 705 449 705 369.5 622 c 128,-1,29
 290 539 290 539 290 415 c 128,-1,30
 290 291 290 291 367.5 205.5 c 128,-1,21
 445 120 445 120 580 120 c 128,-1,22
EndSplineSet
EndChar

StartChar: seven
Encoding: 55 55 26
Width: 984
GlyphClass: 2
Flags: W
LayerCount: 2
Fore
SplineSet
888 1361 m 1,0,-1
 888 1238 l 1,1,-1
 401 0 l 1,2,-1
 236 0 l 1,3,-1
 703 1220 l 1,4,-1
 119 1220 l 1,5,-1
 109 1361 l 1,6,-1
 888 1361 l 1,0,-1
EndSplineSet
EndChar

StartChar: eight
Encoding: 56 56 27
Width: 1157
GlyphClass: 2
Flags: W
LayerCount: 2
Fore
SplineSet
578 -18 m 0,0,1
 455 -18 455 -18 355.5 22.5 c 128,-1,2
 256 63 256 63 195 147 c 128,-1,3
 134 231 134 231 134 347 c 0,4,5
 134 476 134 476 208.5 570 c 128,-1,6
 283 664 283 664 416 707 c 1,7,8
 162 797 162 797 162 1031 c 0,9,10
 162 1189 162 1189 277.5 1277.5 c 128,-1,11
 393 1366 393 1366 578 1366 c 128,-1,12
 763 1366 763 1366 877 1277.5 c 128,-1,13
 991 1189 991 1189 991 1031 c 0,14,15
 991 797 991 797 758 707 c 1,16,17
 881 664 881 664 950.5 569.5 c 128,-1,18
 1020 475 1020 475 1020 347 c 0,19,20
 1020 231 1020 231 959.5 147 c 128,-1,21
 899 63 899 63 800.5 22.5 c 128,-1,22
 702 -18 702 -18 578 -18 c 0,0,1
578 120 m 128,-1,24
 703 120 703 120 781.5 184 c 128,-1,25
 860 248 860 248 860 358 c 0,26,27
 860 465 860 465 783 537.5 c 128,-1,28
 706 610 706 610 578 638 c 1,29,30
 450 610 450 610 371.5 537.5 c 128,-1,31
 293 465 293 465 293 358 c 0,32,33
 293 248 293 248 373 184 c 128,-1,23
 453 120 453 120 578 120 c 128,-1,24
578 760 m 1,34,35
 831 816 831 816 831 1034 c 0,36,37
 831 1126 831 1126 758 1177 c 128,-1,38
 685 1228 685 1228 578 1228 c 128,-1,39
 471 1228 471 1228 396.5 1177 c 128,-1,40
 322 1126 322 1126 322 1034 c 0,41,42
 322 927 322 927 387.5 857.5 c 128,-1,43
 453 788 453 788 578 760 c 1,34,35
EndSplineSet
EndChar

StartChar: nine
Encoding: 57 57 28
Width: 1156
GlyphClass: 2
Flags: W
LayerCount: 2
Fore
SplineSet
472 0 m 1,0,-1
 276 0 l 1,1,-1
 749 591 l 1,2,3
 648 537 648 537 549 537 c 0,4,5
 436 537 436 537 341 586.5 c 128,-1,6
 246 636 246 636 188.5 730 c 128,-1,7
 131 824 131 824 131 944 c 0,8,9
 131 1126 131 1126 255.5 1246.5 c 128,-1,10
 380 1367 380 1367 581 1367 c 0,11,12
 788 1367 788 1367 906 1244.5 c 128,-1,13
 1024 1122 1024 1122 1024 934 c 0,14,15
 1024 805 1024 805 981 701.5 c 128,-1,16
 938 598 938 598 831 453 c 1,17,18
 792 402 792 402 702.5 288.5 c 128,-1,19
 613 175 613 175 542 88 c 1,20,-1
 472 0 l 1,0,-1
581 672 m 0,21,22
 721 672 721 672 788.5 749.5 c 128,-1,23
 856 827 856 827 856 952 c 0,24,25
 856 1075 856 1075 787.5 1152 c 128,-1,26
 719 1229 719 1229 587 1229 c 0,27,28
 454 1229 454 1229 376.5 1148.5 c 128,-1,29
 299 1068 299 1068 299 947 c 0,30,31
 299 822 299 822 373.5 747 c 128,-1,32
 448 672 448 672 581 672 c 0,21,22
EndSplineSet
EndChar

StartChar: semicolon
Encoding: 59 59 30
Width: 524
GlyphClass: 2
Flags: W
LayerCount: 2
Fore
SplineSet
207 -293 m 1,0,-1
 111 -293 l 1,1,-1
 178 213 l 1,2,-1
 358 213 l 1,3,-1
 358 173 l 1,4,5
 337 88 337 88 278.5 -88 c 128,-1,6
 220 -264 220 -264 207 -293 c 1,0,-1
154 788 m 1,7,-1
 154 998 l 1,8,-1
 341 998 l 1,9,-1
 341 788 l 1,10,-1
 154 788 l 1,7,-1
EndSplineSet
EndChar

StartChar: less
Encoding: 60 60 31
Width: 1094
GlyphClass: 2
Flags: W
LayerCount: 2
Fore
SplineSet
976 944 m 1,0,-1
 270 599 l 1,1,-1
 974 277 l 1,2,-1
 974 133 l 1,3,-1
 102 551 l 1,4,-1
 102 639 l 1,5,-1
 976 1087 l 1,6,-1
 976 944 l 1,0,-1
EndSplineSet
EndChar

StartChar: equal
Encoding: 61 61 32
Width: 1114
GlyphClass: 2
Flags: W
LayerCount: 2
Fore
SplineSet
117 343 m 1,0,-1
 117 472 l 1,1,-1
 996 472 l 1,2,-1
 996 343 l 1,3,-1
 117 343 l 1,0,-1
116 727 m 1,4,-1
 116 858 l 1,5,-1
 996 858 l 1,6,-1
 996 727 l 1,7,-1
 116 727 l 1,4,-1
EndSplineSet
EndChar

StartChar: greater
Encoding: 62 62 33
Width: 1102
GlyphClass: 2
Flags: W
LayerCount: 2
Fore
SplineSet
123 1092 m 1,0,-1
 995 638 l 1,1,-1
 995 550 l 1,2,-1
 121 138 l 1,3,-1
 121 283 l 1,4,-1
 825 599 l 1,5,-1
 123 950 l 1,6,-1
 123 1092 l 1,0,-1
EndSplineSet
EndChar

StartChar: question
Encoding: 63 63 34
Width: 819
GlyphClass: 2
Flags: W
LayerCount: 2
Fore
SplineSet
386 396 m 1,0,-1
 307 396 l 1,1,2
 307 467 307 467 347.5 567 c 128,-1,3
 388 667 388 667 436.5 750 c 128,-1,4
 485 833 485 833 525.5 926.5 c 128,-1,5
 566 1020 566 1020 566 1079 c 0,6,7
 565 1166 565 1166 510.5 1207.5 c 128,-1,8
 456 1249 456 1249 361 1249 c 0,9,10
 245 1249 245 1249 126 1176 c 1,11,-1
 85 1299 l 1,12,13
 196 1387 196 1387 386 1387 c 0,14,15
 533 1387 533 1387 623.5 1309 c 128,-1,16
 714 1231 714 1231 714 1092 c 0,17,18
 714 1006 714 1006 680.5 919.5 c 128,-1,19
 647 833 647 833 602.5 767.5 c 128,-1,20
 558 702 558 702 493.5 597 c 128,-1,21
 429 492 429 492 386 396 c 1,0,-1
359 -11 m 128,-1,23
 302 -11 302 -11 270 24.5 c 128,-1,24
 238 60 238 60 238 109 c 128,-1,25
 238 158 238 158 270 193.5 c 128,-1,26
 302 229 302 229 359 229 c 128,-1,27
 416 229 416 229 448 193.5 c 128,-1,28
 480 158 480 158 480 109 c 128,-1,29
 480 60 480 60 448 24.5 c 128,-1,22
 416 -11 416 -11 359 -11 c 128,-1,23
EndSplineSet
EndChar

StartChar: at
Encoding: 64 64 35
Width: 1634
GlyphClass: 2
Flags: W
LayerCount: 2
Fore
SplineSet
797 -119 m 0,0,1
 478 -119 478 -119 285.5 71 c 128,-1,2
 93 261 93 261 93 587 c 0,3,4
 93 804 93 804 189.5 980 c 128,-1,5
 286 1156 286 1156 461 1257 c 128,-1,6
 636 1358 636 1358 857 1358 c 0,7,8
 1051 1358 1051 1358 1206.5 1279.5 c 128,-1,9
 1362 1201 1362 1201 1452 1053 c 128,-1,10
 1542 905 1542 905 1542 713 c 0,11,12
 1542 606 1542 606 1509.5 514.5 c 128,-1,13
 1477 423 1477 423 1424 363 c 128,-1,14
 1371 303 1371 303 1304 269.5 c 128,-1,15
 1237 236 1237 236 1166 236 c 0,16,17
 1092 236 1092 236 1043 277 c 128,-1,18
 994 318 994 318 984 391 c 1,19,20
 943 333 943 333 881 288.5 c 128,-1,21
 819 244 819 244 740 244 c 0,22,23
 622 244 622 244 551.5 329.5 c 128,-1,24
 481 415 481 415 481 561 c 0,25,26
 481 683 481 683 524 781.5 c 128,-1,27
 567 880 567 880 655 940 c 128,-1,28
 743 1000 743 1000 862 1000 c 0,29,30
 990 1000 990 1000 1138 950 c 1,31,32
 1132 909 1132 909 1113.5 785.5 c 128,-1,33
 1095 662 1095 662 1087 594 c 128,-1,34
 1079 526 1079 526 1079 476 c 0,35,36
 1079 347 1079 347 1180 347 c 0,37,38
 1271 347 1271 347 1346.5 456.5 c 128,-1,39
 1422 566 1422 566 1422 720 c 0,40,41
 1422 881 1422 881 1348 1001 c 128,-1,42
 1274 1121 1274 1121 1144.5 1183 c 128,-1,43
 1015 1245 1015 1245 849 1245 c 0,44,45
 666 1245 666 1245 521 1160.5 c 128,-1,46
 376 1076 376 1076 295.5 927 c 128,-1,47
 215 778 215 778 215 591 c 0,48,49
 215 312 215 312 374 153.5 c 128,-1,50
 533 -5 533 -5 798 -5 c 0,51,52
 1024 -5 1024 -5 1204 98 c 1,53,-1
 1236 -3 l 1,54,55
 1063 -119 1063 -119 797 -119 c 0,0,1
757 360 m 0,56,57
 853 360 853 360 903.5 440 c 128,-1,58
 954 520 954 520 972 664 c 0,59,60
 984 758 984 758 996 872 c 1,61,62
 945 890 945 890 863 890 c 0,63,64
 739 890 739 890 675 795 c 128,-1,65
 611 700 611 700 611 554 c 0,66,67
 611 464 611 464 647.5 412 c 128,-1,68
 684 360 684 360 757 360 c 0,56,57
EndSplineSet
EndChar

StartChar: A
Encoding: 65 65 36
Width: 1401
GlyphClass: 2
Flags: W
LayerCount: 2
Fore
SplineSet
485 561 m 1,0,-1
 929 561 l 1,1,-1
 700 1223 l 1,2,-1
 485 561 l 1,0,-1
96 0 m 1,3,-1
 600 1390 l 1,4,-1
 802 1390 l 1,5,-1
 1305 0 l 1,6,-1
 1137 0 l 1,7,-1
 978 430 l 1,8,-1
 434 430 l 1,9,-1
 274 0 l 1,10,-1
 96 0 l 1,3,-1
EndSplineSet
EndChar

StartChar: B
Encoding: 66 66 37
Width: 1341
GlyphClass: 2
Flags: W
LayerCount: 2
Fore
SplineSet
216 0 m 1,0,-1
 216 1390 l 1,1,-1
 609 1390 l 2,2,3
 873 1390 873 1390 1001 1309.5 c 128,-1,4
 1129 1229 1129 1229 1129 1055 c 0,5,6
 1129 1029 1129 1029 1126 1003 c 128,-1,7
 1123 977 1123 977 1109 936 c 128,-1,8
 1095 895 1095 895 1072 861.5 c 128,-1,9
 1049 828 1049 828 1004 795 c 128,-1,10
 959 762 959 762 899 743 c 1,11,12
 1037 718 1037 718 1108.5 628.5 c 128,-1,13
 1180 539 1180 539 1180 413 c 0,14,15
 1180 227 1180 227 1056 113.5 c 128,-1,16
 932 0 932 0 695 0 c 2,17,-1
 216 0 l 1,0,-1
377 129 m 1,18,-1
 663 129 l 2,19,20
 834 129 834 129 923 205.5 c 128,-1,21
 1012 282 1012 282 1012 419 c 0,22,23
 1012 558 1012 558 918 614.5 c 128,-1,24
 824 671 824 671 625 671 c 2,25,-1
 377 671 l 1,26,-1
 377 129 l 1,18,-1
377 797 m 1,27,-1
 670 797 l 2,28,29
 811 797 811 797 886 850.5 c 128,-1,30
 961 904 961 904 961 1031 c 128,-1,31
 961 1158 961 1158 873 1207.5 c 128,-1,32
 785 1257 785 1257 601 1257 c 2,33,-1
 377 1257 l 1,34,-1
 377 797 l 1,27,-1
EndSplineSet
EndChar

StartChar: C
Encoding: 67 67 38
Width: 1315
GlyphClass: 2
Flags: W
LayerCount: 2
Fore
SplineSet
804 -18 m 0,0,1
 651 -12 651 -12 529 46.5 c 128,-1,2
 407 105 407 105 327.5 204 c 128,-1,3
 248 303 248 303 206 436 c 128,-1,4
 164 569 164 569 164 725 c 0,5,6
 164 928 164 928 242 1083 c 128,-1,7
 320 1238 320 1238 470 1325.5 c 128,-1,8
 620 1413 620 1413 822 1413 c 0,9,10
 1044 1413 1044 1413 1196 1317 c 1,11,-1
 1154 1193 l 1,12,13
 1016 1275 1016 1275 824 1275 c 0,14,15
 593 1275 593 1275 464.5 1120.5 c 128,-1,16
 336 966 336 966 336 719 c 0,17,18
 336 596 336 596 364 492 c 128,-1,19
 392 388 392 388 450.5 304.5 c 128,-1,20
 509 221 509 221 608 172 c 128,-1,21
 707 123 707 123 840 120 c 0,22,23
 992 116 992 116 1160 196 c 1,24,-1
 1186 68 l 1,25,26
 1127 32 1127 32 1023.5 4.5 c 128,-1,27
 920 -23 920 -23 804 -18 c 0,0,1
EndSplineSet
EndChar

StartChar: D
Encoding: 68 68 39
Width: 1511
GlyphClass: 2
Flags: W
LayerCount: 2
Fore
SplineSet
394 1252 m 1,0,-1
 394 137 l 1,1,-1
 625 137 l 2,2,3
 891 137 891 137 1029 281.5 c 128,-1,4
 1167 426 1167 426 1167 694 c 0,5,6
 1167 1252 1167 1252 598 1252 c 2,7,-1
 394 1252 l 1,0,-1
216 0 m 1,8,-1
 216 1390 l 1,9,-1
 596 1390 l 2,10,11
 767 1390 767 1390 903.5 1348 c 128,-1,12
 1040 1306 1040 1306 1139 1222.5 c 128,-1,13
 1238 1139 1238 1139 1291.5 1006 c 128,-1,14
 1345 873 1345 873 1345 698 c 0,15,16
 1345 363 1345 363 1154 181.5 c 128,-1,17
 963 0 963 0 624 0 c 2,18,-1
 216 0 l 1,8,-1
EndSplineSet
EndChar

StartChar: E
Encoding: 69 69 40
Width: 1214
GlyphClass: 2
Flags: W
LayerCount: 2
Fore
SplineSet
394 1251 m 1,0,-1
 394 790 l 1,1,-1
 998 790 l 1,2,-1
 998 653 l 1,3,-1
 394 653 l 1,4,-1
 394 139 l 1,5,-1
 1088 139 l 1,6,-1
 1080 0 l 1,7,-1
 216 0 l 1,8,-1
 216 1390 l 1,9,-1
 1053 1390 l 1,10,-1
 1046 1251 l 1,11,-1
 394 1251 l 1,0,-1
EndSplineSet
EndChar

StartChar: F
Encoding: 70 70 41
Width: 1088
GlyphClass: 2
Flags: W
LayerCount: 2
Fore
SplineSet
395 1251 m 1,0,-1
 395 790 l 1,1,-1
 936 790 l 1,2,-1
 936 657 l 1,3,-1
 395 657 l 1,4,-1
 395 0 l 1,5,-1
 216 0 l 1,6,-1
 216 1390 l 1,7,-1
 992 1390 l 1,8,-1
 981 1251 l 1,9,-1
 395 1251 l 1,0,-1
EndSplineSet
EndChar

StartChar: G
Encoding: 71 71 42
Width: 1521
GlyphClass: 2
Flags: W
LayerCount: 2
Fore
SplineSet
829 -20 m 0,0,1
 661 -20 661 -20 532 34.5 c 128,-1,2
 403 89 403 89 323.5 186.5 c 128,-1,3
 244 284 244 284 204 411.5 c 128,-1,4
 164 539 164 539 164 692 c 0,5,6
 164 847 164 847 206 976.5 c 128,-1,7
 248 1106 248 1106 331.5 1204.5 c 128,-1,8
 415 1303 415 1303 550 1358 c 128,-1,9
 685 1413 685 1413 861 1413 c 0,10,11
 988 1413 988 1413 1104.5 1386.5 c 128,-1,12
 1221 1360 1221 1360 1303 1307 c 1,13,-1
 1253 1185 l 1,14,15
 1081 1275 1081 1275 861 1275 c 0,16,17
 751 1275 751 1275 663 1245 c 128,-1,18
 575 1215 575 1215 516 1162 c 128,-1,19
 457 1109 457 1109 417 1034.5 c 128,-1,20
 377 960 377 960 359.5 875 c 128,-1,21
 342 790 342 790 342 692 c 0,22,23
 342 565 342 565 371 462 c 128,-1,24
 400 359 400 359 459 281 c 128,-1,25
 518 203 518 203 614.5 160.5 c 128,-1,26
 711 118 711 118 839 118 c 0,27,28
 920 118 920 118 1016.5 126.5 c 128,-1,29
 1113 135 1113 135 1156 147 c 1,30,-1
 1156 579 l 1,31,-1
 827 579 l 1,32,-1
 835 716 l 1,33,-1
 1334 716 l 1,34,-1
 1334 59 l 1,35,36
 1129 -20 1129 -20 829 -20 c 0,0,1
EndSplineSet
EndChar

StartChar: H
Encoding: 72 72 43
Width: 1500
GlyphClass: 2
Flags: W
LayerCount: 2
Fore
SplineSet
394 766 m 1,0,-1
 1117 766 l 1,1,-1
 1117 1390 l 1,2,-1
 1295 1390 l 1,3,-1
 1295 0 l 1,4,-1
 1117 0 l 1,5,-1
 1117 634 l 1,6,-1
 394 634 l 1,7,-1
 394 0 l 1,8,-1
 216 0 l 1,9,-1
 216 1390 l 1,10,-1
 394 1390 l 1,11,-1
 394 766 l 1,0,-1
EndSplineSet
EndChar

StartChar: I
Encoding: 73 73 44
Width: 635
GlyphClass: 2
Flags: W
LayerCount: 2
Fore
SplineSet
232 0 m 1,0,-1
 232 1390 l 1,1,-1
 411 1390 l 1,2,-1
 411 0 l 1,3,-1
 232 0 l 1,0,-1
EndSplineSet
EndChar

StartChar: J
Encoding: 74 74 45
Width: 733
GlyphClass: 2
Flags: W
LayerCount: 2
Fore
SplineSet
113 -204 m 1,0,-1
 99 -59 l 1,1,2
 143 -59 143 -59 177.5 -55.5 c 128,-1,3
 212 -52 212 -52 237 -43 c 128,-1,4
 262 -34 262 -34 280 -25 c 128,-1,5
 298 -16 298 -16 309.5 2.5 c 128,-1,6
 321 21 321 21 327.5 35.5 c 128,-1,7
 334 50 334 50 337 77.5 c 128,-1,8
 340 105 340 105 340.5 125 c 128,-1,9
 341 145 341 145 341 181 c 2,10,-1
 341 1408 l 1,11,-1
 519 1408 l 1,12,-1
 519 214 l 2,13,14
 519 138 519 138 514 85.5 c 128,-1,15
 509 33 509 33 494 -18 c 128,-1,16
 479 -69 479 -69 451 -100.5 c 128,-1,17
 423 -132 423 -132 378 -157 c 128,-1,18
 333 -182 333 -182 267.5 -193 c 128,-1,19
 202 -204 202 -204 113 -204 c 1,0,-1
EndSplineSet
EndChar

StartChar: K
Encoding: 75 75 46
Width: 1386
GlyphClass: 2
Flags: W
LayerCount: 2
Fore
SplineSet
1081 1389 m 1,0,-1
 1285 1389 l 1,1,-1
 721 785 l 1,2,-1
 1336 0 l 1,3,-1
 1140 0 l 1,4,-1
 599 684 l 1,5,-1
 394 493 l 1,6,-1
 394 0 l 1,7,-1
 216 0 l 1,8,-1
 216 1389 l 1,9,-1
 394 1389 l 1,10,-1
 394 661 l 1,11,-1
 1081 1389 l 1,0,-1
EndSplineSet
EndChar

StartChar: L
Encoding: 76 76 47
Width: 1093
GlyphClass: 2
Flags: W
LayerCount: 2
Fore
SplineSet
1036 140 m 1,0,-1
 1029 0 l 1,1,-1
 216 0 l 1,2,-1
 216 1390 l 1,3,-1
 395 1390 l 1,4,-1
 395 140 l 1,5,-1
 1036 140 l 1,0,-1
EndSplineSet
EndChar

StartChar: M
Encoding: 77 77 48
Width: 1786
GlyphClass: 2
Flags: W
LayerCount: 2
Fore
SplineSet
1363 1390 m 1,0,-1
 1570 1390 l 1,1,-1
 1570 0 l 1,2,-1
 1415 0 l 1,3,-1
 1415 843 l 1,4,-1
 1422 1163 l 1,5,-1
 976 108 l 1,6,-1
 818 108 l 1,7,-1
 360 1167 l 1,8,-1
 371 839 l 1,9,-1
 371 0 l 1,10,-1
 216 0 l 1,11,-1
 216 1390 l 1,12,-1
 429 1390 l 1,13,-1
 897 305 l 1,14,-1
 1363 1390 l 1,0,-1
EndSplineSet
EndChar

StartChar: N
Encoding: 78 78 49
Width: 1598
GlyphClass: 2
Flags: W
LayerCount: 2
Fore
SplineSet
1231 215 m 1,0,-1
 1226 555 l 1,1,-1
 1226 1390 l 1,2,-1
 1382 1390 l 1,3,-1
 1382 0 l 1,4,-1
 1199 0 l 1,5,-1
 367 1171 l 1,6,-1
 372 830 l 1,7,-1
 372 0 l 1,8,-1
 216 0 l 1,9,-1
 216 1390 l 1,10,-1
 395 1390 l 1,11,-1
 1231 215 l 1,0,-1
EndSplineSet
EndChar

StartChar: O
Encoding: 79 79 50
Width: 1635
GlyphClass: 2
Flags: W
LayerCount: 2
Fore
SplineSet
1471 697 m 0,0,1
 1471 490 1471 490 1396 329.5 c 128,-1,2
 1321 169 1321 169 1171.5 74.5 c 128,-1,3
 1022 -20 1022 -20 818 -20 c 0,4,5
 662 -20 662 -20 537.5 33.5 c 128,-1,6
 413 87 413 87 331.5 182.5 c 128,-1,7
 250 278 250 278 207 409.5 c 128,-1,8
 164 541 164 541 164 698 c 0,9,10
 164 912 164 912 240 1072.5 c 128,-1,11
 316 1233 316 1233 465 1323 c 128,-1,12
 614 1413 614 1413 819 1413 c 0,13,14
 1020 1413 1020 1413 1168.5 1322.5 c 128,-1,15
 1317 1232 1317 1232 1394 1070.5 c 128,-1,16
 1471 909 1471 909 1471 697 c 0,0,1
818 118 m 0,17,18
 936 118 936 118 1028 163.5 c 128,-1,19
 1120 209 1120 209 1177 289 c 128,-1,20
 1234 369 1234 369 1263 472 c 128,-1,21
 1292 575 1292 575 1292 697 c 0,22,23
 1292 865 1292 865 1241 993.5 c 128,-1,24
 1190 1122 1190 1122 1081.5 1198.5 c 128,-1,25
 973 1275 973 1275 819 1275 c 0,26,27
 703 1275 703 1275 611.5 1231.5 c 128,-1,28
 520 1188 520 1188 461.5 1110 c 128,-1,29
 403 1032 403 1032 373 927 c 128,-1,30
 343 822 343 822 343 697 c 0,31,32
 343 600 343 600 361 514.5 c 128,-1,33
 379 429 379 429 417 356 c 128,-1,34
 455 283 455 283 510.5 230 c 128,-1,35
 566 177 566 177 644.5 147.5 c 128,-1,36
 723 118 723 118 818 118 c 0,17,18
EndSplineSet
EndChar

StartChar: P
Encoding: 80 80 51
Width: 1206
GlyphClass: 2
Flags: W
LayerCount: 2
Fore
SplineSet
216 0 m 1,0,-1
 216 1390 l 1,1,-1
 666 1390 l 2,2,3
 871 1390 871 1390 997.5 1295.5 c 128,-1,4
 1124 1201 1124 1201 1124 1023 c 0,5,6
 1124 613 1124 613 645 613 c 0,7,8
 448 613 448 613 395 616 c 1,9,-1
 395 0 l 1,10,-1
 216 0 l 1,0,-1
653 744 m 0,11,12
 815 744 815 744 880 811.5 c 128,-1,13
 945 879 945 879 945 1020 c 0,14,15
 945 1138 945 1138 870 1195.5 c 128,-1,16
 795 1253 795 1253 662 1253 c 2,17,-1
 395 1253 l 1,18,-1
 395 746 l 1,19,20
 590 744 590 744 653 744 c 0,11,12
EndSplineSet
EndChar

StartChar: Q
Encoding: 81 81 52
Width: 1639
GlyphClass: 2
Flags: W
LayerCount: 2
Fore
SplineSet
820 118 m 0,0,1
 938 118 938 118 1030 163.5 c 128,-1,2
 1122 209 1122 209 1179 289 c 128,-1,3
 1236 369 1236 369 1265 472 c 128,-1,4
 1294 575 1294 575 1294 697 c 0,5,6
 1294 865 1294 865 1243 993.5 c 128,-1,7
 1192 1122 1192 1122 1083.5 1198.5 c 128,-1,8
 975 1275 975 1275 821 1275 c 0,9,10
 705 1275 705 1275 613.5 1231.5 c 128,-1,11
 522 1188 522 1188 463.5 1110 c 128,-1,12
 405 1032 405 1032 375 927 c 128,-1,13
 345 822 345 822 345 697 c 0,14,15
 345 600 345 600 363 514.5 c 128,-1,16
 381 429 381 429 419 356 c 128,-1,17
 457 283 457 283 512.5 230 c 128,-1,18
 568 177 568 177 646.5 147.5 c 128,-1,19
 725 118 725 118 820 118 c 0,0,1
1318 -318 m 1,20,-1
 1215 -421 l 1,21,22
 1171 -378 1171 -378 1069.5 -247 c 128,-1,23
 968 -116 968 -116 917 -14 c 1,24,25
 870 -20 870 -20 820 -20 c 0,26,27
 664 -20 664 -20 539.5 33.5 c 128,-1,28
 415 87 415 87 333.5 182.5 c 128,-1,29
 252 278 252 278 209 409.5 c 128,-1,30
 166 541 166 541 166 698 c 0,31,32
 166 912 166 912 242 1072.5 c 128,-1,33
 318 1233 318 1233 467 1323 c 128,-1,34
 616 1413 616 1413 821 1413 c 0,35,36
 1022 1413 1022 1413 1170.5 1322.5 c 128,-1,37
 1319 1232 1319 1232 1396 1070.5 c 128,-1,38
 1473 909 1473 909 1473 697 c 0,39,40
 1473 452 1473 452 1366.5 273 c 128,-1,41
 1260 94 1260 94 1064 23 c 1,42,43
 1214 -216 1214 -216 1318 -318 c 1,20,-1
EndSplineSet
EndChar

StartChar: R
Encoding: 82 82 53
Width: 1421
GlyphClass: 2
Flags: W
LayerCount: 2
Fore
SplineSet
754 799 m 2,0,1
 845 799 845 799 905 813.5 c 128,-1,2
 965 828 965 828 998.5 859 c 128,-1,3
 1032 890 1032 890 1045.5 932.5 c 128,-1,4
 1059 975 1059 975 1059 1038 c 0,5,6
 1059 1149 1059 1149 990.5 1200.5 c 128,-1,7
 922 1252 922 1252 746 1252 c 2,8,-1
 395 1252 l 1,9,-1
 395 799 l 1,10,-1
 754 799 l 2,0,1
216 0 m 1,11,-1
 216 1390 l 1,12,-1
 719 1390 l 2,13,14
 823 1390 823 1390 900 1381 c 128,-1,15
 977 1372 977 1372 1043 1348.5 c 128,-1,16
 1109 1325 1109 1325 1150 1285.5 c 128,-1,17
 1191 1246 1191 1246 1213.5 1185 c 128,-1,18
 1236 1124 1236 1124 1236 1040 c 0,19,20
 1236 908 1236 908 1179.5 825 c 128,-1,21
 1123 742 1123 742 991 700 c 1,22,-1
 1312 0 l 1,23,-1
 1126 0 l 1,24,-1
 831 664 l 1,25,26
 763 659 763 659 670 659 c 2,27,-1
 395 661 l 1,28,-1
 395 0 l 1,29,-1
 216 0 l 1,11,-1
EndSplineSet
EndChar

StartChar: S
Encoding: 83 83 54
Width: 1233
GlyphClass: 2
Flags: W
LayerCount: 2
Fore
SplineSet
647 -20 m 0,0,1
 496 -20 496 -20 377.5 18.5 c 128,-1,2
 259 57 259 57 181 108 c 1,3,-1
 235 240 l 1,4,5
 442 118 442 118 647 118 c 0,6,7
 785 118 785 118 865 183 c 128,-1,8
 945 248 945 248 945 369 c 0,9,10
 945 463 945 463 895 517 c 128,-1,11
 845 571 845 571 704 620 c 2,12,-1
 481 698 l 2,13,14
 329 751 329 751 256 836 c 128,-1,15
 183 921 183 921 183 1054 c 0,16,17
 183 1150 183 1150 220.5 1221.5 c 128,-1,18
 258 1293 258 1293 325 1333.5 c 128,-1,19
 392 1374 392 1374 475 1393.5 c 128,-1,20
 558 1413 558 1413 658 1413 c 0,21,22
 770 1413 770 1413 873.5 1380.5 c 128,-1,23
 977 1348 977 1348 1050 1300 c 1,24,-1
 992 1173 l 1,25,26
 825 1275 825 1275 664 1275 c 0,27,28
 524 1275 524 1275 435 1222.5 c 128,-1,29
 346 1170 346 1170 346 1062 c 0,30,31
 346 978 346 978 390 932 c 128,-1,32
 434 886 434 886 538 850 c 2,33,-1
 761 773 l 2,34,35
 850 742 850 742 908.5 711.5 c 128,-1,36
 967 681 967 681 1013.5 635.5 c 128,-1,37
 1060 590 1060 590 1081 526.5 c 128,-1,38
 1102 463 1102 463 1102 376 c 0,39,40
 1102 180 1102 180 978.5 80 c 128,-1,41
 855 -20 855 -20 647 -20 c 0,0,1
EndSplineSet
EndChar

StartChar: T
Encoding: 84 84 55
Width: 1148
GlyphClass: 2
Flags: W
LayerCount: 2
Fore
SplineSet
1079 1390 m 1,0,-1
 1079 1251 l 1,1,-1
 663 1251 l 1,2,-1
 663 0 l 1,3,-1
 484 0 l 1,4,-1
 484 1251 l 1,5,-1
 69 1251 l 1,6,-1
 69 1390 l 1,7,-1
 1079 1390 l 1,0,-1
EndSplineSet
EndChar

StartChar: U
Encoding: 85 85 56
Width: 1451
GlyphClass: 2
Flags: W
LayerCount: 2
Fore
SplineSet
725 -20 m 128,-1,1
 461 -20 461 -20 325.5 120.5 c 128,-1,2
 190 261 190 261 190 495 c 2,3,-1
 190 1390 l 1,4,-1
 367 1390 l 1,5,-1
 367 492 l 2,6,7
 367 118 367 118 725 118 c 0,8,9
 904 118 904 118 994 213 c 128,-1,10
 1084 308 1084 308 1084 492 c 2,11,-1
 1084 1390 l 1,12,-1
 1261 1390 l 1,13,-1
 1261 493 l 2,14,15
 1261 260 1261 260 1125 120 c 128,-1,0
 989 -20 989 -20 725 -20 c 128,-1,1
EndSplineSet
EndChar

StartChar: V
Encoding: 86 86 57
Width: 1319
GlyphClass: 2
Flags: W
LayerCount: 2
Fore
SplineSet
748 0 m 1,0,-1
 580 0 l 1,1,-1
 70 1390 l 1,2,-1
 256 1390 l 1,3,-1
 561 492 l 1,4,-1
 664 197 l 1,5,-1
 768 495 l 1,6,-1
 1074 1390 l 1,7,-1
 1258 1390 l 1,8,-1
 748 0 l 1,0,-1
EndSplineSet
EndChar

StartChar: W
Encoding: 87 87 58
Width: 2023
GlyphClass: 2
Flags: W
LayerCount: 2
Fore
SplineSet
919 1365 m 1,0,-1
 1101 1365 l 1,1,-1
 1431 221 l 1,2,-1
 1767 1390 l 1,3,-1
 1944 1390 l 1,4,-1
 1529 0 l 1,5,-1
 1344 0 l 1,6,-1
 1017 1160 l 1,7,-1
 668 0 l 1,8,-1
 486 0 l 1,9,-1
 74 1390 l 1,10,-1
 252 1390 l 1,11,-1
 581 222 l 1,12,-1
 919 1365 l 1,0,-1
EndSplineSet
EndChar

StartChar: X
Encoding: 88 88 59
Width: 1281
GlyphClass: 2
Flags: W
LayerCount: 2
Fore
SplineSet
743 709 m 1,0,-1
 1210 0 l 1,1,-1
 1024 0 l 1,2,-1
 643 576 l 1,3,-1
 263 0 l 1,4,-1
 77 0 l 1,5,-1
 540 709 l 1,6,-1
 77 1390 l 1,7,-1
 263 1390 l 1,8,-1
 643 831 l 1,9,-1
 1024 1390 l 1,10,-1
 1210 1390 l 1,11,-1
 743 709 l 1,0,-1
EndSplineSet
EndChar

StartChar: Y
Encoding: 89 89 60
Width: 1266
GlyphClass: 2
Flags: W
LayerCount: 2
Fore
SplineSet
645 723 m 1,0,-1
 1040 1390 l 1,1,-1
 1218 1390 l 1,2,-1
 735 577 l 1,3,-1
 735 0 l 1,4,-1
 557 0 l 1,5,-1
 557 573 l 1,6,-1
 61 1390 l 1,7,-1
 239 1390 l 1,8,-1
 645 723 l 1,0,-1
EndSplineSet
EndChar

StartChar: Z
Encoding: 90 90 61
Width: 1221
GlyphClass: 2
Flags: W
LayerCount: 2
Fore
SplineSet
182 1390 m 1,0,-1
 1094 1390 l 1,1,-1
 1094 1272 l 1,2,-1
 352 138 l 1,3,-1
 1101 138 l 1,4,-1
 1095 0 l 1,5,-1
 155 0 l 1,6,-1
 155 124 l 1,7,-1
 885 1252 l 1,8,-1
 182 1252 l 1,9,-1
 182 1390 l 1,0,-1
EndSplineSet
EndChar

StartChar: bracketleft
Encoding: 91 91 62
Width: 643
GlyphClass: 2
Flags: W
LayerCount: 2
Fore
SplineSet
294 1229 m 1,0,-1
 294 -147 l 1,1,-1
 549 -147 l 1,2,-1
 549 -267 l 1,3,-1
 136 -267 l 1,4,-1
 136 1350 l 1,5,-1
 549 1350 l 1,6,-1
 549 1229 l 1,7,-1
 294 1229 l 1,0,-1
EndSplineSet
EndChar

StartChar: backslash
Encoding: 92 92 63
Width: 850
GlyphClass: 2
Flags: W
LayerCount: 2
Fore
SplineSet
625 -55 m 1,0,-1
 80 1332 l 1,1,-1
 222 1332 l 1,2,-1
 767 -55 l 1,3,-1
 625 -55 l 1,0,-1
EndSplineSet
EndChar

StartChar: bracketright
Encoding: 93 93 64
Width: 645
GlyphClass: 2
Flags: W
LayerCount: 2
Fore
SplineSet
96 1229 m 1,0,-1
 96 1350 l 1,1,-1
 509 1350 l 1,2,-1
 509 -267 l 1,3,-1
 96 -267 l 1,4,-1
 96 -147 l 1,5,-1
 351 -147 l 1,6,-1
 351 1229 l 1,7,-1
 96 1229 l 1,0,-1
EndSplineSet
EndChar

StartChar: asciicircum
Encoding: 94 94 65
Width: 1143
GlyphClass: 2
Flags: W
LayerCount: 2
Fore
SplineSet
109 536 m 1,0,-1
 514 1380 l 1,1,-1
 607 1380 l 1,2,-1
 1035 536 l 1,3,-1
 905 536 l 1,4,-1
 561 1215 l 1,5,-1
 241 536 l 1,6,-1
 109 536 l 1,0,-1
EndSplineSet
EndChar

StartChar: underscore
Encoding: 95 95 66
Width: 1009
GlyphClass: 2
Flags: W
LayerCount: 2
Fore
SplineSet
78 -277 m 1,0,-1
 78 -155 l 1,1,-1
 933 -155 l 1,2,-1
 933 -277 l 1,3,-1
 78 -277 l 1,0,-1
EndSplineSet
EndChar

StartChar: grave
Encoding: 96 96 67
Width: 585
GlyphClass: 2
Flags: W
LayerCount: 2
Fore
SplineSet
371 1138 m 1,0,-1
 77 1491 l 1,1,-1
 305 1491 l 1,2,-1
 473 1138 l 1,3,-1
 371 1138 l 1,0,-1
EndSplineSet
EndChar

StartChar: a
Encoding: 97 97 68
Width: 1079
GlyphClass: 2
Flags: W
LayerCount: 2
Fore
SplineSet
429 -20 m 0,0,1
 292 -20 292 -20 205 54.5 c 128,-1,2
 118 129 118 129 118 263 c 0,3,4
 118 417 118 417 235.5 491.5 c 128,-1,5
 353 566 353 566 579 583 c 1,6,-1
 754 597 l 1,7,-1
 754 685 l 2,8,9
 754 887 754 887 531 887 c 0,10,11
 460 887 460 887 363.5 862 c 128,-1,12
 267 837 267 837 195 802 c 1,13,-1
 155 927 l 1,14,15
 223 965 223 965 328.5 992 c 128,-1,16
 434 1019 434 1019 527 1019 c 0,17,18
 721 1019 721 1019 825 935.5 c 128,-1,19
 929 852 929 852 929 661 c 2,20,-1
 929 0 l 1,21,-1
 788 0 l 1,22,-1
 761 126 l 1,23,24
 716 60 716 60 623.5 20 c 128,-1,25
 531 -20 531 -20 429 -20 c 0,0,1
451 103 m 0,26,27
 546 103 546 103 638.5 146 c 128,-1,28
 731 189 731 189 754 251 c 1,29,-1
 754 490 l 1,30,31
 661 481 661 481 638 478 c 0,32,33
 439 454 439 454 365.5 409.5 c 128,-1,34
 292 365 292 365 292 262 c 0,35,36
 292 184 292 184 338 143.5 c 128,-1,37
 384 103 384 103 451 103 c 0,26,27
EndSplineSet
EndChar

StartChar: b
Encoding: 98 98 69
Width: 1203
GlyphClass: 2
Flags: W
LayerCount: 2
Fore
SplineSet
658 -20 m 0,0,1
 553 -20 553 -20 466.5 28 c 128,-1,2
 380 76 380 76 340 163 c 1,3,-1
 323 0 l 1,4,-1
 165 0 l 1,5,-1
 165 1395 l 1,6,-1
 340 1409 l 1,7,-1
 340 1053 l 2,8,9
 340 944 340 944 335 862 c 1,10,11
 385 933 385 933 473 976 c 128,-1,12
 561 1019 561 1019 659 1019 c 0,13,14
 853 1019 853 1019 975 874 c 128,-1,15
 1097 729 1097 729 1097 504 c 0,16,17
 1097 270 1097 270 980 125 c 128,-1,18
 863 -20 863 -20 658 -20 c 0,0,1
633 112 m 0,19,20
 775 112 775 112 848.5 215.5 c 128,-1,21
 922 319 922 319 922 499 c 0,22,23
 922 681 922 681 847 784 c 128,-1,24
 772 887 772 887 631 887 c 0,25,26
 475 887 475 887 407.5 785.5 c 128,-1,27
 340 684 340 684 340 482 c 0,28,29
 340 112 340 112 633 112 c 0,19,20
EndSplineSet
EndChar

StartChar: c
Encoding: 99 99 70
Width: 957
GlyphClass: 2
Flags: W
LayerCount: 2
Fore
SplineSet
584 -20 m 0,0,1
 374 -20 374 -20 240 125 c 128,-1,2
 106 270 106 270 106 496 c 0,3,4
 106 729 106 729 242 874 c 128,-1,5
 378 1019 378 1019 590 1019 c 0,6,7
 668 1019 668 1019 743.5 999.5 c 128,-1,8
 819 980 819 980 861 950 c 1,9,-1
 819 832 l 1,10,11
 716 887 716 887 613 887 c 0,12,13
 457 887 457 887 368.5 781 c 128,-1,14
 280 675 280 675 280 495 c 0,15,16
 280 320 280 320 367.5 216 c 128,-1,17
 455 112 455 112 613 112 c 0,18,19
 672 112 672 112 721 127.5 c 128,-1,20
 770 143 770 143 832 175 c 1,21,-1
 855 51 l 1,22,23
 757 -20 757 -20 584 -20 c 0,0,1
EndSplineSet
EndChar

StartChar: d
Encoding: 100 100 71
Width: 1201
GlyphClass: 2
Flags: W
LayerCount: 2
Fore
SplineSet
544 -20 m 0,0,1
 339 -20 339 -20 222.5 124.5 c 128,-1,2
 106 269 106 269 106 504 c 0,3,4
 106 732 106 732 227.5 875.5 c 128,-1,5
 349 1019 349 1019 543 1019 c 0,6,7
 641 1019 641 1019 729 976 c 128,-1,8
 817 933 817 933 867 862 c 1,9,10
 863 928 863 928 863 1053 c 2,11,-1
 863 1395 l 1,12,-1
 1038 1409 l 1,13,-1
 1038 0 l 1,14,-1
 880 0 l 1,15,-1
 863 163 l 1,16,17
 823 76 823 76 736 28 c 128,-1,18
 649 -20 649 -20 544 -20 c 0,0,1
571 112 m 0,19,20
 863 112 863 112 863 482 c 0,21,22
 863 684 863 684 795.5 785.5 c 128,-1,23
 728 887 728 887 572 887 c 0,24,25
 431 887 431 887 355.5 784 c 128,-1,26
 280 681 280 681 280 499 c 0,27,28
 280 319 280 319 354.5 215.5 c 128,-1,29
 429 112 429 112 571 112 c 0,19,20
EndSplineSet
EndChar

StartChar: e
Encoding: 101 101 72
Width: 1093
GlyphClass: 2
Flags: W
LayerCount: 2
Fore
SplineSet
282 582 m 1,0,-1
 814 582 l 1,1,2
 810 734 810 734 755.5 810.5 c 128,-1,3
 701 887 701 887 583 887 c 0,4,5
 463 887 463 887 378.5 804.5 c 128,-1,6
 294 722 294 722 282 582 c 1,0,-1
597 -20 m 0,7,8
 377 -20 377 -20 241.5 119.5 c 128,-1,9
 106 259 106 259 106 496 c 0,10,11
 106 725 106 725 242 872 c 128,-1,12
 378 1019 378 1019 578 1019 c 0,13,14
 768 1019 768 1019 873 892.5 c 128,-1,15
 978 766 978 766 978 553 c 1,16,-1
 972 469 l 1,17,-1
 278 469 l 1,18,19
 281 302 281 302 378 207 c 128,-1,20
 475 112 475 112 622 112 c 128,-1,21
 769 112 769 112 932 197 c 1,22,-1
 956 65 l 1,23,24
 815 -20 815 -20 597 -20 c 0,7,8
EndSplineSet
EndChar

StartChar: f
Encoding: 102 102 73
Width: 753
GlyphClass: 2
Flags: W
LayerCount: 2
Fore
SplineSet
263 0 m 1,0,-1
 263 887 l 1,1,-1
 56 887 l 1,2,-1
 61 981 l 1,3,-1
 263 998 l 1,4,-1
 263 1061 l 2,5,6
 263 1413 263 1413 555 1413 c 0,7,8
 641 1413 641 1413 713 1397 c 1,9,-1
 701 1265 l 1,10,11
 639 1275 639 1275 595 1275 c 0,12,13
 514 1275 514 1275 476 1227.5 c 128,-1,14
 438 1180 438 1180 438 1055 c 2,15,-1
 438 998 l 1,16,-1
 671 998 l 1,17,-1
 671 887 l 1,18,-1
 438 887 l 1,19,-1
 438 0 l 1,20,-1
 263 0 l 1,0,-1
EndSplineSet
EndChar

StartChar: g
Encoding: 103 103 74
Width: 1206
GlyphClass: 2
Flags: W
LayerCount: 2
Fore
SplineSet
566 137 m 0,0,1
 644 137 644 137 702.5 163.5 c 128,-1,2
 761 190 761 190 795.5 237 c 128,-1,3
 830 284 830 284 846.5 342 c 128,-1,4
 863 400 863 400 863 470 c 2,5,-1
 863 543 l 2,6,7
 863 695 863 695 790 791 c 128,-1,8
 717 887 717 887 570 887 c 0,9,10
 492 887 492 887 433.5 852 c 128,-1,11
 375 817 375 817 343 759.5 c 128,-1,12
 311 702 311 702 295.5 637.5 c 128,-1,13
 280 573 280 573 280 504 c 0,14,15
 280 437 280 437 296 374 c 128,-1,16
 312 311 312 311 344.5 257 c 128,-1,17
 377 203 377 203 434.5 170 c 128,-1,18
 492 137 492 137 566 137 c 0,0,1
527 -425 m 0,19,20
 410 -425 410 -425 270 -390 c 1,21,-1
 281 -262 l 1,22,23
 386 -291 386 -291 514 -291 c 0,24,25
 700 -291 700 -291 781.5 -209.5 c 128,-1,26
 863 -128 863 -128 863 73 c 2,27,-1
 863 191 l 1,28,29
 790 7 790 7 553 7 c 0,30,31
 446 7 446 7 359 48.5 c 128,-1,32
 272 90 272 90 218 159.5 c 128,-1,33
 164 229 164 229 135 315.5 c 128,-1,34
 106 402 106 402 106 496 c 0,35,36
 106 604 106 604 134 697.5 c 128,-1,37
 162 791 162 791 216 863.5 c 128,-1,38
 270 936 270 936 357.5 977.5 c 128,-1,39
 445 1019 445 1019 556 1019 c 0,40,41
 753 1019 753 1019 867 865 c 1,42,-1
 879 998 l 1,43,-1
 1038 998 l 1,44,-1
 1038 148 l 2,45,46
 1038 42 1038 42 1024.5 -41 c 128,-1,47
 1011 -124 1011 -124 976 -198 c 128,-1,48
 941 -272 941 -272 884 -320.5 c 128,-1,49
 827 -369 827 -369 737 -397 c 128,-1,50
 647 -425 647 -425 527 -425 c 0,19,20
EndSplineSet
EndChar

StartChar: h
Encoding: 104 104 75
Width: 1134
GlyphClass: 2
Flags: W
LayerCount: 2
Fore
SplineSet
166 1395 m 1,0,-1
 341 1409 l 1,1,-1
 341 864 l 1,2,3
 384 938 384 938 467 978.5 c 128,-1,4
 550 1019 550 1019 654 1019 c 0,5,6
 994 1019 994 1019 994 612 c 2,7,-1
 994 0 l 1,8,-1
 819 0 l 1,9,-1
 819 623 l 2,10,11
 819 755 819 755 776 821 c 128,-1,12
 733 887 733 887 624 887 c 0,13,14
 470 887 470 887 405.5 799 c 128,-1,15
 341 711 341 711 341 546 c 2,16,-1
 341 0 l 1,17,-1
 166 0 l 1,18,-1
 166 1395 l 1,0,-1
EndSplineSet
EndChar

StartChar: i
Encoding: 105 105 76
Width: 537
GlyphClass: 2
Flags: W
LayerCount: 2
Fore
SplineSet
189 0 m 1,0,-1
 189 998 l 1,1,-1
 364 998 l 1,2,-1
 364 0 l 1,3,-1
 189 0 l 1,0,-1
189 1181 m 1,4,-1
 189 1361 l 1,5,-1
 364 1361 l 1,6,-1
 364 1181 l 1,7,-1
 189 1181 l 1,4,-1
EndSplineSet
EndChar

StartChar: j
Encoding: 106 106 77
Width: 591
GlyphClass: 2
Flags: W
LayerCount: 2
Fore
SplineSet
253 1181 m 1,0,-1
 253 1361 l 1,1,-1
 428 1361 l 1,2,-1
 428 1181 l 1,3,-1
 253 1181 l 1,0,-1
77 -398 m 1,4,-1
 57 -257 l 1,5,-1
 105 -257 l 2,6,7
 155 -257 155 -257 185 -249.5 c 128,-1,8
 215 -242 215 -242 230 -224 c 128,-1,9
 245 -206 245 -206 249.5 -185 c 128,-1,10
 254 -164 254 -164 254 -127 c 2,11,-1
 253 998 l 1,12,-1
 428 998 l 1,13,-1
 428 -68 l 2,14,15
 428 -164 428 -164 415.5 -223.5 c 128,-1,16
 403 -283 403 -283 369 -324 c 128,-1,17
 335 -365 335 -365 277 -381.5 c 128,-1,18
 219 -398 219 -398 125 -398 c 2,19,-1
 77 -398 l 1,4,-1
EndSplineSet
EndChar

StartChar: k
Encoding: 107 107 78
Width: 1072
GlyphClass: 2
Flags: W
LayerCount: 2
Fore
SplineSet
163 1395 m 1,0,-1
 338 1409 l 1,1,-1
 338 515 l 1,2,-1
 812 998 l 1,3,-1
 1027 998 l 1,4,-1
 608 570 l 1,5,-1
 1037 0 l 1,6,-1
 844 0 l 1,7,-1
 477 496 l 1,8,-1
 338 363 l 1,9,-1
 338 0 l 1,10,-1
 163 0 l 1,11,-1
 163 1395 l 1,0,-1
EndSplineSet
EndChar

StartChar: l
Encoding: 108 108 79
Width: 613
GlyphClass: 2
Flags: W
LayerCount: 2
Fore
SplineSet
412 -18 m 0,0,1
 329 -18 329 -18 281.5 8 c 128,-1,2
 234 34 234 34 208 105.5 c 128,-1,3
 182 177 182 177 182 305 c 2,4,-1
 182 1395 l 1,5,-1
 357 1409 l 1,6,-1
 357 345 l 2,7,8
 357 246 357 246 364 199 c 128,-1,9
 371 152 371 152 389.5 134 c 128,-1,10
 408 116 408 116 447 116 c 2,11,-1
 511 116 l 1,12,-1
 522 -9 l 1,13,14
 460 -18 460 -18 412 -18 c 0,0,1
EndSplineSet
EndChar

StartChar: m
Encoding: 109 109 80
Width: 1702
GlyphClass: 2
Flags: W
LayerCount: 2
Fore
SplineSet
334 525 m 2,0,-1
 334 0 l 1,1,-1
 165 0 l 1,2,3
 163 936 163 936 163 998 c 1,4,-1
 308 998 l 1,5,-1
 326 855 l 1,6,7
 370 925 370 925 445.5 972 c 128,-1,8
 521 1019 521 1019 621 1019 c 0,9,10
 745 1019 745 1019 815.5 965.5 c 128,-1,11
 886 912 886 912 911 840 c 1,12,13
 962 928 962 928 1045.5 973.5 c 128,-1,14
 1129 1019 1129 1019 1232 1019 c 0,15,16
 1391 1019 1391 1019 1476.5 922 c 128,-1,17
 1562 825 1562 825 1562 642 c 2,18,-1
 1562 0 l 1,19,-1
 1393 0 l 1,20,-1
 1393 520 l 2,21,22
 1393 579 1393 579 1390.5 622 c 128,-1,23
 1388 665 1388 665 1381.5 710 c 128,-1,24
 1375 755 1375 755 1362.5 784.5 c 128,-1,25
 1350 814 1350 814 1329.5 839 c 128,-1,26
 1309 864 1309 864 1278.5 875.5 c 128,-1,27
 1248 887 1248 887 1207 887 c 0,28,29
 950 887 950 887 950 535 c 2,30,-1
 950 0 l 1,31,-1
 781 0 l 1,32,-1
 781 563 l 2,33,34
 781 735 781 735 740 811 c 128,-1,35
 699 887 699 887 598 887 c 0,36,37
 522 887 522 887 469.5 861 c 128,-1,38
 417 835 417 835 388 785 c 128,-1,39
 359 735 359 735 346.5 672 c 128,-1,40
 334 609 334 609 334 525 c 2,0,-1
EndSplineSet
EndChar

StartChar: n
Encoding: 110 110 81
Width: 1142
GlyphClass: 2
Flags: W
LayerCount: 2
Fore
SplineSet
163 0 m 1,0,-1
 163 998 l 1,1,-1
 312 998 l 1,2,-1
 331 855 l 1,3,4
 440 1019 440 1019 657 1019 c 0,5,6
 1002 1019 1002 1019 1002 612 c 2,7,-1
 1002 0 l 1,8,-1
 827 0 l 1,9,-1
 827 623 l 2,10,11
 827 753 827 753 780 820 c 128,-1,12
 733 887 733 887 623 887 c 0,13,14
 469 887 469 887 403.5 799 c 128,-1,15
 338 711 338 711 338 546 c 2,16,-1
 338 0 l 1,17,-1
 163 0 l 1,0,-1
EndSplineSet
EndChar

StartChar: o
Encoding: 111 111 82
Width: 1144
GlyphClass: 2
Flags: W
LayerCount: 2
Fore
SplineSet
572 -20 m 128,-1,1
 361 -20 361 -20 233.5 125.5 c 128,-1,2
 106 271 106 271 106 499 c 0,3,4
 106 732 106 732 230.5 875.5 c 128,-1,5
 355 1019 355 1019 572 1019 c 128,-1,6
 789 1019 789 1019 913.5 875.5 c 128,-1,7
 1038 732 1038 732 1038 499 c 0,8,9
 1038 271 1038 271 910.5 125.5 c 128,-1,0
 783 -20 783 -20 572 -20 c 128,-1,1
572 112 m 128,-1,11
 720 112 720 112 791.5 217.5 c 128,-1,12
 863 323 863 323 863 497 c 0,13,14
 863 674 863 674 791 780.5 c 128,-1,15
 719 887 719 887 572 887 c 0,16,17
 472 887 472 887 405 835 c 128,-1,18
 338 783 338 783 309 697.5 c 128,-1,19
 280 612 280 612 280 497 c 0,20,21
 280 323 280 323 352 217.5 c 128,-1,10
 424 112 424 112 572 112 c 128,-1,11
EndSplineSet
EndChar

StartChar: p
Encoding: 112 112 83
Width: 1201
GlyphClass: 2
Flags: W
LayerCount: 2
Fore
SplineSet
163 998 m 1,0,-1
 321 998 l 1,1,-1
 338 835 l 1,2,3
 379 923 379 923 469 971 c 128,-1,4
 559 1019 559 1019 666 1019 c 0,5,6
 870 1019 870 1019 982.5 874.5 c 128,-1,7
 1095 730 1095 730 1095 494 c 0,8,9
 1095 267 1095 267 976 123.5 c 128,-1,10
 857 -20 857 -20 657 -20 c 0,11,12
 556 -20 556 -20 465 28 c 128,-1,13
 374 76 374 76 333 154 c 1,14,15
 338 71 338 71 338 -55 c 2,16,-1
 338 -423 l 1,17,-1
 163 -433 l 1,18,-1
 163 998 l 1,0,-1
633 112 m 128,-1,20
 774 112 774 112 847 214.5 c 128,-1,21
 920 317 920 317 920 500 c 0,22,23
 920 681 920 681 848 784 c 128,-1,24
 776 887 776 887 634 887 c 0,25,26
 484 887 484 887 411 790.5 c 128,-1,27
 338 694 338 694 338 516 c 0,28,29
 338 322 338 322 415 217 c 128,-1,19
 492 112 492 112 633 112 c 128,-1,20
EndSplineSet
EndChar

StartChar: q
Encoding: 113 113 84
Width: 1200
GlyphClass: 2
Flags: W
LayerCount: 2
Fore
SplineSet
1037 998 m 1,0,-1
 1037 -423 l 1,1,-1
 863 -433 l 1,2,-1
 863 -55 l 2,3,4
 863 70 863 70 867 136 c 1,5,6
 817 66 817 66 729 23 c 128,-1,7
 641 -20 641 -20 543 -20 c 0,8,9
 349 -20 349 -20 227.5 124.5 c 128,-1,10
 106 269 106 269 106 494 c 0,11,12
 106 729 106 729 222.5 874 c 128,-1,13
 339 1019 339 1019 544 1019 c 0,14,15
 649 1019 649 1019 736 970.5 c 128,-1,16
 823 922 823 922 863 835 c 1,17,-1
 880 998 l 1,18,-1
 1037 998 l 1,0,-1
571 112 m 0,19,20
 727 112 727 112 795 213 c 128,-1,21
 863 314 863 314 863 516 c 0,22,23
 863 887 863 887 571 887 c 0,24,25
 429 887 429 887 354.5 783.5 c 128,-1,26
 280 680 280 680 280 500 c 0,27,28
 280 318 280 318 355 215 c 128,-1,29
 430 112 430 112 571 112 c 0,19,20
EndSplineSet
EndChar

StartChar: r
Encoding: 114 114 85
Width: 768
GlyphClass: 2
Flags: W
LayerCount: 2
Fore
SplineSet
164 998 m 1,0,-1
 313 998 l 1,1,-1
 327 819 l 1,2,3
 378 904 378 904 458.5 955.5 c 128,-1,4
 539 1007 539 1007 629 1007 c 0,5,6
 671 1007 671 1007 717 999 c 1,7,-1
 707 860 l 1,8,9
 660 869 660 869 626 869 c 0,10,11
 498 869 498 869 418.5 780.5 c 128,-1,12
 339 692 339 692 339 561 c 2,13,-1
 339 0 l 1,14,-1
 164 0 l 1,15,-1
 164 998 l 1,0,-1
EndSplineSet
EndChar

StartChar: s
Encoding: 115 115 86
Width: 911
GlyphClass: 2
Flags: W
LayerCount: 2
Fore
SplineSet
472 -20 m 0,0,1
 299 -20 299 -20 126 72 c 1,2,-1
 172 200 l 1,3,4
 313 112 313 112 464 112 c 0,5,6
 572 112 572 112 624 146 c 128,-1,7
 676 180 676 180 676 254 c 0,8,9
 676 320 676 320 632.5 354.5 c 128,-1,10
 589 389 589 389 448 439 c 1,11,-1
 378 465 l 2,12,13
 242 515 242 515 185.5 581.5 c 128,-1,14
 129 648 129 648 128 745 c 1,15,16
 128 864 128 864 219.5 941.5 c 128,-1,17
 311 1019 311 1019 478 1019 c 0,18,19
 561 1019 561 1019 643 993.5 c 128,-1,20
 725 968 725 968 782 934 c 1,21,-1
 743 813 l 1,22,23
 601 887 601 887 486 887 c 0,24,25
 390 887 390 887 336 851 c 128,-1,26
 282 815 282 815 282 751 c 0,27,28
 282 693 282 693 317.5 663.5 c 128,-1,29
 353 634 353 634 466 593 c 2,30,-1
 536 568 l 2,31,32
 698 510 698 510 759.5 446 c 128,-1,33
 821 382 821 382 821 269 c 1,34,35
 819 129 819 129 729 54.5 c 128,-1,36
 639 -20 639 -20 472 -20 c 0,0,1
EndSplineSet
EndChar

StartChar: t
Encoding: 116 116 87
Width: 822
GlyphClass: 2
Flags: W
LayerCount: 2
Fore
SplineSet
548 -18 m 0,0,1
 400 -18 400 -18 325.5 68 c 128,-1,2
 251 154 251 154 251 313 c 2,3,-1
 251 887 l 1,4,-1
 103 887 l 1,5,-1
 109 986 l 1,6,-1
 250 998 l 1,7,-1
 302 1241 l 1,8,-1
 426 1244 l 1,9,-1
 426 998 l 1,10,-1
 717 998 l 1,11,-1
 717 887 l 1,12,-1
 426 887 l 1,13,-1
 426 313 l 2,14,15
 426 200 426 200 459.5 157 c 128,-1,16
 493 114 493 114 577 114 c 0,17,18
 647 114 647 114 713 139 c 1,19,-1
 740 13 l 1,20,21
 666 -18 666 -18 548 -18 c 0,0,1
EndSplineSet
EndChar

StartChar: u
Encoding: 117 117 88
Width: 1145
GlyphClass: 2
Flags: W
LayerCount: 2
Fore
SplineSet
982 998 m 1,0,-1
 982 0 l 1,1,-1
 834 0 l 1,2,-1
 815 143 l 1,3,4
 776 60 776 60 688.5 20 c 128,-1,5
 601 -20 601 -20 487 -20 c 0,6,7
 143 -20 143 -20 143 387 c 2,8,-1
 143 998 l 1,9,-1
 317 998 l 1,10,-1
 317 375 l 2,11,12
 317 244 317 244 362 178 c 128,-1,13
 407 112 407 112 517 112 c 0,14,15
 671 112 671 112 739 200.5 c 128,-1,16
 807 289 807 289 807 452 c 2,17,-1
 807 998 l 1,18,-1
 982 998 l 1,0,-1
EndSplineSet
EndChar

StartChar: v
Encoding: 118 118 89
Width: 1058
GlyphClass: 2
Flags: W
LayerCount: 2
Fore
SplineSet
445 0 m 1,0,-1
 53 998 l 1,1,-1
 234 998 l 1,2,-1
 536 173 l 1,3,-1
 827 998 l 1,4,-1
 1007 998 l 1,5,-1
 623 0 l 1,6,-1
 445 0 l 1,0,-1
EndSplineSet
EndChar

StartChar: w
Encoding: 119 119 90
Width: 1528
GlyphClass: 2
Flags: W
LayerCount: 2
Fore
SplineSet
66 998 m 1,0,-1
 229 998 l 1,1,-1
 437 190 l 1,2,-1
 675 998 l 1,3,-1
 858 998 l 1,4,-1
 1104 193 l 1,5,-1
 1302 998 l 1,6,-1
 1462 998 l 1,7,-1
 1187 0 l 1,8,-1
 1028 0 l 1,9,-1
 767 855 l 1,10,-1
 514 0 l 1,11,-1
 347 0 l 1,12,-1
 66 998 l 1,0,-1
EndSplineSet
EndChar

StartChar: x
Encoding: 120 120 91
Width: 1035
GlyphClass: 2
Flags: W
LayerCount: 2
Fore
SplineSet
516 623 m 1,0,-1
 781 998 l 1,1,-1
 973 998 l 1,2,-1
 617 504 l 1,3,-1
 986 0 l 1,4,-1
 800 0 l 1,5,-1
 516 396 l 1,6,-1
 233 0 l 1,7,-1
 49 0 l 1,8,-1
 415 508 l 1,9,-1
 65 998 l 1,10,-1
 249 998 l 1,11,-1
 516 623 l 1,0,-1
EndSplineSet
EndChar

StartChar: y
Encoding: 121 121 92
Width: 1068
GlyphClass: 2
Flags: W
LayerCount: 2
Fore
SplineSet
322 -405 m 1,0,-1
 478 11 l 1,1,-1
 77 998 l 1,2,-1
 261 998 l 1,3,-1
 564 199 l 1,4,-1
 854 998 l 1,5,-1
 1042 998 l 1,6,7
 508 -371 508 -371 495 -405 c 1,8,-1
 322 -405 l 1,0,-1
EndSplineSet
EndChar

StartChar: z
Encoding: 122 122 93
Width: 914
GlyphClass: 2
Flags: W
LayerCount: 2
Fore
SplineSet
133 998 m 1,0,-1
 793 998 l 1,1,-1
 793 873 l 1,2,-1
 291 120 l 1,3,-1
 810 120 l 1,4,-1
 810 0 l 1,5,-1
 112 0 l 1,6,-1
 112 117 l 1,7,-1
 623 878 l 1,8,-1
 133 878 l 1,9,-1
 133 998 l 1,0,-1
EndSplineSet
EndChar

StartChar: braceleft
Encoding: 123 123 94
Width: 717
GlyphClass: 2
Flags: W
LayerCount: 2
Fore
SplineSet
619 -130 m 1,0,-1
 619 -256 l 1,1,2
 449 -255 449 -255 373.5 -179.5 c 128,-1,3
 298 -104 298 -104 298 56 c 2,4,-1
 298 245 l 2,5,6
 298 310 298 310 291 352.5 c 128,-1,7
 284 395 284 395 264.5 432.5 c 128,-1,8
 245 470 245 470 205.5 488 c 128,-1,9
 166 506 166 506 104 506 c 1,10,-1
 104 638 l 1,11,12
 161 639 161 639 198 651.5 c 128,-1,13
 235 664 235 664 255 680.5 c 128,-1,14
 275 697 275 697 285 736 c 128,-1,15
 295 775 295 775 296.5 805 c 128,-1,16
 298 835 298 835 298 898 c 2,17,-1
 298 1119 l 2,18,19
 298 1259 298 1259 380 1329.5 c 128,-1,20
 462 1400 462 1400 619 1400 c 1,21,-1
 619 1275 l 1,22,23
 520 1274 520 1274 484.5 1228 c 128,-1,24
 449 1182 449 1182 449 1067 c 2,25,-1
 449 826 l 2,26,27
 449 744 449 744 408.5 683 c 128,-1,28
 368 622 368 622 280 570 c 1,29,30
 367 542 367 542 408 474 c 128,-1,31
 449 406 449 406 449 318 c 2,32,-1
 449 76 l 2,33,34
 449 -41 449 -41 484.5 -85 c 128,-1,35
 520 -129 520 -129 619 -130 c 1,0,-1
EndSplineSet
EndChar

StartChar: bar
Encoding: 124 124 95
Width: 488
GlyphClass: 2
Flags: W
LayerCount: 2
Fore
SplineSet
178 -276 m 1,0,-1
 178 1525 l 1,1,-1
 310 1525 l 1,2,-1
 310 -276 l 1,3,-1
 178 -276 l 1,0,-1
EndSplineSet
EndChar

StartChar: braceright
Encoding: 125 125 96
Width: 726
GlyphClass: 2
Flags: W
LayerCount: 2
Fore
SplineSet
101 -256 m 1,0,-1
 101 -130 l 1,1,2
 199 -129 199 -129 235 -84.5 c 128,-1,3
 271 -40 271 -40 271 76 c 2,4,-1
 271 318 l 2,5,6
 271 403 271 403 306.5 456.5 c 128,-1,7
 342 510 342 510 439 575 c 1,8,9
 353 602 353 602 312 670 c 128,-1,10
 271 738 271 738 271 826 c 2,11,-1
 271 1067 l 2,12,13
 271 1182 271 1182 235.5 1228 c 128,-1,14
 200 1274 200 1274 101 1275 c 1,15,-1
 101 1400 l 1,16,17
 269 1400 269 1400 345 1323.5 c 128,-1,18
 421 1247 421 1247 421 1087 c 2,19,-1
 421 898 l 2,20,21
 421 832 421 832 427 790.5 c 128,-1,22
 433 749 433 749 452.5 711.5 c 128,-1,23
 472 674 472 674 512.5 656.5 c 128,-1,24
 553 639 553 639 617 638 c 1,25,-1
 617 506 l 1,26,27
 555 506 555 506 515 488 c 128,-1,28
 475 470 475 470 455 433 c 128,-1,29
 435 396 435 396 428 353 c 128,-1,30
 421 310 421 310 421 245 c 2,31,-1
 421 25 l 2,32,33
 421 -254 421 -254 101 -256 c 1,0,-1
EndSplineSet
EndChar

StartChar: asciitilde
Encoding: 126 126 97
Width: 1132
GlyphClass: 2
Flags: W
LayerCount: 2
Fore
SplineSet
147 458 m 1,0,-1
 100 553 l 1,1,2
 135 634 135 634 197.5 683.5 c 128,-1,3
 260 733 260 733 347 733 c 0,4,5
 400 733 400 733 448.5 719 c 128,-1,6
 497 705 497 705 571 672 c 0,7,8
 577 669 577 669 598.5 659.5 c 128,-1,9
 620 650 620 650 627 647 c 128,-1,10
 634 644 634 644 652.5 636.5 c 128,-1,11
 671 629 671 629 678.5 626 c 128,-1,12
 686 623 686 623 701 617.5 c 128,-1,13
 716 612 716 612 725 610 c 128,-1,14
 734 608 734 608 745.5 605 c 128,-1,15
 757 602 757 602 766.5 601 c 128,-1,16
 776 600 776 600 785 600 c 0,17,18
 839 600 839 600 890 640 c 128,-1,19
 941 680 941 680 975 742 c 1,20,-1
 1026 654 l 1,21,22
 990 567 990 567 928.5 518.5 c 128,-1,23
 867 470 867 470 781 470 c 0,24,25
 703 470 703 470 567 531 c 0,26,27
 510 557 510 557 480 569.5 c 128,-1,28
 450 582 450 582 412 592.5 c 128,-1,29
 374 603 374 603 343 603 c 0,30,31
 284 603 284 603 232.5 562 c 128,-1,32
 181 521 181 521 147 458 c 1,0,-1
EndSplineSet
EndChar

StartChar: exclamdown
Encoding: 161 161 99
Width: 557
GlyphClass: 2
Flags: W
LayerCount: 2
Fore
SplineSet
369 -125 m 1,0,-1
 369 -254 l 1,1,-1
 190 -254 l 1,2,-1
 190 -125 l 1,3,-1
 241 711 l 1,4,-1
 313 711 l 1,5,-1
 369 -125 l 1,0,-1
279 878 m 128,-1,7
 222 878 222 878 190 913.5 c 128,-1,8
 158 949 158 949 158 998 c 128,-1,9
 158 1047 158 1047 190 1082.5 c 128,-1,10
 222 1118 222 1118 279 1118 c 128,-1,11
 336 1118 336 1118 368 1082.5 c 128,-1,12
 400 1047 400 1047 400 998 c 128,-1,13
 400 949 400 949 368 913.5 c 128,-1,6
 336 878 336 878 279 878 c 128,-1,7
EndSplineSet
EndChar

StartChar: cent
Encoding: 162 162 100
Width: 977
GlyphClass: 2
Flags: W
LayerCount: 2
Fore
SplineSet
543 1 m 1,0,-1
 543 155 l 1,1,2
 407 167 407 167 307 241.5 c 128,-1,3
 207 316 207 316 158 428.5 c 128,-1,4
 109 541 109 541 109 675 c 1,5,6
 110 807 110 807 161 920 c 128,-1,7
 212 1033 212 1033 312 1108.5 c 128,-1,8
 412 1184 412 1184 543 1196 c 1,9,-1
 543 1361 l 1,10,-1
 630 1361 l 1,11,-1
 630 1196 l 1,12,13
 780 1187 780 1187 861 1111 c 1,14,-1
 823 1003 l 1,15,16
 736 1062 736 1062 630 1070 c 1,17,-1
 630 279 l 1,18,19
 734 288 734 288 824 353 c 1,20,-1
 862 244 l 1,21,22
 777 165 777 165 630 155 c 1,23,-1
 630 1 l 1,24,-1
 543 1 l 1,0,-1
543 282 m 1,25,-1
 543 1068 l 1,26,27
 421 1049 421 1049 343 939 c 128,-1,28
 265 829 265 829 265 671 c 0,29,30
 265 515 265 515 341 408.5 c 128,-1,31
 417 302 417 302 543 282 c 1,25,-1
EndSplineSet
EndChar

StartChar: sterling
Encoding: 163 163 101
Width: 1072
GlyphClass: 2
Flags: W
LayerCount: 2
Fore
SplineSet
108 0 m 1,0,-1
 98 126 l 1,1,2
 188 160 188 160 227 228.5 c 128,-1,3
 266 297 266 297 266 409 c 2,4,-1
 266 620 l 1,5,-1
 96 620 l 1,6,-1
 96 742 l 1,7,-1
 266 742 l 1,8,-1
 266 829 l 2,9,10
 266 920 266 920 275 993 c 128,-1,11
 284 1066 284 1066 309.5 1138.5 c 128,-1,12
 335 1211 335 1211 377 1259.5 c 128,-1,13
 419 1308 419 1308 489.5 1338 c 128,-1,14
 560 1368 560 1368 654 1368 c 0,15,16
 838 1368 838 1368 979 1249 c 1,17,-1
 908 1140 l 1,18,19
 783 1235 783 1235 655 1235 c 0,20,21
 529 1235 529 1235 475.5 1149.5 c 128,-1,22
 422 1064 422 1064 422 904 c 2,23,-1
 422 742 l 1,24,-1
 795 742 l 1,25,-1
 795 620 l 1,26,-1
 422 620 l 1,27,-1
 422 472 l 2,28,29
 422 347 422 347 400 268.5 c 128,-1,30
 378 190 378 190 311 139 c 1,31,32
 386 144 386 144 397 144 c 2,33,-1
 993 144 l 1,34,-1
 993 0 l 1,35,-1
 108 0 l 1,0,-1
EndSplineSet
EndChar

StartChar: currency
Encoding: 164 164 102
Width: 1180
GlyphClass: 2
Flags: W
LayerCount: 2
Fore
SplineSet
1062 278 m 1,0,-1
 999 211 l 1,1,-1
 829 371 l 1,2,3
 726 287 726 287 591 287 c 0,4,5
 452 287 452 287 351 371 c 1,6,-1
 184 212 l 1,7,-1
 117 278 l 1,8,-1
 286 439 l 1,9,10
 210 544 210 544 210 666 c 128,-1,11
 210 788 210 788 286 893 c 1,12,-1
 116 1056 l 1,13,-1
 184 1121 l 1,14,-1
 351 962 l 1,15,16
 452 1046 452 1046 591 1046 c 0,17,18
 727 1046 727 1046 829 961 c 1,19,-1
 999 1121 l 1,20,-1
 1063 1054 l 1,21,-1
 895 893 l 1,22,23
 971 785 971 785 971 666 c 0,24,25
 971 541 971 541 896 439 c 1,26,-1
 1062 278 l 1,0,-1
591 385 m 128,-1,28
 708 385 708 385 790.5 467.5 c 128,-1,29
 873 550 873 550 873 666 c 128,-1,30
 873 782 873 782 790.5 865 c 128,-1,31
 708 948 708 948 591 948 c 128,-1,32
 474 948 474 948 391.5 865 c 128,-1,33
 309 782 309 782 309 666 c 0,34,35
 309 549 309 549 391.5 467 c 128,-1,27
 474 385 474 385 591 385 c 128,-1,28
EndSplineSet
EndChar

StartChar: yen
Encoding: 165 165 103
Width: 1183
GlyphClass: 2
Flags: W
LayerCount: 2
Fore
SplineSet
520 385 m 1,0,-1
 520 551 l 1,1,-1
 199 551 l 1,2,-1
 199 663 l 1,3,-1
 476 663 l 1,4,-1
 99 1346 l 1,5,-1
 261 1346 l 1,6,-1
 592 733 l 1,7,-1
 928 1346 l 1,8,-1
 1085 1346 l 1,9,-1
 700 663 l 1,10,-1
 978 663 l 1,11,-1
 978 551 l 1,12,-1
 663 551 l 1,13,-1
 663 385 l 1,14,-1
 979 385 l 1,15,-1
 979 272 l 1,16,-1
 663 272 l 1,17,-1
 663 0 l 1,18,-1
 520 0 l 1,19,-1
 520 272 l 1,20,-1
 198 272 l 1,21,-1
 198 385 l 1,22,-1
 520 385 l 1,0,-1
EndSplineSet
EndChar

StartChar: brokenbar
Encoding: 166 166 104
Width: 399
GlyphClass: 2
Flags: W
LayerCount: 2
Fore
SplineSet
134 -363 m 1,0,-1
 134 282 l 1,1,-1
 267 282 l 1,2,-1
 267 -363 l 1,3,-1
 134 -363 l 1,0,-1
134 794 m 1,4,-1
 134 1437 l 1,5,-1
 267 1437 l 1,6,-1
 267 794 l 1,7,-1
 134 794 l 1,4,-1
EndSplineSet
EndChar

StartChar: section
Encoding: 167 167 105
Width: 927
GlyphClass: 2
Flags: W
LayerCount: 2
Fore
SplineSet
147 1189 m 0,0,1
 147 1314 147 1314 248.5 1378.5 c 128,-1,2
 350 1443 350 1443 523 1443 c 0,3,4
 636 1443 636 1443 763 1392 c 1,5,6
 759 1369 759 1369 751 1326 c 128,-1,7
 743 1283 743 1283 739 1260 c 1,8,9
 616 1316 616 1316 499 1316 c 0,10,11
 291 1316 291 1316 291 1193 c 0,12,13
 291 1137 291 1137 339.5 1097.5 c 128,-1,14
 388 1058 388 1058 521 1006 c 1,15,16
 667 946 667 946 734.5 880.5 c 128,-1,17
 802 815 802 815 802 718 c 0,18,19
 802 640 802 640 762.5 575 c 128,-1,20
 723 510 723 510 656 468 c 1,21,22
 792 391 792 391 792 253 c 0,23,24
 792 121 792 121 687.5 47.5 c 128,-1,25
 583 -26 583 -26 408 -26 c 0,26,27
 239 -26 239 -26 134 27 c 1,28,-1
 134 168 l 1,29,30
 267 99 267 99 410 99 c 0,31,32
 522 99 522 99 584.5 137.5 c 128,-1,33
 647 176 647 176 647 242 c 0,34,35
 647 268 647 268 637.5 288 c 128,-1,36
 628 308 628 308 615.5 322.5 c 128,-1,37
 603 337 603 337 569.5 355 c 128,-1,38
 536 373 536 373 509.5 384.5 c 128,-1,39
 483 396 483 396 424 420 c 1,40,41
 267 480 267 480 198.5 548 c 128,-1,42
 130 616 130 616 130 725 c 0,43,44
 130 804 130 804 171 866 c 128,-1,45
 212 928 212 928 281 964 c 1,46,47
 213 1007 213 1007 180 1059.5 c 128,-1,48
 147 1112 147 1112 147 1189 c 0,0,1
481 548 m 1,49,-1
 533 526 l 1,50,51
 663 605 663 605 663 699 c 0,52,53
 663 730 663 730 649 756.5 c 128,-1,54
 635 783 635 783 615.5 801 c 128,-1,55
 596 819 596 819 556.5 839.5 c 128,-1,56
 517 860 517 860 486.5 872 c 128,-1,57
 456 884 456 884 399 905 c 1,58,59
 341 880 341 880 304.5 837.5 c 128,-1,60
 268 795 268 795 268 740 c 0,61,62
 268 677 268 677 316 635.5 c 128,-1,63
 364 594 364 594 481 548 c 1,49,-1
EndSplineSet
EndChar

StartChar: dieresis
Encoding: 168 168 106
Width: 700
GlyphClass: 2
Flags: W
LayerCount: 2
Fore
SplineSet
107 1141 m 1,0,-1
 107 1334 l 1,1,-1
 248 1334 l 1,2,-1
 248 1141 l 1,3,-1
 107 1141 l 1,0,-1
462 1141 m 1,4,-1
 462 1334 l 1,5,-1
 603 1334 l 1,6,-1
 603 1141 l 1,7,-1
 462 1141 l 1,4,-1
EndSplineSet
EndChar

StartChar: copyright
Encoding: 169 169 107
Width: 1671
GlyphClass: 2
Flags: W
LayerCount: 2
Fore
SplineSet
834 246 m 0,0,1
 646 246 646 246 524 379 c 128,-1,2
 402 512 402 512 402 714 c 0,3,4
 402 918 402 918 524 1051 c 128,-1,5
 646 1184 646 1184 844 1184 c 0,6,7
 1006 1184 1006 1184 1124 1102 c 1,8,-1
 1069 1014 l 1,9,10
 1028 1043 1028 1043 964.5 1059.5 c 128,-1,11
 901 1076 901 1076 835 1076 c 0,12,13
 758 1076 758 1076 697.5 1047 c 128,-1,14
 637 1018 637 1018 600.5 967.5 c 128,-1,15
 564 917 564 917 545 854 c 128,-1,16
 526 791 526 791 526 718 c 0,17,18
 526 555 526 555 609 453.5 c 128,-1,19
 692 352 692 352 853 352 c 0,20,21
 915 352 915 352 983.5 371.5 c 128,-1,22
 1052 391 1052 391 1091 418 c 1,23,-1
 1127 320 l 1,24,25
 1077 288 1077 288 996.5 267 c 128,-1,26
 916 246 916 246 834 246 c 0,0,1
828 61 m 0,27,28
 978 61 978 61 1098 112 c 128,-1,29
 1218 163 1218 163 1294.5 251.5 c 128,-1,30
 1371 340 1371 340 1411.5 456.5 c 128,-1,31
 1452 573 1452 573 1452 708 c 128,-1,32
 1452 843 1452 843 1411 960 c 128,-1,33
 1370 1077 1370 1077 1293 1166.5 c 128,-1,34
 1216 1256 1216 1256 1095 1307.5 c 128,-1,35
 974 1359 974 1359 824 1359 c 0,36,37
 682 1359 682 1359 565.5 1307.5 c 128,-1,38
 449 1256 449 1256 373.5 1167.5 c 128,-1,39
 298 1079 298 1079 257.5 962 c 128,-1,40
 217 845 217 845 217 713 c 0,41,42
 217 578 217 578 257.5 460 c 128,-1,43
 298 342 298 342 374 252.5 c 128,-1,44
 450 163 450 163 567 112 c 128,-1,45
 684 61 684 61 828 61 c 0,27,28
828 -24 m 0,46,47
 719 -24 719 -24 616.5 5 c 128,-1,48
 514 34 514 34 422.5 94.5 c 128,-1,49
 331 155 331 155 262.5 240.5 c 128,-1,50
 194 326 194 326 154 447 c 128,-1,51
 114 568 114 568 114 711 c 0,52,53
 114 888 114 888 174.5 1030.5 c 128,-1,54
 235 1173 235 1173 336 1261.5 c 128,-1,55
 437 1350 437 1350 562 1396.5 c 128,-1,56
 687 1443 687 1443 824 1443 c 0,57,58
 939 1443 939 1443 1045.5 1414 c 128,-1,59
 1152 1385 1152 1385 1245 1325 c 128,-1,60
 1338 1265 1338 1265 1407 1179.5 c 128,-1,61
 1476 1094 1476 1094 1515.5 973.5 c 128,-1,62
 1555 853 1555 853 1555 711 c 0,63,64
 1555 568 1555 568 1515.5 447 c 128,-1,65
 1476 326 1476 326 1408 240 c 128,-1,66
 1340 154 1340 154 1247.5 94 c 128,-1,67
 1155 34 1155 34 1049 5 c 128,-1,68
 943 -24 943 -24 828 -24 c 0,46,47
EndSplineSet
EndChar

StartChar: ordfeminine
Encoding: 170 170 108
Width: 751
GlyphClass: 2
Flags: W
LayerCount: 2
Fore
SplineSet
328 752 m 0,0,1
 240 752 240 752 183 808 c 128,-1,2
 126 864 126 864 126 956 c 0,3,4
 126 1007 126 1007 145.5 1044.5 c 128,-1,5
 165 1082 165 1082 195.5 1104 c 128,-1,6
 226 1126 226 1126 278 1141 c 128,-1,7
 330 1156 330 1156 379.5 1162 c 128,-1,8
 429 1168 429 1168 503 1173 c 1,9,-1
 503 1189 l 1,10,11
 501 1271 501 1271 475.5 1305.5 c 128,-1,12
 450 1340 450 1340 385 1340 c 0,13,14
 323 1340 323 1340 278.5 1325.5 c 128,-1,15
 234 1311 234 1311 189 1260 c 1,16,-1
 134 1331 l 1,17,18
 223 1447 223 1447 390 1447 c 0,19,20
 486 1447 486 1447 548 1388.5 c 128,-1,21
 610 1330 610 1330 610 1210 c 2,22,-1
 608 894 l 2,23,24
 608 854 608 854 613 771 c 1,25,-1
 506 771 l 1,26,-1
 503 843 l 1,27,28
 443 752 443 752 328 752 c 0,0,1
131 578 m 1,29,-1
 131 674 l 1,30,-1
 627 674 l 1,31,-1
 627 578 l 1,32,-1
 131 578 l 1,29,-1
345 853 m 0,33,34
 421 853 421 853 460 912.5 c 128,-1,35
 499 972 499 972 503 1063 c 1,36,-1
 503 1087 l 1,37,38
 490 1086 490 1086 453.5 1083 c 128,-1,39
 417 1080 417 1080 399 1077.5 c 128,-1,40
 381 1075 381 1075 350.5 1069.5 c 128,-1,41
 320 1064 320 1064 303.5 1055.5 c 128,-1,42
 287 1047 287 1047 268.5 1033.5 c 128,-1,43
 250 1020 250 1020 242 1000 c 128,-1,44
 234 980 234 980 234 954 c 0,45,46
 234 853 234 853 345 853 c 0,33,34
EndSplineSet
EndChar

StartChar: guillemotleft
Encoding: 171 171 109
Width: 941
GlyphClass: 2
Flags: W
LayerCount: 2
Fore
SplineSet
495 851 m 1,0,-1
 246 511 l 1,1,-1
 490 168 l 1,2,-1
 362 136 l 1,3,-1
 116 473 l 1,4,-1
 98 516 l 1,5,-1
 365 883 l 1,6,-1
 495 851 l 1,0,-1
592 511 m 1,7,-1
 824 168 l 1,8,-1
 709 136 l 1,9,-1
 434 516 l 1,10,-1
 711 883 l 1,11,-1
 827 851 l 1,12,-1
 592 511 l 1,7,-1
EndSplineSet
EndChar

StartChar: logicalnot
Encoding: 172 172 110
Width: 1128
GlyphClass: 2
Flags: W
LayerCount: 2
Fore
SplineSet
1008 751 m 1,0,-1
 1008 237 l 1,1,-1
 885 237 l 1,2,-1
 885 620 l 1,3,-1
 106 620 l 1,4,-1
 106 751 l 1,5,-1
 1008 751 l 1,0,-1
EndSplineSet
EndChar

StartChar: uni00AD
Encoding: 173 173 111
Width: 860
GlyphClass: 2
Flags: W
LayerCount: 2
Fore
SplineSet
98 215 m 1,0,-1
 98 351 l 1,1,-1
 767 351 l 1,2,-1
 767 215 l 1,3,-1
 98 215 l 1,0,-1
EndSplineSet
EndChar

StartChar: registered
Encoding: 174 174 112
Width: 1671
GlyphClass: 2
Flags: W
LayerCount: 2
Fore
SplineSet
552 274 m 1,0,-1
 552 1162 l 1,1,-1
 838 1162 l 2,2,3
 1190 1162 1190 1162 1190 916 c 0,4,5
 1190 818 1190 818 1134.5 751 c 128,-1,6
 1079 684 1079 684 954 669 c 1,7,8
 984 646 984 646 1013 606.5 c 128,-1,9
 1042 567 1042 567 1064 528 c 128,-1,10
 1086 489 1086 489 1128.5 412 c 128,-1,11
 1171 335 1171 335 1208 274 c 1,12,-1
 1073 274 l 1,13,14
 1066 287 1066 287 1011 393.5 c 128,-1,15
 956 500 956 500 916 562 c 128,-1,16
 876 624 876 624 839 652 c 1,17,-1
 672 652 l 1,18,-1
 672 274 l 1,19,-1
 552 274 l 1,0,-1
672 1046 m 1,20,-1
 672 767 l 1,21,-1
 838 767 l 2,22,23
 947 767 947 767 996.5 796.5 c 128,-1,24
 1046 826 1046 826 1046 909 c 0,25,26
 1046 994 1046 994 999 1020 c 128,-1,27
 952 1046 952 1046 829 1046 c 2,28,-1
 672 1046 l 1,20,-1
828 61 m 0,29,30
 978 61 978 61 1098 112 c 128,-1,31
 1218 163 1218 163 1294.5 251.5 c 128,-1,32
 1371 340 1371 340 1411.5 456.5 c 128,-1,33
 1452 573 1452 573 1452 708 c 128,-1,34
 1452 843 1452 843 1411 960 c 128,-1,35
 1370 1077 1370 1077 1293 1166.5 c 128,-1,36
 1216 1256 1216 1256 1095 1307.5 c 128,-1,37
 974 1359 974 1359 824 1359 c 0,38,39
 682 1359 682 1359 565.5 1307.5 c 128,-1,40
 449 1256 449 1256 373.5 1167.5 c 128,-1,41
 298 1079 298 1079 257.5 962 c 128,-1,42
 217 845 217 845 217 713 c 0,43,44
 217 578 217 578 257.5 460 c 128,-1,45
 298 342 298 342 374 252.5 c 128,-1,46
 450 163 450 163 567 112 c 128,-1,47
 684 61 684 61 828 61 c 0,29,30
828 -24 m 0,48,49
 719 -24 719 -24 616.5 5 c 128,-1,50
 514 34 514 34 422.5 94.5 c 128,-1,51
 331 155 331 155 262.5 240.5 c 128,-1,52
 194 326 194 326 154 447 c 128,-1,53
 114 568 114 568 114 711 c 0,54,55
 114 888 114 888 174.5 1030.5 c 128,-1,56
 235 1173 235 1173 336 1261.5 c 128,-1,57
 437 1350 437 1350 562 1396.5 c 128,-1,58
 687 1443 687 1443 824 1443 c 0,59,60
 939 1443 939 1443 1045.5 1414 c 128,-1,61
 1152 1385 1152 1385 1245 1325 c 128,-1,62
 1338 1265 1338 1265 1407 1179.5 c 128,-1,63
 1476 1094 1476 1094 1515.5 973.5 c 128,-1,64
 1555 853 1555 853 1555 711 c 0,65,66
 1555 568 1555 568 1515.5 447 c 128,-1,67
 1476 326 1476 326 1408 240 c 128,-1,68
 1340 154 1340 154 1247.5 94 c 128,-1,69
 1155 34 1155 34 1049 5 c 128,-1,70
 943 -24 943 -24 828 -24 c 0,48,49
EndSplineSet
EndChar

StartChar: macron
Encoding: 175 175 113
Width: 966
GlyphClass: 2
Flags: W
LayerCount: 2
Fore
SplineSet
181 1352 m 1,0,-1
 181 1479 l 1,1,-1
 789 1479 l 1,2,-1
 789 1352 l 1,3,-1
 181 1352 l 1,0,-1
EndSplineSet
EndChar

StartChar: degree
Encoding: 176 176 114
Width: 766
GlyphClass: 2
Flags: W
LayerCount: 2
Fore
SplineSet
382 919 m 128,-1,1
 453 919 453 919 503.5 971.5 c 128,-1,2
 554 1024 554 1024 554 1097 c 0,3,4
 554 1171 554 1171 503.5 1222 c 128,-1,5
 453 1273 453 1273 382 1273 c 0,6,7
 312 1273 312 1273 261 1222 c 128,-1,8
 210 1171 210 1171 210 1097 c 128,-1,9
 210 1023 210 1023 260.5 971 c 128,-1,0
 311 919 311 919 382 919 c 128,-1,1
381 809 m 0,10,11
 265 809 265 809 181.5 894 c 128,-1,12
 98 979 98 979 98 1097 c 128,-1,13
 98 1215 98 1215 181.5 1298.5 c 128,-1,14
 265 1382 265 1382 381 1382 c 0,15,16
 498 1382 498 1382 581.5 1298.5 c 128,-1,17
 665 1215 665 1215 665 1097 c 0,18,19
 665 981 665 981 582 895 c 128,-1,20
 499 809 499 809 381 809 c 0,10,11
EndSplineSet
EndChar

StartChar: plusminus
Encoding: 177 177 115
Width: 1126
GlyphClass: 2
Flags: W
LayerCount: 2
Fore
SplineSet
499 719 m 1,0,-1
 499 1097 l 1,1,-1
 622 1097 l 1,2,-1
 622 719 l 1,3,-1
 1003 719 l 1,4,-1
 1003 589 l 1,5,-1
 624 589 l 1,6,-1
 624 212 l 1,7,-1
 500 212 l 1,8,-1
 500 589 l 1,9,-1
 122 589 l 1,10,-1
 122 719 l 1,11,-1
 499 719 l 1,0,-1
122 0 m 1,12,-1
 122 130 l 1,13,-1
 1005 130 l 1,14,-1
 1005 0 l 1,15,-1
 122 0 l 1,12,-1
EndSplineSet
EndChar

StartChar: uni00B2
Encoding: 178 178 116
Width: 786
GlyphClass: 2
Flags: W
LayerCount: 2
Fore
SplineSet
172 655 m 1,0,-1
 160 759 l 1,1,-1
 445 1015 l 2,2,3
 494 1059 494 1059 520 1097 c 128,-1,4
 546 1135 546 1135 546 1183 c 0,5,6
 546 1196 546 1196 545 1202 c 0,7,8
 539 1257 539 1257 496 1285 c 128,-1,9
 453 1313 453 1313 389 1313 c 0,10,11
 281 1313 281 1313 193 1249 c 1,12,-1
 162 1347 l 1,13,14
 272 1413 272 1413 399 1413 c 0,15,16
 507 1413 507 1413 581.5 1360 c 128,-1,17
 656 1307 656 1307 663 1212 c 0,18,19
 664 1204 664 1204 664 1189 c 0,20,21
 664 1122 664 1122 632.5 1066 c 128,-1,22
 601 1010 601 1010 529 947 c 2,23,-1
 313 755 l 1,24,-1
 666 755 l 1,25,-1
 660 655 l 1,26,-1
 172 655 l 1,0,-1
EndSplineSet
EndChar

StartChar: uni00B3
Encoding: 179 179 117
Width: 787
GlyphClass: 2
Flags: W
LayerCount: 2
Fore
SplineSet
376 720 m 0,0,1
 442 720 442 720 487 750.5 c 128,-1,2
 532 781 532 781 537 844 c 1,3,-1
 537 855 l 2,4,5
 537 983 537 983 290 989 c 1,6,-1
 264 989 l 1,7,-1
 264 1085 l 1,8,-1
 290 1085 l 1,9,10
 330 1086 330 1086 357.5 1088.5 c 128,-1,11
 385 1091 385 1091 415.5 1099.5 c 128,-1,12
 446 1108 446 1108 465 1121.5 c 128,-1,13
 484 1135 484 1135 496 1158.5 c 128,-1,14
 508 1182 508 1182 508 1215 c 0,15,16
 508 1267 508 1267 471 1291.5 c 128,-1,17
 434 1316 434 1316 375 1316 c 0,18,19
 323 1316 323 1316 267.5 1298.5 c 128,-1,20
 212 1281 212 1281 175 1253 c 1,21,-1
 144 1347 l 1,22,23
 195 1376 195 1376 266 1394.5 c 128,-1,24
 337 1413 337 1413 406 1413 c 0,25,26
 509 1413 509 1413 573.5 1368 c 128,-1,27
 638 1323 638 1323 638 1227 c 0,28,29
 638 1152 638 1152 608 1110 c 128,-1,30
 578 1068 578 1068 512 1048 c 1,31,32
 586 1027 586 1027 625 978.5 c 128,-1,33
 664 930 664 930 664 860 c 0,34,35
 664 857 664 857 663.5 851.5 c 128,-1,36
 663 846 663 846 663 843 c 0,37,38
 656 740 656 740 582.5 681 c 128,-1,39
 509 622 509 622 390 622 c 0,40,41
 316 622 316 622 259 639.5 c 128,-1,42
 202 657 202 657 176 681 c 1,43,-1
 192 777 l 1,44,45
 224 752 224 752 275 736 c 128,-1,46
 326 720 326 720 376 720 c 0,0,1
EndSplineSet
EndChar

StartChar: acute
Encoding: 180 180 118
Width: 581
GlyphClass: 2
Flags: W
LayerCount: 2
Fore
SplineSet
116 1138 m 1,0,-1
 286 1491 l 1,1,-1
 516 1491 l 1,2,-1
 220 1138 l 1,3,-1
 116 1138 l 1,0,-1
EndSplineSet
EndChar

StartChar: paragraph
Encoding: 182 182 119
Width: 1043
GlyphClass: 2
Flags: W
LayerCount: 2
Fore
SplineSet
557 -144 m 1,0,-1
 443 -144 l 1,1,-1
 443 771 l 1,2,3
 296 774 296 774 196.5 875 c 128,-1,4
 97 976 97 976 97 1103 c 0,5,6
 97 1165 97 1165 120 1220.5 c 128,-1,7
 143 1276 143 1276 190 1321.5 c 128,-1,8
 237 1367 237 1367 318 1394 c 128,-1,9
 399 1421 399 1421 505 1421 c 2,10,-1
 929 1421 l 1,11,-1
 929 1301 l 1,12,-1
 861 1301 l 1,13,-1
 861 -144 l 1,14,-1
 756 -144 l 1,15,-1
 756 1301 l 1,16,-1
 557 1301 l 1,17,-1
 557 -144 l 1,0,-1
EndSplineSet
EndChar

StartChar: periodcentered
Encoding: 183 183 120
Width: 372
GlyphClass: 2
Flags: W
LayerCount: 2
Fore
SplineSet
107 511 m 1,0,-1
 107 691 l 1,1,-1
 260 691 l 1,2,-1
 260 511 l 1,3,-1
 107 511 l 1,0,-1
EndSplineSet
EndChar

StartChar: cedilla
Encoding: 184 184 121
Width: 542
GlyphClass: 2
Flags: W
LayerCount: 2
Fore
SplineSet
104 -373 m 1,0,-1
 206 15 l 1,1,-1
 284 15 l 1,2,-1
 244 -373 l 1,3,-1
 104 -373 l 1,0,-1
EndSplineSet
EndChar

StartChar: uni00B9
Encoding: 185 185 122
Width: 810
GlyphClass: 2
Flags: W
LayerCount: 2
Fore
SplineSet
208 755 m 1,0,-1
 389 755 l 1,1,-1
 389 1256 l 1,2,3
 364 1239 364 1239 306 1218 c 128,-1,4
 248 1197 248 1197 208 1188 c 1,5,-1
 208 1297 l 1,6,7
 247 1306 247 1306 313.5 1335.5 c 128,-1,8
 380 1365 380 1365 405 1390 c 1,9,-1
 518 1390 l 1,10,-1
 518 755 l 1,11,-1
 687 755 l 1,12,-1
 687 655 l 1,13,-1
 208 655 l 1,14,-1
 208 755 l 1,0,-1
EndSplineSet
EndChar

StartChar: ordmasculine
Encoding: 186 186 123
Width: 788
GlyphClass: 2
Flags: W
LayerCount: 2
Fore
SplineSet
396 856 m 0,0,1
 478 856 478 856 524.5 925 c 128,-1,2
 571 994 571 994 571 1095 c 0,3,4
 571 1201 571 1201 523.5 1270.5 c 128,-1,5
 476 1340 476 1340 392 1340 c 0,6,7
 311 1340 311 1340 264 1270.5 c 128,-1,8
 217 1201 217 1201 217 1098 c 0,9,10
 217 991 217 991 263.5 923.5 c 128,-1,11
 310 856 310 856 396 856 c 0,0,1
396 752 m 0,12,13
 256 752 256 752 179.5 849.5 c 128,-1,14
 103 947 103 947 103 1101 c 0,15,16
 103 1251 103 1251 181 1349 c 128,-1,17
 259 1447 259 1447 394 1447 c 128,-1,18
 529 1447 529 1447 606 1348 c 128,-1,19
 683 1249 683 1249 683 1097 c 0,20,21
 683 948 683 948 606.5 850 c 128,-1,22
 530 752 530 752 396 752 c 0,12,13
EndSplineSet
EndChar

StartChar: guillemotright
Encoding: 187 187 124
Width: 960
GlyphClass: 2
Flags: W
LayerCount: 2
Fore
SplineSet
233 883 m 1,0,-1
 509 504 l 1,1,-1
 232 136 l 1,2,-1
 116 168 l 1,3,-1
 351 511 l 1,4,-1
 117 851 l 1,5,-1
 233 883 l 1,0,-1
592 883 m 1,6,-1
 855 504 l 1,7,-1
 589 136 l 1,8,-1
 462 168 l 1,9,-1
 708 511 l 1,10,-1
 467 851 l 1,11,-1
 592 883 l 1,6,-1
EndSplineSet
EndChar

StartChar: onequarter
Encoding: 188 188 125
Width: 1506
GlyphClass: 2
Flags: W
LayerCount: 2
Fore
SplineSet
133 679 m 1,0,-1
 240 679 l 1,1,-1
 240 1282 l 1,2,3
 198 1255 198 1255 121 1214 c 1,4,-1
 121 1307 l 1,5,6
 207 1350 207 1350 257 1400 c 1,7,-1
 345 1400 l 1,8,-1
 345 679 l 1,9,-1
 458 679 l 1,10,-1
 458 592 l 1,11,-1
 133 592 l 1,12,-1
 133 679 l 1,0,-1
1245 818 m 1,13,-1
 1354 818 l 1,14,-1
 1354 326 l 1,15,-1
 1440 326 l 1,16,-1
 1449 218 l 1,17,-1
 1352 218 l 1,18,-1
 1352 36 l 1,19,-1
 1254 36 l 1,20,-1
 1254 218 l 1,21,-1
 900 218 l 1,22,-1
 900 308 l 1,23,-1
 1245 818 l 1,13,-1
313 0 m 1,24,-1
 1150 1408 l 1,25,-1
 1273 1408 l 1,26,-1
 435 0 l 1,27,-1
 313 0 l 1,24,-1
1254 652 m 1,28,-1
 1030 326 l 1,29,-1
 1254 326 l 1,30,-1
 1254 652 l 1,28,-1
EndSplineSet
EndChar

StartChar: onehalf
Encoding: 189 189 126
Width: 1494
GlyphClass: 2
Flags: W
LayerCount: 2
Fore
SplineSet
133 679 m 1,0,-1
 240 679 l 1,1,-1
 240 1282 l 1,2,3
 198 1255 198 1255 121 1214 c 1,4,-1
 121 1307 l 1,5,6
 207 1350 207 1350 257 1400 c 1,7,-1
 345 1400 l 1,8,-1
 345 679 l 1,9,-1
 458 679 l 1,10,-1
 458 592 l 1,11,-1
 133 592 l 1,12,-1
 133 679 l 1,0,-1
1363 -27 m 1,13,-1
 860 -27 l 1,14,-1
 860 57 l 1,15,16
 875 72 875 72 905 102 c 0,17,18
 984 181 984 181 1021.5 219.5 c 128,-1,19
 1059 258 1059 258 1114 318 c 128,-1,20
 1169 378 1169 378 1193.5 413.5 c 128,-1,21
 1218 449 1218 449 1237.5 489.5 c 128,-1,22
 1257 530 1257 530 1257 561 c 0,23,24
 1257 620 1257 620 1220 656 c 128,-1,25
 1183 692 1183 692 1132 692 c 0,26,27
 1080 692 1080 692 1028.5 663 c 128,-1,28
 977 634 977 634 938 577 c 1,29,-1
 868 636 l 1,30,31
 899 708 899 708 975 749 c 128,-1,32
 1051 790 1051 790 1136 790 c 0,33,34
 1236 790 1236 790 1305 734 c 128,-1,35
 1374 678 1374 678 1374 572 c 0,36,37
 1374 522 1374 522 1354.5 470.5 c 128,-1,38
 1335 419 1335 419 1305.5 374.5 c 128,-1,39
 1276 330 1276 330 1227 277 c 128,-1,40
 1178 224 1178 224 1132.5 181 c 128,-1,41
 1087 138 1087 138 1022 78 c 0,42,43
 1011 68 1011 68 1005 63 c 1,44,-1
 1363 63 l 1,45,-1
 1363 -27 l 1,13,-1
233 0 m 1,46,-1
 1070 1408 l 1,47,-1
 1193 1408 l 1,48,-1
 355 0 l 1,49,-1
 233 0 l 1,46,-1
EndSplineSet
EndChar

StartChar: threequarters
Encoding: 190 190 127
Width: 1530
GlyphClass: 2
Flags: W
LayerCount: 2
Fore
SplineSet
316 574 m 0,0,1
 198 574 198 574 118 669 c 1,2,-1
 166 763 l 1,3,4
 236 685 236 685 311 685 c 0,5,6
 370 685 370 685 411.5 723 c 128,-1,7
 453 761 453 761 453 822 c 0,8,9
 453 952 453 952 279 952 c 2,10,-1
 235 952 l 1,11,-1
 235 1068 l 1,12,-1
 275 1068 l 2,13,14
 433 1068 433 1068 433 1186 c 0,15,16
 433 1241 433 1241 402 1268.5 c 128,-1,17
 371 1296 371 1296 319 1296 c 0,18,19
 242 1296 242 1296 164 1218 c 1,20,-1
 118 1312 l 1,21,22
 156 1357 156 1357 210 1385 c 128,-1,23
 264 1413 264 1413 320 1413 c 0,24,25
 412 1413 412 1413 485.5 1351 c 128,-1,26
 559 1289 559 1289 559 1188 c 0,27,28
 559 1131 559 1131 532 1085 c 128,-1,29
 505 1039 505 1039 456 1012 c 1,30,31
 577 955 577 955 577 818 c 0,32,33
 577 709 577 709 498.5 641.5 c 128,-1,34
 420 574 420 574 316 574 c 0,0,1
1227 40 m 1,35,-1
 1227 223 l 1,36,-1
 870 223 l 1,37,-1
 870 312 l 1,38,-1
 1215 822 l 1,39,-1
 1325 822 l 1,40,-1
 1325 329 l 1,41,-1
 1412 329 l 1,42,-1
 1420 223 l 1,43,-1
 1324 223 l 1,44,-1
 1324 40 l 1,45,-1
 1227 40 l 1,35,-1
314 0 m 1,46,-1
 1149 1408 l 1,47,-1
 1280 1408 l 1,48,-1
 436 0 l 1,49,-1
 314 0 l 1,46,-1
1000 329 m 1,50,-1
 1224 329 l 1,51,52
 1226 532 1226 532 1227 656 c 1,53,-1
 1000 329 l 1,50,-1
EndSplineSet
EndChar

StartChar: questiondown
Encoding: 191 191 128
Width: 832
GlyphClass: 2
Flags: W
LayerCount: 2
Fore
SplineSet
436 980 m 1,0,-1
 515 980 l 1,1,2
 515 909 515 909 474.5 809 c 128,-1,3
 434 709 434 709 385.5 626 c 128,-1,4
 337 543 337 543 296.5 449.5 c 128,-1,5
 256 356 256 356 256 297 c 0,6,7
 257 210 257 210 311 168 c 128,-1,8
 365 126 365 126 460 126 c 0,9,10
 575 126 575 126 696 200 c 1,11,-1
 737 77 l 1,12,13
 626 -11 626 -11 436 -11 c 0,14,15
 289 -11 289 -11 198 67 c 128,-1,16
 107 145 107 145 107 284 c 0,17,18
 107 354 107 354 127.5 420.5 c 128,-1,19
 148 487 148 487 184.5 550 c 128,-1,20
 221 613 221 613 260.5 673 c 128,-1,21
 300 733 300 733 350 816.5 c 128,-1,22
 400 900 400 900 436 980 c 1,0,-1
462 1387 m 128,-1,24
 519 1387 519 1387 551 1351.5 c 128,-1,25
 583 1316 583 1316 583 1267 c 128,-1,26
 583 1218 583 1218 551 1182.5 c 128,-1,27
 519 1147 519 1147 462 1147 c 128,-1,28
 405 1147 405 1147 373 1182.5 c 128,-1,29
 341 1218 341 1218 341 1267 c 128,-1,30
 341 1316 341 1316 373 1351.5 c 128,-1,23
 405 1387 405 1387 462 1387 c 128,-1,24
EndSplineSet
EndChar

StartChar: AE
Encoding: 198 198 135
Width: 1918
GlyphClass: 2
Flags: W
LayerCount: 2
Fore
SplineSet
1136 1282 m 1,0,-1
 1171 803 l 1,1,-1
 1745 803 l 1,2,-1
 1745 659 l 1,3,-1
 1189 659 l 1,4,-1
 1228 144 l 1,5,-1
 1795 144 l 1,6,-1
 1795 0 l 1,7,-1
 1083 0 l 1,8,-1
 1055 389 l 1,9,-1
 460 389 l 1,10,-1
 241 0 l 1,11,-1
 84 0 l 1,12,-1
 917 1427 l 1,13,-1
 1777 1427 l 1,14,-1
 1777 1282 l 1,15,-1
 1136 1282 l 1,0,-1
1035 536 m 1,16,-1
 979 1282 l 1,17,-1
 536 536 l 1,18,-1
 1035 536 l 1,16,-1
EndSplineSet
EndChar

StartChar: Eth
Encoding: 208 208 145
Width: 1490
GlyphClass: 2
Flags: W
LayerCount: 2
Fore
SplineSet
384 634 m 1,0,-1
 384 141 l 1,1,-1
 671 141 l 2,2,3
 925 141 925 141 1063.5 274.5 c 128,-1,4
 1202 408 1202 408 1202 668 c 0,5,6
 1202 794 1202 794 1172.5 890 c 128,-1,7
 1143 986 1143 986 1091 1048 c 128,-1,8
 1039 1110 1039 1110 960 1149 c 128,-1,9
 881 1188 881 1188 789 1204 c 128,-1,10
 697 1220 697 1220 581 1220 c 2,11,-1
 384 1220 l 1,12,-1
 384 757 l 1,13,-1
 604 757 l 1,14,-1
 604 634 l 1,15,-1
 384 634 l 1,0,-1
223 757 m 1,16,-1
 223 1361 l 1,17,-1
 561 1361 l 2,18,19
 707 1361 707 1361 826.5 1340 c 128,-1,20
 946 1319 946 1319 1049.5 1269.5 c 128,-1,21
 1153 1220 1153 1220 1223.5 1142 c 128,-1,22
 1294 1064 1294 1064 1334 945 c 128,-1,23
 1374 826 1374 826 1374 672 c 0,24,25
 1374 505 1374 505 1322 376.5 c 128,-1,26
 1270 248 1270 248 1175 166 c 128,-1,27
 1080 84 1080 84 948.5 42 c 128,-1,28
 817 0 817 0 654 0 c 2,29,-1
 223 0 l 1,30,-1
 223 634 l 1,31,-1
 116 634 l 1,32,-1
 116 757 l 1,33,-1
 223 757 l 1,16,-1
EndSplineSet
EndChar

StartChar: multiply
Encoding: 215 215 152
Width: 920
GlyphClass: 2
Flags: W
LayerCount: 2
Fore
SplineSet
373 550 m 1,0,-1
 114 848 l 1,1,-1
 210 935 l 1,2,-1
 460 649 l 1,3,-1
 709 935 l 1,4,-1
 805 848 l 1,5,-1
 546 550 l 1,6,-1
 805 253 l 1,7,-1
 707 165 l 1,8,-1
 460 450 l 1,9,-1
 212 165 l 1,10,-1
 114 253 l 1,11,-1
 373 550 l 1,0,-1
EndSplineSet
EndChar

StartChar: Oslash
Encoding: 216 216 153
Width: 1560
GlyphClass: 2
Flags: W
LayerCount: 2
Fore
SplineSet
500 -164 m 1,0,-1
 386 -125 l 1,1,-1
 456 48 l 1,2,3
 290 132 290 132 202.5 305 c 128,-1,4
 115 478 115 478 115 708 c 0,5,6
 115 1047 115 1047 290.5 1245 c 128,-1,7
 466 1443 466 1443 779 1443 c 0,8,9
 901 1443 901 1443 1006 1411 c 1,10,-1
 1077 1588 l 1,11,-1
 1196 1546 l 1,12,-1
 1121 1362 l 1,13,14
 1277 1275 1277 1275 1360 1107 c 128,-1,15
 1443 939 1443 939 1443 708 c 0,16,17
 1443 548 1443 548 1400 414.5 c 128,-1,18
 1357 281 1357 281 1275.5 183.5 c 128,-1,19
 1194 86 1194 86 1067 31.5 c 128,-1,20
 940 -23 940 -23 779 -23 c 0,21,22
 668 -23 668 -23 568 5 c 1,23,-1
 500 -164 l 1,0,-1
520 207 m 1,24,-1
 944 1258 l 1,25,26
 870 1282 870 1282 779 1282 c 0,27,28
 659 1282 659 1282 564 1238 c 128,-1,29
 469 1194 469 1194 409.5 1116.5 c 128,-1,30
 350 1039 350 1039 319 936.5 c 128,-1,31
 288 834 288 834 288 714 c 0,32,33
 288 542 288 542 347 409.5 c 128,-1,34
 406 277 406 277 520 207 c 1,24,-1
779 138 m 0,35,36
 900 138 900 138 994.5 182 c 128,-1,37
 1089 226 1089 226 1148.5 304.5 c 128,-1,38
 1208 383 1208 383 1238.5 487 c 128,-1,39
 1269 591 1269 591 1269 714 c 0,40,41
 1269 875 1269 875 1215 1002.5 c 128,-1,42
 1161 1130 1161 1130 1056 1203 c 1,43,-1
 631 157 l 1,44,45
 697 138 697 138 779 138 c 0,35,36
EndSplineSet
EndChar

StartChar: Thorn
Encoding: 222 222 159
Width: 1213
GlyphClass: 2
Flags: W
LayerCount: 2
Fore
SplineSet
298 1361 m 1,0,-1
 298 1107 l 1,1,-1
 592 1107 l 2,2,3
 848 1107 848 1107 975.5 1018 c 128,-1,4
 1103 929 1103 929 1103 720 c 0,5,6
 1103 529 1103 529 994 420 c 128,-1,7
 885 311 885 311 657 311 c 1,8,-1
 298 318 l 1,9,-1
 298 0 l 1,10,-1
 136 0 l 1,11,-1
 136 1361 l 1,12,-1
 298 1361 l 1,0,-1
298 972 m 1,13,-1
 298 449 l 1,14,-1
 647 449 l 2,15,16
 949 449 949 449 949 712 c 0,17,18
 949 849 949 849 871 910.5 c 128,-1,19
 793 972 793 972 609 972 c 2,20,-1
 298 972 l 1,13,-1
EndSplineSet
EndChar

StartChar: germandbls
Encoding: 223 223 160
Width: 1103
GlyphClass: 2
Flags: W
LayerCount: 2
Fore
SplineSet
302 0 m 1,0,-1
 149 0 l 1,1,-1
 149 952 l 2,2,3
 149 1160 149 1160 251.5 1274 c 128,-1,4
 354 1388 354 1388 559 1388 c 0,5,6
 727 1388 727 1388 811 1307.5 c 128,-1,7
 895 1227 895 1227 895 1076 c 0,8,9
 895 1028 895 1028 877 980 c 128,-1,10
 859 932 859 932 832.5 894.5 c 128,-1,11
 806 857 806 857 780 823 c 128,-1,12
 754 789 754 789 736 756.5 c 128,-1,13
 718 724 718 724 718 699 c 0,14,15
 718 673 718 673 740 648 c 128,-1,16
 762 623 762 623 796 602 c 128,-1,17
 830 581 830 581 870.5 552.5 c 128,-1,18
 911 524 911 524 947.5 494 c 128,-1,19
 984 464 984 464 1012 417.5 c 128,-1,20
 1040 371 1040 371 1048 317 c 1,21,22
 1052 283 1052 283 1052 268 c 0,23,24
 1052 143 1052 143 967 62.5 c 128,-1,25
 882 -18 882 -18 748 -18 c 0,26,27
 657 -18 657 -18 570.5 4.5 c 128,-1,28
 484 27 484 27 436 56 c 1,29,-1
 490 187 l 1,30,31
 540 160 540 160 610.5 138 c 128,-1,32
 681 116 681 116 734 116 c 0,33,34
 805 116 805 116 844.5 157 c 128,-1,35
 884 198 884 198 884 259 c 0,36,37
 884 283 884 283 876 312 c 0,38,39
 864 354 864 354 826.5 393 c 128,-1,40
 789 432 789 432 745 463 c 128,-1,41
 701 494 701 494 658.5 526 c 128,-1,42
 616 558 616 558 588 598.5 c 128,-1,43
 560 639 560 639 560 684 c 0,44,45
 560 735 560 735 587 792 c 128,-1,46
 614 849 614 849 646.5 891 c 128,-1,47
 679 933 679 933 706 984.5 c 128,-1,48
 733 1036 733 1036 733 1077 c 0,49,50
 733 1160 733 1160 688 1204.5 c 128,-1,51
 643 1249 643 1249 559 1249 c 0,52,53
 302 1249 302 1249 302 961 c 2,54,-1
 302 0 l 1,0,-1
EndSplineSet
EndChar

StartChar: ae
Encoding: 230 230 167
Width: 1587
GlyphClass: 2
Flags: W
LayerCount: 2
Fore
SplineSet
408 -24 m 0,0,1
 278 -24 278 -24 195.5 47.5 c 128,-1,2
 113 119 113 119 113 273 c 0,3,4
 113 323 113 323 128 363.5 c 128,-1,5
 143 404 143 404 167 432 c 128,-1,6
 191 460 191 460 231 481 c 128,-1,7
 271 502 271 502 311 515 c 128,-1,8
 351 528 351 528 409 537 c 128,-1,9
 467 546 467 546 515.5 550 c 128,-1,10
 564 554 564 554 632 558 c 2,11,-1
 690 561 l 1,12,-1
 690 711 l 2,13,14
 690 804 690 804 650.5 846 c 128,-1,15
 611 888 611 888 517 888 c 0,16,17
 428 888 428 888 341 867 c 128,-1,18
 254 846 254 846 193 814 c 1,19,-1
 160 939 l 1,20,21
 219 973 219 973 317.5 998 c 128,-1,22
 416 1023 416 1023 513 1023 c 0,23,24
 626 1023 626 1023 704 978.5 c 128,-1,25
 782 934 782 934 802 848 c 1,26,27
 850 934 850 934 936 978.5 c 128,-1,28
 1022 1023 1022 1023 1125 1023 c 0,29,30
 1215 1023 1215 1023 1282.5 989.5 c 128,-1,31
 1350 956 1350 956 1388.5 898.5 c 128,-1,32
 1427 841 1427 841 1446 771.5 c 128,-1,33
 1465 702 1465 702 1465 622 c 0,34,35
 1465 575 1465 575 1453.5 549 c 128,-1,36
 1442 523 1442 523 1404.5 506 c 128,-1,37
 1367 489 1367 489 1295 486 c 2,38,-1
 843 463 l 1,39,40
 855 293 855 293 921.5 200.5 c 128,-1,41
 988 108 988 108 1127 108 c 0,42,43
 1207 108 1207 108 1285.5 138 c 128,-1,44
 1364 168 1364 168 1421 208 c 1,45,-1
 1468 98 l 1,46,47
 1328 -23 1328 -23 1117 -23 c 0,48,49
 933 -23 933 -23 819 102 c 1,50,51
 732 49 732 49 620.5 12.5 c 128,-1,52
 509 -24 509 -24 408 -24 c 0,0,1
419 103 m 0,53,54
 448 103 448 103 479 107.5 c 128,-1,55
 510 112 510 112 555 124.5 c 128,-1,56
 600 137 600 137 618 142.5 c 128,-1,57
 636 148 636 148 694.5 168 c 128,-1,58
 753 188 753 188 756 189 c 1,59,60
 694 302 694 302 687 454 c 1,61,62
 647 452 647 452 629 450 c 0,63,64
 485 439 485 439 405 415.5 c 128,-1,65
 325 392 325 392 295.5 357 c 128,-1,66
 266 322 266 322 266 265 c 0,67,68
 266 103 266 103 419 103 c 0,53,54
848 560 m 1,69,-1
 1318 586 l 1,70,-1
 1318 595 l 1,71,72
 1316 750 1316 750 1269 822.5 c 128,-1,73
 1222 895 1222 895 1122 895 c 0,74,75
 992 895 992 895 924 802.5 c 128,-1,76
 856 710 856 710 848 560 c 1,69,-1
EndSplineSet
EndChar

StartChar: eth
Encoding: 240 240 177
Width: 1164
GlyphClass: 2
Flags: W
LayerCount: 2
Fore
SplineSet
583 -23 m 0,0,1
 473 -23 473 -23 383 14.5 c 128,-1,2
 293 52 293 52 235 116 c 128,-1,3
 177 180 177 180 145.5 264 c 128,-1,4
 114 348 114 348 114 442 c 0,5,6
 114 641 114 641 234 763 c 128,-1,7
 354 885 354 885 552 885 c 0,8,9
 684 885 684 885 803 798 c 1,10,11
 727 942 727 942 527 1144 c 1,12,-1
 279 1042 l 1,13,-1
 240 1162 l 1,14,-1
 440 1241 l 1,15,-1
 226 1445 l 1,16,-1
 429 1445 l 1,17,-1
 561 1300 l 1,18,-1
 824 1403 l 1,19,-1
 866 1286 l 1,20,-1
 646 1201 l 1,21,22
 872 955 872 955 958 804 c 1,23,24
 1051 630 1051 630 1051 448 c 0,25,26
 1051 240 1051 240 929 108.5 c 128,-1,27
 807 -23 807 -23 583 -23 c 0,0,1
589 104 m 0,28,29
 732 104 732 104 813.5 196 c 128,-1,30
 895 288 895 288 895 430 c 0,31,32
 895 515 895 515 860 588.5 c 128,-1,33
 825 662 825 662 752.5 710 c 128,-1,34
 680 758 680 758 583 758 c 0,35,36
 443 758 443 758 361 667 c 128,-1,37
 279 576 279 576 279 441 c 0,38,39
 279 301 279 301 360.5 202.5 c 128,-1,40
 442 104 442 104 589 104 c 0,28,29
EndSplineSet
EndChar

StartChar: divide
Encoding: 247 247 184
Width: 1119
GlyphClass: 2
Flags: W
LayerCount: 2
Fore
SplineSet
460 20 m 1,0,-1
 460 227 l 1,1,-1
 633 227 l 1,2,-1
 633 20 l 1,3,-1
 460 20 l 1,0,-1
101 476 m 1,4,-1
 101 612 l 1,5,-1
 1012 612 l 1,6,-1
 1012 476 l 1,7,-1
 101 476 l 1,4,-1
460 854 m 1,8,-1
 460 1061 l 1,9,-1
 664 1061 l 1,10,-1
 664 854 l 1,11,-1
 460 854 l 1,8,-1
EndSplineSet
EndChar

StartChar: oslash
Encoding: 248 248 185
Width: 1145
GlyphClass: 2
Flags: W
LayerCount: 2
Fore
SplineSet
296 -250 m 1,0,-1
 232 -216 l 1,1,-1
 339 37 l 1,2,3
 227 101 227 101 166.5 223.5 c 128,-1,4
 106 346 106 346 106 498 c 0,5,6
 106 606 106 606 138 701 c 128,-1,7
 170 796 170 796 229 868 c 128,-1,8
 288 940 288 940 378.5 981.5 c 128,-1,9
 469 1023 469 1023 579 1023 c 0,10,11
 667 1023 667 1023 745 996 c 1,12,-1
 850 1244 l 1,13,-1
 920 1216 l 1,14,-1
 813 965 l 1,15,16
 923 901 923 901 981 778 c 128,-1,17
 1039 655 1039 655 1039 500 c 0,18,19
 1039 416 1039 416 1020 339 c 128,-1,20
 1001 262 1001 262 962 196 c 128,-1,21
 923 130 923 130 869 81 c 128,-1,22
 815 32 815 32 739.5 4.5 c 128,-1,23
 664 -23 664 -23 577 -23 c 0,24,25
 484 -23 484 -23 406 6 c 1,26,-1
 296 -250 l 1,0,-1
393 166 m 1,27,-1
 694 876 l 1,28,29
 643 897 643 897 577 897 c 0,30,31
 474 897 474 897 401.5 838 c 128,-1,32
 329 779 329 779 296.5 690 c 128,-1,33
 264 601 264 601 264 495 c 0,34,35
 264 393 264 393 296.5 306 c 128,-1,36
 329 219 329 219 393 166 c 1,27,-1
579 103 m 0,37,38
 657 103 657 103 717 135.5 c 128,-1,39
 777 168 777 168 811.5 224.5 c 128,-1,40
 846 281 846 281 863.5 350 c 128,-1,41
 881 419 881 419 881 498 c 0,42,43
 881 737 881 737 759 838 c 1,44,-1
 457 126 l 1,45,46
 511 103 511 103 579 103 c 0,37,38
EndSplineSet
EndChar

StartChar: thorn
Encoding: 254 254 191
Width: 1136
GlyphClass: 2
Flags: W
LayerCount: 2
Fore
SplineSet
136 1374 m 1,0,-1
 289 1374 l 1,1,-1
 289 849 l 1,2,3
 406 1023 406 1023 609 1023 c 1,4,5
 732 1022 732 1022 827 954.5 c 128,-1,6
 922 887 922 887 973 771 c 128,-1,7
 1024 655 1024 655 1024 510 c 0,8,9
 1024 408 1024 408 998 314 c 128,-1,10
 972 220 972 220 922 144 c 128,-1,11
 872 68 872 68 791 22.5 c 128,-1,12
 710 -23 710 -23 609 -23 c 0,13,14
 389 -23 389 -23 289 147 c 1,15,-1
 289 -418 l 1,16,-1
 136 -418 l 1,17,-1
 136 1374 l 1,0,-1
592 103 m 0,18,19
 668 103 668 103 724 140 c 128,-1,20
 780 177 780 177 809.5 238 c 128,-1,21
 839 299 839 299 852.5 364.5 c 128,-1,22
 866 430 866 430 866 501 c 128,-1,23
 866 572 866 572 852.5 637.5 c 128,-1,24
 839 703 839 703 810.5 763.5 c 128,-1,25
 782 824 782 824 727 860.5 c 128,-1,26
 672 897 672 897 598 897 c 0,27,28
 499 897 499 897 427 841 c 128,-1,29
 355 785 355 785 321.5 696.5 c 128,-1,30
 288 608 288 608 288 501 c 0,31,32
 288 391 288 391 317.5 304 c 128,-1,33
 347 217 347 217 417.5 160 c 128,-1,34
 488 103 488 103 592 103 c 0,18,19
EndSplineSet
EndChar

StartChar: Dcroat
Encoding: 272 272 209
Width: 1490
GlyphClass: 2
Flags: W
LayerCount: 2
Fore
SplineSet
384 634 m 1,0,-1
 384 141 l 1,1,-1
 671 141 l 2,2,3
 925 141 925 141 1063.5 274.5 c 128,-1,4
 1202 408 1202 408 1202 668 c 0,5,6
 1202 794 1202 794 1172.5 890 c 128,-1,7
 1143 986 1143 986 1091 1048 c 128,-1,8
 1039 1110 1039 1110 960 1149 c 128,-1,9
 881 1188 881 1188 789 1204 c 128,-1,10
 697 1220 697 1220 581 1220 c 2,11,-1
 384 1220 l 1,12,-1
 384 757 l 1,13,-1
 604 757 l 1,14,-1
 604 634 l 1,15,-1
 384 634 l 1,0,-1
223 757 m 1,16,-1
 223 1361 l 1,17,-1
 561 1361 l 2,18,19
 707 1361 707 1361 826.5 1340 c 128,-1,20
 946 1319 946 1319 1049.5 1269.5 c 128,-1,21
 1153 1220 1153 1220 1223.5 1142 c 128,-1,22
 1294 1064 1294 1064 1334 945 c 128,-1,23
 1374 826 1374 826 1374 672 c 0,24,25
 1374 505 1374 505 1322 376.5 c 128,-1,26
 1270 248 1270 248 1175 166 c 128,-1,27
 1080 84 1080 84 948.5 42 c 128,-1,28
 817 0 817 0 654 0 c 2,29,-1
 223 0 l 1,30,-1
 223 634 l 1,31,-1
 116 634 l 1,32,-1
 116 757 l 1,33,-1
 223 757 l 1,16,-1
EndSplineSet
EndChar

StartChar: dcroat
Encoding: 273 273 210
Width: 1193
GlyphClass: 2
Flags: W
LayerCount: 2
Fore
SplineSet
541 -21 m 0,0,1
 336 -21 336 -21 219.5 124 c 128,-1,2
 103 269 103 269 103 504 c 0,3,4
 103 732 103 732 224.5 875.5 c 128,-1,5
 346 1019 346 1019 540 1019 c 0,6,7
 638 1019 638 1019 726 976 c 128,-1,8
 814 933 814 933 864 862 c 1,9,10
 860 928 860 928 860 1053 c 2,11,-1
 860 1166 l 1,12,-1
 586 1166 l 1,13,-1
 586 1268 l 1,14,-1
 860 1268 l 1,15,-1
 860 1395 l 1,16,-1
 1035 1409 l 1,17,-1
 1035 1268 l 1,18,-1
 1153 1268 l 1,19,-1
 1153 1166 l 1,20,-1
 1035 1166 l 1,21,-1
 1035 0 l 1,22,-1
 877 0 l 1,23,-1
 860 163 l 1,24,25
 820 76 820 76 733 27.5 c 128,-1,26
 646 -21 646 -21 541 -21 c 0,0,1
568 108 m 0,27,28
 860 108 860 108 860 482 c 0,29,30
 860 685 860 685 792.5 788 c 128,-1,31
 725 891 725 891 569 891 c 0,32,33
 428 891 428 891 352.5 786 c 128,-1,34
 277 681 277 681 277 499 c 0,35,36
 277 318 277 318 351.5 213 c 128,-1,37
 426 108 426 108 568 108 c 0,27,28
EndSplineSet
EndChar

StartChar: gcommaaccent
Encoding: 291 291 228
Width: 1183
GlyphClass: 2
Flags: W
LayerCount: 2
Fore
SplineSet
606 1182 m 1,0,-1
 500 1182 l 1,1,-1
 585 1611 l 1,2,-1
 728 1611 l 1,3,-1
 606 1182 l 1,0,-1
277 504 m 0,4,5
 277 451 277 451 286.5 399.5 c 128,-1,6
 296 348 296 348 318 298.5 c 128,-1,7
 340 249 340 249 372.5 212 c 128,-1,8
 405 175 405 175 454 152.5 c 128,-1,9
 503 130 503 130 563 130 c 0,10,11
 641 130 641 130 699.5 157.5 c 128,-1,12
 758 185 758 185 792.5 233.5 c 128,-1,13
 827 282 827 282 843.5 341 c 128,-1,14
 860 400 860 400 860 470 c 2,15,-1
 860 543 l 2,16,17
 860 642 860 642 831 718 c 128,-1,18
 802 794 802 794 734 842.5 c 128,-1,19
 666 891 666 891 567 891 c 0,20,21
 489 891 489 891 430.5 855.5 c 128,-1,22
 372 820 372 820 340 761.5 c 128,-1,23
 308 703 308 703 292.5 638 c 128,-1,24
 277 573 277 573 277 504 c 0,4,5
1035 148 m 2,25,26
 1035 42 1035 42 1021.5 -41 c 128,-1,27
 1008 -124 1008 -124 973 -198 c 128,-1,28
 938 -272 938 -272 881 -320.5 c 128,-1,29
 824 -369 824 -369 734 -397 c 128,-1,30
 644 -425 644 -425 524 -425 c 0,31,32
 407 -425 407 -425 267 -390 c 1,33,-1
 278 -262 l 1,34,35
 383 -291 383 -291 511 -291 c 0,36,37
 697 -291 697 -291 778.5 -209.5 c 128,-1,38
 860 -128 860 -128 860 73 c 2,39,-1
 860 191 l 1,40,41
 824 100 824 100 745 50 c 128,-1,42
 666 0 666 0 550 0 c 0,43,44
 443 0 443 0 356 42.5 c 128,-1,45
 269 85 269 85 215 155.5 c 128,-1,46
 161 226 161 226 132 314 c 128,-1,47
 103 402 103 402 103 496 c 0,48,49
 103 604 103 604 131 697.5 c 128,-1,50
 159 791 159 791 213 863.5 c 128,-1,51
 267 936 267 936 354.5 977.5 c 128,-1,52
 442 1019 442 1019 553 1019 c 0,53,54
 750 1019 750 1019 864 865 c 1,55,-1
 876 998 l 1,56,-1
 1035 998 l 1,57,-1
 1035 148 l 2,25,26
EndSplineSet
EndChar

StartChar: Hbar
Encoding: 294 294 231
Width: 1458
GlyphClass: 2
Flags: W
LayerCount: 2
Fore
SplineSet
196 1138 m 1,0,-1
 196 1361 l 1,1,-1
 357 1361 l 1,2,-1
 357 1138 l 1,3,-1
 1100 1138 l 1,4,-1
 1100 1361 l 1,5,-1
 1261 1361 l 1,6,-1
 1261 1138 l 1,7,-1
 1343 1138 l 1,8,-1
 1343 1043 l 1,9,-1
 1261 1043 l 1,10,-1
 1261 0 l 1,11,-1
 1100 0 l 1,12,-1
 1100 633 l 1,13,-1
 357 633 l 1,14,-1
 357 0 l 1,15,-1
 196 0 l 1,16,-1
 196 1043 l 1,17,-1
 114 1043 l 1,18,-1
 114 1138 l 1,19,-1
 196 1138 l 1,0,-1
357 772 m 1,20,-1
 1100 772 l 1,21,-1
 1100 1043 l 1,22,-1
 357 1043 l 1,23,-1
 357 772 l 1,20,-1
EndSplineSet
EndChar

StartChar: hbar
Encoding: 295 295 232
Width: 1130
GlyphClass: 2
Flags: W
LayerCount: 2
Fore
SplineSet
509 1271 m 1,0,-1
 509 1166 l 1,1,-1
 324 1166 l 1,2,-1
 324 864 l 1,3,4
 367 938 367 938 447 978.5 c 128,-1,5
 527 1019 527 1019 631 1019 c 0,6,7
 802 1019 802 1019 883.5 917 c 128,-1,8
 965 815 965 815 965 612 c 2,9,-1
 965 0 l 1,10,-1
 790 0 l 1,11,-1
 790 623 l 2,12,13
 790 757 790 757 749.5 823 c 128,-1,14
 709 889 709 889 601 889 c 0,15,16
 448 889 448 889 386 801 c 128,-1,17
 324 713 324 713 324 546 c 2,18,-1
 324 0 l 1,19,-1
 149 0 l 1,20,-1
 149 1166 l 1,21,-1
 20 1166 l 1,22,-1
 20 1271 l 1,23,-1
 149 1271 l 1,24,-1
 149 1395 l 1,25,-1
 324 1409 l 1,26,-1
 324 1271 l 1,27,-1
 509 1271 l 1,0,-1
EndSplineSet
EndChar

StartChar: dotlessi
Encoding: 305 305 242
Width: 413
GlyphClass: 2
Flags: W
LayerCount: 2
Fore
SplineSet
130 0 m 1,0,-1
 130 999 l 1,1,-1
 284 999 l 1,2,-1
 284 0 l 1,3,-1
 130 0 l 1,0,-1
EndSplineSet
EndChar

StartChar: IJ
Encoding: 306 306 243
Width: 1348
GlyphClass: 2
Flags: W
LayerCount: 2
Fore
SplineSet
728 -192 m 1,0,-1
 714 -45 l 1,1,2
 764 -45 764 -45 802 -38.5 c 128,-1,3
 840 -32 840 -32 866 -23 c 128,-1,4
 892 -14 892 -14 909.5 4 c 128,-1,5
 927 22 927 22 936 37.5 c 128,-1,6
 945 53 945 53 949.5 81.5 c 128,-1,7
 954 110 954 110 955 130 c 128,-1,8
 956 150 956 150 956 186 c 2,9,-1
 956 1408 l 1,10,-1
 1134 1408 l 1,11,-1
 1134 219 l 2,12,13
 1134 143 1134 143 1129 91 c 128,-1,14
 1124 39 1124 39 1108.5 -11 c 128,-1,15
 1093 -61 1093 -61 1065.5 -92 c 128,-1,16
 1038 -123 1038 -123 993 -147 c 128,-1,17
 948 -171 948 -171 882.5 -181.5 c 128,-1,18
 817 -192 817 -192 728 -192 c 1,0,-1
214 0 m 1,19,-1
 214 1390 l 1,20,-1
 393 1390 l 1,21,-1
 393 0 l 1,22,-1
 214 0 l 1,19,-1
EndSplineSet
EndChar

StartChar: ij
Encoding: 307 307 244
Width: 1146
GlyphClass: 2
Flags: W
LayerCount: 2
Fore
SplineSet
786 1181 m 1,0,-1
 786 1361 l 1,1,-1
 961 1361 l 1,2,-1
 961 1181 l 1,3,-1
 786 1181 l 1,0,-1
610 -398 m 1,4,-1
 590 -257 l 1,5,-1
 638 -257 l 2,6,7
 688 -257 688 -257 718 -249.5 c 128,-1,8
 748 -242 748 -242 763 -224 c 128,-1,9
 778 -206 778 -206 782.5 -185 c 128,-1,10
 787 -164 787 -164 787 -127 c 2,11,-1
 786 998 l 1,12,-1
 961 998 l 1,13,-1
 961 -68 l 2,14,15
 961 -164 961 -164 948.5 -223.5 c 128,-1,16
 936 -283 936 -283 902 -324 c 128,-1,17
 868 -365 868 -365 810 -381.5 c 128,-1,18
 752 -398 752 -398 658 -398 c 2,19,-1
 610 -398 l 1,4,-1
185 0 m 1,20,-1
 185 998 l 1,21,-1
 359 998 l 1,22,-1
 359 0 l 1,23,-1
 185 0 l 1,20,-1
185 1181 m 1,24,-1
 185 1361 l 1,25,-1
 359 1361 l 1,26,-1
 359 1181 l 1,27,-1
 185 1181 l 1,24,-1
EndSplineSet
EndChar

StartChar: kgreenlandic
Encoding: 312 312 249
Width: 1047
GlyphClass: 2
Flags: W
LayerCount: 2
Fore
SplineSet
130 0 m 1,0,-1
 130 999 l 1,1,-1
 281 999 l 1,2,-1
 281 520 l 1,3,4
 303 544 303 544 315 557 c 0,5,6
 404 659 404 659 724 998 c 1,7,-1
 917 998 l 1,8,-1
 502 555 l 1,9,-1
 946 0 l 1,10,-1
 757 0 l 1,11,-1
 392 469 l 1,12,-1
 281 373 l 1,13,-1
 281 0 l 1,14,-1
 130 0 l 1,0,-1
EndSplineSet
EndChar

StartChar: Lslash
Encoding: 321 321 258
Width: 1096
GlyphClass: 2
Flags: W
LayerCount: 2
Fore
SplineSet
246 688 m 1,0,-1
 246 1361 l 1,1,-1
 407 1361 l 1,2,-1
 407 776 l 1,3,-1
 725 951 l 1,4,-1
 725 809 l 1,5,-1
 407 638 l 1,6,-1
 407 141 l 1,7,-1
 1005 141 l 1,8,-1
 994 0 l 1,9,-1
 246 0 l 1,10,-1
 246 551 l 1,11,-1
 111 480 l 1,12,-1
 111 614 l 1,13,-1
 246 688 l 1,0,-1
EndSplineSet
EndChar

StartChar: lslash
Encoding: 322 322 259
Width: 740
GlyphClass: 2
Flags: W
LayerCount: 2
Fore
SplineSet
480 -19 m 0,0,1
 427 -19 427 -19 388.5 -11 c 128,-1,2
 350 -3 350 -3 321.5 11 c 128,-1,3
 293 25 293 25 274 53 c 128,-1,4
 255 81 255 81 243.5 112 c 128,-1,5
 232 143 232 143 226 194.5 c 128,-1,6
 220 246 220 246 218 297 c 128,-1,7
 216 348 216 348 216 426 c 2,8,-1
 216 521 l 1,9,-1
 114 442 l 1,10,-1
 114 574 l 1,11,-1
 216 653 l 1,12,-1
 216 1356 l 1,13,-1
 369 1374 l 1,14,-1
 369 772 l 1,15,-1
 529 896 l 1,16,-1
 529 763 l 1,17,-1
 369 640 l 1,18,-1
 369 392 l 2,19,20
 369 343 369 343 369.5 317 c 128,-1,21
 370 291 370 291 371.5 256.5 c 128,-1,22
 373 222 373 222 376.5 205.5 c 128,-1,23
 380 189 380 189 386.5 168.5 c 128,-1,24
 393 148 393 148 402.5 139.5 c 128,-1,25
 412 131 412 131 426.5 122 c 128,-1,26
 441 113 441 113 459 110 c 128,-1,27
 477 107 477 107 502 107 c 128,-1,28
 527 107 527 107 628 116 c 1,29,-1
 642 -7 l 1,30,31
 532 -19 532 -19 480 -19 c 0,0,1
EndSplineSet
EndChar

StartChar: Eng
Encoding: 330 330 267
Width: 1292
GlyphClass: 2
Flags: W
LayerCount: 2
Fore
SplineSet
769 -298 m 0,0,1
 708 -298 708 -298 587 -286 c 1,2,-1
 566 -151 l 1,3,4
 708 -159 708 -159 728 -159 c 0,5,6
 783 -159 783 -159 822.5 -154 c 128,-1,7
 862 -149 862 -149 892 -140.5 c 128,-1,8
 922 -132 922 -132 941 -113 c 128,-1,9
 960 -94 960 -94 972.5 -73 c 128,-1,10
 985 -52 985 -52 991 -14.5 c 128,-1,11
 997 23 997 23 999 60 c 128,-1,12
 1001 97 1001 97 1001 156 c 2,13,-1
 1001 913 l 2,14,15
 1001 1094 1001 1094 943 1165 c 128,-1,16
 885 1236 885 1236 737 1236 c 0,17,18
 597 1236 597 1236 482.5 1166.5 c 128,-1,19
 368 1097 368 1097 298 991 c 1,20,-1
 298 0 l 1,21,-1
 138 0 l 1,22,-1
 136 1361 l 1,23,-1
 282 1361 l 1,24,-1
 298 1168 l 1,25,26
 412 1291 412 1291 530.5 1337 c 128,-1,27
 649 1383 649 1383 785 1383 c 0,28,29
 970 1383 970 1383 1065 1264 c 128,-1,30
 1160 1145 1160 1145 1160 918 c 2,31,-1
 1160 150 l 2,32,33
 1160 60 1160 60 1151 -5 c 128,-1,34
 1142 -70 1142 -70 1117 -128 c 128,-1,35
 1092 -186 1092 -186 1049 -221.5 c 128,-1,36
 1006 -257 1006 -257 936 -277.5 c 128,-1,37
 866 -298 866 -298 769 -298 c 0,0,1
EndSplineSet
EndChar

StartChar: eng
Encoding: 331 331 268
Width: 1096
GlyphClass: 2
Flags: W
LayerCount: 2
Fore
SplineSet
653 -275 m 2,0,-1
 589 -275 l 1,1,-1
 578 -128 l 1,2,-1
 617 -128 l 2,3,4
 659 -128 659 -128 684.5 -125.5 c 128,-1,5
 710 -123 710 -123 731 -113 c 128,-1,6
 752 -103 752 -103 762.5 -90 c 128,-1,7
 773 -77 773 -77 780 -49 c 128,-1,8
 787 -21 787 -21 788.5 10.5 c 128,-1,9
 790 42 790 42 790 95 c 2,10,-1
 790 623 l 2,11,12
 790 757 790 757 749.5 823 c 128,-1,13
 709 889 709 889 601 889 c 0,14,15
 386 889 386 889 333 686 c 1,16,17
 324 622 324 622 324 546 c 2,18,-1
 324 0 l 1,19,-1
 149 0 l 1,20,-1
 149 998 l 1,21,-1
 298 998 l 1,22,-1
 317 855 l 1,23,24
 426 1019 426 1019 635 1019 c 0,25,26
 805 1019 805 1019 885 917.5 c 128,-1,27
 965 816 965 816 965 612 c 2,28,-1
 965 144 l 2,29,30
 965 54 965 54 958.5 -7 c 128,-1,31
 952 -68 952 -68 933 -122.5 c 128,-1,32
 914 -177 914 -177 879.5 -208.5 c 128,-1,33
 845 -240 845 -240 789 -257.5 c 128,-1,34
 733 -275 733 -275 653 -275 c 2,0,-1
EndSplineSet
EndChar

StartChar: OE
Encoding: 338 338 275
Width: 1866
GlyphClass: 2
Flags: W
LayerCount: 2
Fore
SplineSet
770 -21 m 0,0,1
 611 -21 611 -21 485.5 31.5 c 128,-1,2
 360 84 360 84 279 179.5 c 128,-1,3
 198 275 198 275 155.5 407.5 c 128,-1,4
 113 540 113 540 113 702 c 1,5,6
 117 899 117 899 199 1055 c 128,-1,7
 281 1211 281 1211 425 1299 c 128,-1,8
 569 1387 569 1387 749 1387 c 0,9,10
 847 1387 847 1387 930 1359.5 c 128,-1,11
 1013 1332 1013 1332 1066 1286 c 1,12,-1
 1066 1360 l 1,13,-1
 1726 1360 l 1,14,-1
 1711 1220 l 1,15,-1
 1227 1220 l 1,16,-1
 1227 769 l 1,17,-1
 1678 769 l 1,18,-1
 1678 630 l 1,19,-1
 1227 630 l 1,20,-1
 1227 142 l 1,21,-1
 1748 142 l 1,22,-1
 1734 0 l 1,23,-1
 1066 0 l 1,24,-1
 1066 75 l 1,25,26
 1036 42 1036 42 941.5 10.5 c 128,-1,27
 847 -21 847 -21 770 -21 c 0,0,1
771 117 m 0,28,29
 848 117 848 117 933.5 145.5 c 128,-1,30
 1019 174 1019 174 1066 202 c 1,31,-1
 1066 1146 l 1,32,33
 940 1249 940 1249 763 1249 c 0,34,35
 546 1249 546 1249 418.5 1097.5 c 128,-1,36
 291 946 291 946 286 703 c 1,37,38
 286 577 286 577 312.5 475 c 128,-1,39
 339 373 339 373 394.5 291.5 c 128,-1,40
 450 210 450 210 545.5 164 c 128,-1,41
 641 118 641 118 771 117 c 0,28,29
EndSplineSet
EndChar

StartChar: oe
Encoding: 339 339 276
Width: 1821
GlyphClass: 2
Flags: W
LayerCount: 2
Fore
SplineSet
569 -23 m 0,0,1
 423 -23 423 -23 317 48 c 128,-1,2
 211 119 211 119 160 235.5 c 128,-1,3
 109 352 109 352 109 498 c 128,-1,4
 109 644 109 644 160.5 761 c 128,-1,5
 212 878 212 878 318.5 950.5 c 128,-1,6
 425 1023 425 1023 571 1023 c 0,7,8
 704 1023 704 1023 799 966.5 c 128,-1,9
 894 910 894 910 949 809 c 1,10,11
 1005 906 1005 906 1104 962.5 c 128,-1,12
 1203 1019 1203 1019 1321 1023 c 1,13,14
 1505 1023 1505 1023 1604.5 894 c 128,-1,15
 1704 765 1704 765 1704 541 c 0,16,17
 1704 534 1704 534 1703 507.5 c 128,-1,18
 1702 481 1702 481 1702 472 c 1,19,-1
 1029 472 l 1,20,21
 1029 306 1029 306 1115.5 207 c 128,-1,22
 1202 108 1202 108 1336 108 c 0,23,24
 1432 108 1432 108 1503.5 135.5 c 128,-1,25
 1575 163 1575 163 1642 208 c 1,26,-1
 1689 97 l 1,27,28
 1548 -23 1548 -23 1331 -23 c 0,29,30
 1200 -23 1200 -23 1101.5 33 c 128,-1,31
 1003 89 1003 89 945 192 c 1,32,33
 888 92 888 92 792.5 34.5 c 128,-1,34
 697 -23 697 -23 569 -23 c 0,0,1
571 103 m 0,35,36
 649 103 649 103 709 135.5 c 128,-1,37
 769 168 769 168 803.5 224.5 c 128,-1,38
 838 281 838 281 855.5 350 c 128,-1,39
 873 419 873 419 873 498 c 0,40,41
 873 581 873 581 856.5 650.5 c 128,-1,42
 840 720 840 720 805.5 776.5 c 128,-1,43
 771 833 771 833 710.5 865 c 128,-1,44
 650 897 650 897 569 897 c 0,45,46
 491 897 491 897 431.5 863.5 c 128,-1,47
 372 830 372 830 337 772 c 128,-1,48
 302 714 302 714 284.5 644 c 128,-1,49
 267 574 267 574 267 495 c 0,50,51
 267 417 267 417 284.5 348.5 c 128,-1,52
 302 280 302 280 337 224 c 128,-1,53
 372 168 372 168 432 135.5 c 128,-1,54
 492 103 492 103 571 103 c 0,35,36
1035 577 m 1,55,-1
 1556 577 l 1,56,-1
 1556 589 l 1,57,58
 1553 740 1553 740 1488.5 819.5 c 128,-1,59
 1424 899 1424 899 1312 899 c 0,60,61
 1198 899 1198 899 1123 811.5 c 128,-1,62
 1048 724 1048 724 1035 577 c 1,55,-1
EndSplineSet
EndChar

StartChar: Tbar
Encoding: 358 358 295
Width: 1131
GlyphClass: 2
Flags: W
LayerCount: 2
Fore
SplineSet
484 595 m 1,0,-1
 484 1220 l 1,1,-1
 77 1220 l 1,2,-1
 77 1361 l 1,3,-1
 1053 1361 l 1,4,-1
 1053 1220 l 1,5,-1
 645 1220 l 1,6,-1
 645 595 l 1,7,-1
 793 595 l 1,8,-1
 793 483 l 1,9,-1
 645 483 l 1,10,-1
 645 0 l 1,11,-1
 484 0 l 1,12,-1
 484 483 l 1,13,-1
 330 483 l 1,14,-1
 330 595 l 1,15,-1
 484 595 l 1,0,-1
EndSplineSet
EndChar

StartChar: tbar
Encoding: 359 359 296
Width: 815
GlyphClass: 2
Flags: W
LayerCount: 2
Fore
SplineSet
528 -18 m 0,0,1
 476 -18 476 -18 437 -10 c 128,-1,2
 398 -2 398 -2 370 12 c 128,-1,3
 342 26 342 26 323 53.5 c 128,-1,4
 304 81 304 81 292.5 110 c 128,-1,5
 281 139 281 139 275.5 188.5 c 128,-1,6
 270 238 270 238 268 285 c 128,-1,7
 266 332 266 332 266 405 c 2,8,-1
 266 581 l 1,9,-1
 125 581 l 1,10,-1
 125 695 l 1,11,-1
 266 695 l 1,12,-1
 266 892 l 1,13,-1
 114 892 l 1,14,-1
 126 999 l 1,15,-1
 266 999 l 1,16,-1
 306 1225 l 1,17,-1
 419 1233 l 1,18,-1
 419 999 l 1,19,-1
 683 999 l 1,20,-1
 683 892 l 1,21,-1
 419 892 l 1,22,-1
 419 695 l 1,23,-1
 609 695 l 1,24,-1
 609 581 l 1,25,-1
 419 581 l 1,26,-1
 419 334 l 2,27,28
 419 193 419 193 445.5 150 c 128,-1,29
 472 107 472 107 563 107 c 0,30,31
 570 107 570 107 585 108.5 c 128,-1,32
 600 110 600 110 629 112.5 c 128,-1,33
 658 115 658 115 687 117 c 1,34,-1
 701 -6 l 1,35,36
 564 -18 564 -18 528 -18 c 0,0,1
EndSplineSet
EndChar

StartChar: uni018F
Encoding: 399 399 320
Width: 1398
GlyphClass: 2
Flags: W
LayerCount: 2
Fore
SplineSet
681 -21 m 0,0,1
 563 -21 563 -21 466.5 15.5 c 128,-1,2
 370 52 370 52 307.5 111.5 c 128,-1,3
 245 171 245 171 201 251 c 128,-1,4
 157 331 157 331 137 413 c 128,-1,5
 117 495 117 495 113 583 c 1,6,-1
 119 707 l 1,7,-1
 1110 707 l 1,8,9
 1108 794 1108 794 1090.5 871.5 c 128,-1,10
 1073 949 1073 949 1035 1019 c 128,-1,11
 997 1089 997 1089 941.5 1139.5 c 128,-1,12
 886 1190 886 1190 803 1219.5 c 128,-1,13
 720 1249 720 1249 618 1249 c 0,14,15
 448 1249 448 1249 278 1138 c 1,16,-1
 217 1259 l 1,17,18
 308 1326 308 1326 402 1357 c 128,-1,19
 496 1388 496 1388 631 1388 c 0,20,21
 787 1388 787 1388 912.5 1333 c 128,-1,22
 1038 1278 1038 1278 1118 1182.5 c 128,-1,23
 1198 1087 1198 1087 1240 961 c 128,-1,24
 1282 835 1282 835 1282 689 c 0,25,26
 1282 486 1282 486 1207 324.5 c 128,-1,27
 1132 163 1132 163 994.5 71 c 128,-1,28
 857 -21 857 -21 681 -21 c 0,0,1
684 117 m 0,29,30
 800 117 800 117 891.5 178.5 c 128,-1,31
 983 240 983 240 1035.5 342 c 128,-1,32
 1088 444 1088 444 1103 574 c 1,33,-1
 277 574 l 1,34,35
 281 508 281 508 292.5 451 c 128,-1,36
 304 394 304 394 332.5 330 c 128,-1,37
 361 266 361 266 403.5 221 c 128,-1,38
 446 176 446 176 518.5 146.5 c 128,-1,39
 591 117 591 117 684 117 c 0,29,30
EndSplineSet
EndChar

StartChar: florin
Encoding: 402 402 321
Width: 949
GlyphClass: 2
Flags: W
LayerCount: 2
Fore
SplineSet
136 -326 m 0,0,1
 112 -326 112 -326 53 -308 c 1,2,-1
 63 -175 l 1,3,4
 103 -191 103 -191 126 -191 c 0,5,6
 179 -191 179 -191 209.5 -139 c 128,-1,7
 240 -87 240 -87 259 5 c 1,8,9
 293 153 293 153 343.5 448 c 128,-1,10
 394 743 394 743 402 787 c 1,11,-1
 258 787 l 1,12,-1
 268 924 l 1,13,-1
 426 924 l 1,14,-1
 446 1072 l 1,15,16
 494 1408 494 1408 740 1408 c 0,17,18
 785 1408 785 1408 856 1388 c 1,19,-1
 849 1246 l 1,20,21
 801 1268 801 1268 762 1268 c 0,22,23
 694 1268 694 1268 664 1231.5 c 128,-1,24
 634 1195 634 1195 622 1117 c 1,25,-1
 587 924 l 1,26,-1
 756 924 l 1,27,-1
 746 787 l 1,28,-1
 567 787 l 1,29,-1
 446 118 l 2,30,31
 433 51 433 51 421.5 3 c 128,-1,32
 410 -45 410 -45 392.5 -100 c 128,-1,33
 375 -155 375 -155 352 -192.5 c 128,-1,34
 329 -230 329 -230 299 -262 c 128,-1,35
 269 -294 269 -294 227.5 -310 c 128,-1,36
 186 -326 186 -326 136 -326 c 0,0,1
EndSplineSet
EndChar

StartChar: uni01C4
Encoding: 452 452 326
Width: 2754
GlyphClass: 2
Flags: W
LayerCount: 2
Fore
SplineSet
2051 1576 m 1,0,-1
 1881 1929 l 1,1,-1
 2000 1929 l 1,2,-1
 2147 1646 l 1,3,-1
 2294 1929 l 1,4,-1
 2415 1929 l 1,5,-1
 2245 1576 l 1,6,-1
 2051 1576 l 1,0,-1
1702 1390 m 1,7,-1
 2614 1390 l 1,8,-1
 2614 1272 l 1,9,-1
 1876 138 l 1,10,-1
 2621 138 l 1,11,-1
 2615 0 l 1,12,-1
 1675 0 l 1,13,-1
 1675 124 l 1,14,-1
 2409 1252 l 1,15,-1
 1702 1252 l 1,16,-1
 1702 1390 l 1,7,-1
392 1252 m 1,17,-1
 392 137 l 1,18,-1
 617 137 l 2,19,20
 884 137 884 137 1024.5 282 c 128,-1,21
 1165 427 1165 427 1165 694 c 0,22,23
 1165 1252 1165 1252 590 1252 c 2,24,-1
 392 1252 l 1,17,-1
214 0 m 1,25,-1
 214 1390 l 1,26,-1
 594 1390 l 2,27,28
 764 1390 764 1390 901 1347 c 128,-1,29
 1038 1304 1038 1304 1137 1220 c 128,-1,30
 1236 1136 1236 1136 1289.5 1003 c 128,-1,31
 1343 870 1343 870 1343 698 c 0,32,33
 1343 366 1343 366 1151.5 183 c 128,-1,34
 960 0 960 0 622 0 c 2,35,-1
 214 0 l 1,25,-1
EndSplineSet
EndChar

StartChar: uni01C5
Encoding: 453 453 327
Width: 2430
GlyphClass: 2
Flags: W
LayerCount: 2
Fore
SplineSet
1888 1182 m 1,0,-1
 1718 1535 l 1,1,-1
 1837 1535 l 1,2,-1
 1984 1252 l 1,3,-1
 2131 1535 l 1,4,-1
 2252 1535 l 1,5,-1
 2082 1182 l 1,6,-1
 1888 1182 l 1,0,-1
1657 998 m 1,7,-1
 2317 998 l 1,8,-1
 2317 873 l 1,9,-1
 1815 120 l 1,10,-1
 2334 120 l 1,11,-1
 2334 0 l 1,12,-1
 1636 0 l 1,13,-1
 1636 117 l 1,14,-1
 2147 878 l 1,15,-1
 1657 878 l 1,16,-1
 1657 998 l 1,7,-1
392 1252 m 1,17,-1
 392 137 l 1,18,-1
 617 137 l 2,19,20
 884 137 884 137 1024.5 282 c 128,-1,21
 1165 427 1165 427 1165 694 c 0,22,23
 1165 1252 1165 1252 590 1252 c 2,24,-1
 392 1252 l 1,17,-1
214 0 m 1,25,-1
 214 1390 l 1,26,-1
 594 1390 l 2,27,28
 764 1390 764 1390 901 1347 c 128,-1,29
 1038 1304 1038 1304 1137 1220 c 128,-1,30
 1236 1136 1236 1136 1289.5 1003 c 128,-1,31
 1343 870 1343 870 1343 698 c 0,32,33
 1343 366 1343 366 1151.5 183 c 128,-1,34
 960 0 960 0 622 0 c 2,35,-1
 214 0 l 1,25,-1
EndSplineSet
EndChar

StartChar: uni01C6
Encoding: 454 454 328
Width: 2149
GlyphClass: 2
Flags: W
LayerCount: 2
Fore
SplineSet
1607 1182 m 1,0,-1
 1437 1535 l 1,1,-1
 1556 1535 l 1,2,-1
 1703 1252 l 1,3,-1
 1850 1535 l 1,4,-1
 1971 1535 l 1,5,-1
 1801 1182 l 1,6,-1
 1607 1182 l 1,0,-1
1376 998 m 1,7,-1
 2036 998 l 1,8,-1
 2036 873 l 1,9,-1
 1534 120 l 1,10,-1
 2053 120 l 1,11,-1
 2053 0 l 1,12,-1
 1355 0 l 1,13,-1
 1355 117 l 1,14,-1
 1866 878 l 1,15,-1
 1376 878 l 1,16,-1
 1376 998 l 1,7,-1
560 -21 m 0,17,18
 355 -21 355 -21 238.5 124 c 128,-1,19
 122 269 122 269 122 504 c 0,20,21
 122 732 122 732 243.5 875.5 c 128,-1,22
 365 1019 365 1019 559 1019 c 0,23,24
 657 1019 657 1019 745 976 c 128,-1,25
 833 933 833 933 883 862 c 1,26,27
 879 928 879 928 879 1053 c 2,28,-1
 879 1395 l 1,29,-1
 1054 1409 l 1,30,-1
 1054 0 l 1,31,-1
 896 0 l 1,32,-1
 879 163 l 1,33,34
 839 76 839 76 752 27.5 c 128,-1,35
 665 -21 665 -21 560 -21 c 0,17,18
587 108 m 0,36,37
 879 108 879 108 879 482 c 0,38,39
 879 685 879 685 811.5 788 c 128,-1,40
 744 891 744 891 588 891 c 0,41,42
 447 891 447 891 371.5 786 c 128,-1,43
 296 681 296 681 296 499 c 0,44,45
 296 318 296 318 370.5 213 c 128,-1,46
 445 108 445 108 587 108 c 0,36,37
EndSplineSet
EndChar

StartChar: uni01C7
Encoding: 455 455 329
Width: 1796
GlyphClass: 2
Flags: W
LayerCount: 2
Fore
SplineSet
1176 -192 m 1,0,-1
 1162 -45 l 1,1,2
 1212 -45 1212 -45 1250 -38.5 c 128,-1,3
 1288 -32 1288 -32 1314 -23 c 128,-1,4
 1340 -14 1340 -14 1357.5 4 c 128,-1,5
 1375 22 1375 22 1384 37.5 c 128,-1,6
 1393 53 1393 53 1397.5 81.5 c 128,-1,7
 1402 110 1402 110 1403 130 c 128,-1,8
 1404 150 1404 150 1404 186 c 2,9,-1
 1404 1408 l 1,10,-1
 1582 1408 l 1,11,-1
 1582 219 l 2,12,13
 1582 143 1582 143 1577 91 c 128,-1,14
 1572 39 1572 39 1556.5 -11 c 128,-1,15
 1541 -61 1541 -61 1513.5 -92 c 128,-1,16
 1486 -123 1486 -123 1441 -147 c 128,-1,17
 1396 -171 1396 -171 1330.5 -181.5 c 128,-1,18
 1265 -192 1265 -192 1176 -192 c 1,0,-1
981 140 m 1,19,-1
 974 0 l 1,20,-1
 214 0 l 1,21,-1
 214 1390 l 1,22,-1
 393 1390 l 1,23,-1
 393 140 l 1,24,-1
 981 140 l 1,19,-1
EndSplineSet
EndChar

StartChar: uni01C8
Encoding: 456 456 330
Width: 1677
GlyphClass: 2
Flags: W
LayerCount: 2
Fore
SplineSet
1317 1181 m 1,0,-1
 1317 1361 l 1,1,-1
 1492 1361 l 1,2,-1
 1492 1181 l 1,3,-1
 1317 1181 l 1,0,-1
1141 -398 m 1,4,-1
 1121 -257 l 1,5,-1
 1169 -257 l 2,6,7
 1219 -257 1219 -257 1249 -249.5 c 128,-1,8
 1279 -242 1279 -242 1294 -224 c 128,-1,9
 1309 -206 1309 -206 1313.5 -185 c 128,-1,10
 1318 -164 1318 -164 1318 -127 c 2,11,-1
 1317 998 l 1,12,-1
 1492 998 l 1,13,-1
 1492 -68 l 2,14,15
 1492 -164 1492 -164 1479.5 -223.5 c 128,-1,16
 1467 -283 1467 -283 1433 -324 c 128,-1,17
 1399 -365 1399 -365 1341 -381.5 c 128,-1,18
 1283 -398 1283 -398 1189 -398 c 2,19,-1
 1141 -398 l 1,4,-1
981 140 m 1,20,-1
 974 0 l 1,21,-1
 214 0 l 1,22,-1
 214 1390 l 1,23,-1
 393 1390 l 1,24,-1
 393 140 l 1,25,-1
 981 140 l 1,20,-1
EndSplineSet
EndChar

StartChar: uni01C9
Encoding: 457 457 331
Width: 1264
GlyphClass: 2
Flags: W
LayerCount: 2
Fore
SplineSet
904 1181 m 1,0,-1
 904 1361 l 1,1,-1
 1079 1361 l 1,2,-1
 1079 1181 l 1,3,-1
 904 1181 l 1,0,-1
728 -398 m 1,4,-1
 708 -257 l 1,5,-1
 756 -257 l 2,6,7
 806 -257 806 -257 836 -249.5 c 128,-1,8
 866 -242 866 -242 881 -224 c 128,-1,9
 896 -206 896 -206 900.5 -185 c 128,-1,10
 905 -164 905 -164 905 -127 c 2,11,-1
 904 998 l 1,12,-1
 1079 998 l 1,13,-1
 1079 -68 l 2,14,15
 1079 -164 1079 -164 1066.5 -223.5 c 128,-1,16
 1054 -283 1054 -283 1020 -324 c 128,-1,17
 986 -365 986 -365 928 -381.5 c 128,-1,18
 870 -398 870 -398 776 -398 c 2,19,-1
 728 -398 l 1,4,-1
419 -18 m 0,20,21
 336 -18 336 -18 288.5 8 c 128,-1,22
 241 34 241 34 215 105.5 c 128,-1,23
 189 177 189 177 189 305 c 2,24,-1
 189 1395 l 1,25,-1
 364 1409 l 1,26,-1
 364 345 l 2,27,28
 364 246 364 246 371 199 c 128,-1,29
 378 152 378 152 396.5 134 c 128,-1,30
 415 116 415 116 454 116 c 2,31,-1
 518 116 l 1,32,-1
 529 -9 l 1,33,34
 467 -18 467 -18 419 -18 c 0,20,21
EndSplineSet
EndChar

StartChar: uni01CA
Encoding: 458 458 332
Width: 2298
GlyphClass: 2
Flags: W
LayerCount: 2
Fore
SplineSet
1678 -192 m 1,0,-1
 1664 -45 l 1,1,2
 1714 -45 1714 -45 1752 -38.5 c 128,-1,3
 1790 -32 1790 -32 1816 -23 c 128,-1,4
 1842 -14 1842 -14 1859.5 4 c 128,-1,5
 1877 22 1877 22 1886 37.5 c 128,-1,6
 1895 53 1895 53 1899.5 81.5 c 128,-1,7
 1904 110 1904 110 1905 130 c 128,-1,8
 1906 150 1906 150 1906 186 c 2,9,-1
 1906 1408 l 1,10,-1
 2084 1408 l 1,11,-1
 2084 219 l 2,12,13
 2084 143 2084 143 2079 91 c 128,-1,14
 2074 39 2074 39 2058.5 -11 c 128,-1,15
 2043 -61 2043 -61 2015.5 -92 c 128,-1,16
 1988 -123 1988 -123 1943 -147 c 128,-1,17
 1898 -171 1898 -171 1832.5 -181.5 c 128,-1,18
 1767 -192 1767 -192 1678 -192 c 1,0,-1
1192 208 m 1,19,-1
 1187 555 l 1,20,-1
 1187 1390 l 1,21,-1
 1343 1390 l 1,22,-1
 1343 0 l 1,23,-1
 1160 0 l 1,24,-1
 365 1181 l 1,25,-1
 370 830 l 1,26,-1
 370 0 l 1,27,-1
 214 0 l 1,28,-1
 214 1390 l 1,29,-1
 393 1390 l 1,30,-1
 1192 208 l 1,19,-1
EndSplineSet
EndChar

StartChar: uni01CB
Encoding: 459 459 333
Width: 2179
GlyphClass: 2
Flags: W
LayerCount: 2
Fore
SplineSet
1819 1181 m 1,0,-1
 1819 1361 l 1,1,-1
 1994 1361 l 1,2,-1
 1994 1181 l 1,3,-1
 1819 1181 l 1,0,-1
1643 -398 m 1,4,-1
 1623 -257 l 1,5,-1
 1671 -257 l 2,6,7
 1721 -257 1721 -257 1751 -249.5 c 128,-1,8
 1781 -242 1781 -242 1796 -224 c 128,-1,9
 1811 -206 1811 -206 1815.5 -185 c 128,-1,10
 1820 -164 1820 -164 1820 -127 c 2,11,-1
 1819 998 l 1,12,-1
 1994 998 l 1,13,-1
 1994 -68 l 2,14,15
 1994 -164 1994 -164 1981.5 -223.5 c 128,-1,16
 1969 -283 1969 -283 1935 -324 c 128,-1,17
 1901 -365 1901 -365 1843 -381.5 c 128,-1,18
 1785 -398 1785 -398 1691 -398 c 2,19,-1
 1643 -398 l 1,4,-1
1192 208 m 1,20,-1
 1187 555 l 1,21,-1
 1187 1390 l 1,22,-1
 1343 1390 l 1,23,-1
 1343 0 l 1,24,-1
 1160 0 l 1,25,-1
 365 1181 l 1,26,-1
 370 830 l 1,27,-1
 370 0 l 1,28,-1
 214 0 l 1,29,-1
 214 1390 l 1,30,-1
 393 1390 l 1,31,-1
 1192 208 l 1,20,-1
EndSplineSet
EndChar

StartChar: uni01CC
Encoding: 460 460 334
Width: 1811
GlyphClass: 2
Flags: W
LayerCount: 2
Fore
SplineSet
1451 1181 m 1,0,-1
 1451 1361 l 1,1,-1
 1626 1361 l 1,2,-1
 1626 1181 l 1,3,-1
 1451 1181 l 1,0,-1
1275 -398 m 1,4,-1
 1255 -257 l 1,5,-1
 1303 -257 l 2,6,7
 1353 -257 1353 -257 1383 -249.5 c 128,-1,8
 1413 -242 1413 -242 1428 -224 c 128,-1,9
 1443 -206 1443 -206 1447.5 -185 c 128,-1,10
 1452 -164 1452 -164 1452 -127 c 2,11,-1
 1451 998 l 1,12,-1
 1626 998 l 1,13,-1
 1626 -68 l 2,14,15
 1626 -164 1626 -164 1613.5 -223.5 c 128,-1,16
 1601 -283 1601 -283 1567 -324 c 128,-1,17
 1533 -365 1533 -365 1475 -381.5 c 128,-1,18
 1417 -398 1417 -398 1323 -398 c 2,19,-1
 1275 -398 l 1,4,-1
185 0 m 1,20,-1
 185 998 l 1,21,-1
 334 998 l 1,22,-1
 353 855 l 1,23,24
 462 1019 462 1019 679 1019 c 0,25,26
 1024 1019 1024 1019 1024 612 c 2,27,-1
 1024 0 l 1,28,-1
 849 0 l 1,29,-1
 849 623 l 2,30,31
 849 754 849 754 802 821.5 c 128,-1,32
 755 889 755 889 645 889 c 0,33,34
 491 889 491 889 425.5 800 c 128,-1,35
 360 711 360 711 360 546 c 2,36,-1
 360 0 l 1,37,-1
 185 0 l 1,20,-1
EndSplineSet
EndChar

StartChar: uni01F1
Encoding: 497 497 366
Width: 2714
GlyphClass: 2
Flags: W
LayerCount: 2
Fore
SplineSet
1662 1390 m 1,0,-1
 2574 1390 l 1,1,-1
 2574 1272 l 1,2,-1
 1836 138 l 1,3,-1
 2581 138 l 1,4,-1
 2575 0 l 1,5,-1
 1635 0 l 1,6,-1
 1635 124 l 1,7,-1
 2369 1252 l 1,8,-1
 1662 1252 l 1,9,-1
 1662 1390 l 1,0,-1
392 1252 m 1,10,-1
 392 137 l 1,11,-1
 617 137 l 2,12,13
 884 137 884 137 1024.5 282 c 128,-1,14
 1165 427 1165 427 1165 694 c 0,15,16
 1165 1252 1165 1252 590 1252 c 2,17,-1
 392 1252 l 1,10,-1
214 0 m 1,18,-1
 214 1390 l 1,19,-1
 594 1390 l 2,20,21
 764 1390 764 1390 901 1347 c 128,-1,22
 1038 1304 1038 1304 1137 1220 c 128,-1,23
 1236 1136 1236 1136 1289.5 1003 c 128,-1,24
 1343 870 1343 870 1343 698 c 0,25,26
 1343 366 1343 366 1151.5 183 c 128,-1,27
 960 0 960 0 622 0 c 2,28,-1
 214 0 l 1,18,-1
EndSplineSet
EndChar

StartChar: uni01F2
Encoding: 498 498 367
Width: 2390
GlyphClass: 2
Flags: W
LayerCount: 2
Fore
SplineSet
1617 998 m 1,0,-1
 2277 998 l 1,1,-1
 2277 873 l 1,2,-1
 1775 120 l 1,3,-1
 2294 120 l 1,4,-1
 2294 0 l 1,5,-1
 1596 0 l 1,6,-1
 1596 117 l 1,7,-1
 2107 878 l 1,8,-1
 1617 878 l 1,9,-1
 1617 998 l 1,0,-1
392 1252 m 1,10,-1
 392 137 l 1,11,-1
 617 137 l 2,12,13
 884 137 884 137 1024.5 282 c 128,-1,14
 1165 427 1165 427 1165 694 c 0,15,16
 1165 1252 1165 1252 590 1252 c 2,17,-1
 392 1252 l 1,10,-1
214 0 m 1,18,-1
 214 1390 l 1,19,-1
 594 1390 l 2,20,21
 764 1390 764 1390 901 1347 c 128,-1,22
 1038 1304 1038 1304 1137 1220 c 128,-1,23
 1236 1136 1236 1136 1289.5 1003 c 128,-1,24
 1343 870 1343 870 1343 698 c 0,25,26
 1343 366 1343 366 1151.5 183 c 128,-1,27
 960 0 960 0 622 0 c 2,28,-1
 214 0 l 1,18,-1
EndSplineSet
EndChar

StartChar: uni01F3
Encoding: 499 499 368
Width: 2149
GlyphClass: 2
Flags: W
LayerCount: 2
Fore
SplineSet
1376 998 m 1,0,-1
 2036 998 l 1,1,-1
 2036 873 l 1,2,-1
 1534 120 l 1,3,-1
 2053 120 l 1,4,-1
 2053 0 l 1,5,-1
 1355 0 l 1,6,-1
 1355 117 l 1,7,-1
 1866 878 l 1,8,-1
 1376 878 l 1,9,-1
 1376 998 l 1,0,-1
560 -21 m 0,10,11
 355 -21 355 -21 238.5 124 c 128,-1,12
 122 269 122 269 122 504 c 0,13,14
 122 732 122 732 243.5 875.5 c 128,-1,15
 365 1019 365 1019 559 1019 c 0,16,17
 657 1019 657 1019 745 976 c 128,-1,18
 833 933 833 933 883 862 c 1,19,20
 879 928 879 928 879 1053 c 2,21,-1
 879 1395 l 1,22,-1
 1054 1409 l 1,23,-1
 1054 0 l 1,24,-1
 896 0 l 1,25,-1
 879 163 l 1,26,27
 839 76 839 76 752 27.5 c 128,-1,28
 665 -21 665 -21 560 -21 c 0,10,11
587 108 m 0,29,30
 879 108 879 108 879 482 c 0,31,32
 879 685 879 685 811.5 788 c 128,-1,33
 744 891 744 891 588 891 c 0,34,35
 447 891 447 891 371.5 786 c 128,-1,36
 296 681 296 681 296 499 c 0,37,38
 296 318 296 318 370.5 213 c 128,-1,39
 445 108 445 108 587 108 c 0,29,30
EndSplineSet
EndChar

StartChar: uni0237
Encoding: 567 567 423
Width: 417
GlyphClass: 2
Flags: W
LayerCount: 2
Fore
SplineSet
-53 -398 m 1,0,-1
 -73 -257 l 1,1,-1
 -25 -257 l 2,2,3
 26 -257 26 -257 55.5 -250.5 c 128,-1,4
 85 -244 85 -244 100 -226 c 128,-1,5
 115 -208 115 -208 119 -186 c 128,-1,6
 123 -164 123 -164 123 -122 c 2,7,-1
 123 -52 l 1,8,-1
 123 998 l 1,9,-1
 298 998 l 1,10,-1
 298 -68 l 2,11,12
 298 -164 298 -164 285.5 -223.5 c 128,-1,13
 273 -283 273 -283 239 -324 c 128,-1,14
 205 -365 205 -365 147 -381.5 c 128,-1,15
 89 -398 89 -398 -5 -398 c 2,16,-1
 -53 -398 l 1,0,-1
EndSplineSet
EndChar

StartChar: uni0259
Encoding: 601 601 424
Width: 1108
GlyphClass: 2
Flags: W
LayerCount: 2
Fore
SplineSet
751 416 m 1,0,-1
 216 416 l 1,1,2
 220 264 220 264 274.5 187 c 128,-1,3
 329 110 329 110 447 110 c 0,4,5
 567 110 567 110 653 193.5 c 128,-1,6
 739 277 739 277 751 416 c 1,0,-1
433 1019 m 0,7,8
 653 1019 653 1019 790 879 c 128,-1,9
 927 739 927 739 927 502 c 0,10,11
 927 274 927 274 789.5 126.5 c 128,-1,12
 652 -21 652 -21 452 -21 c 0,13,14
 262 -21 262 -21 157 105.5 c 128,-1,15
 52 232 52 232 52 445 c 1,16,-1
 58 529 l 1,17,-1
 755 529 l 1,18,19
 752 696 752 696 654 791 c 128,-1,20
 556 886 556 886 408 886 c 0,21,22
 261 886 261 886 98 801 c 1,23,-1
 74 933 l 1,24,25
 216 1019 216 1019 433 1019 c 0,7,8
EndSplineSet
EndChar

StartChar: afii57929
Encoding: 700 700 425
Width: 458
GlyphClass: 2
Flags: W
LayerCount: 2
Fore
SplineSet
121 1003 m 1,0,-1
 206 1432 l 1,1,-1
 349 1432 l 1,2,-1
 227 1003 l 1,3,-1
 121 1003 l 1,0,-1
EndSplineSet
EndChar

StartChar: circumflex
Encoding: 710 710 426
Width: 728
GlyphClass: 2
Flags: W
LayerCount: 2
Fore
SplineSet
98 1138 m 1,0,-1
 268 1491 l 1,1,-1
 462 1491 l 1,2,-1
 632 1138 l 1,3,-1
 511 1138 l 1,4,-1
 364 1386 l 1,5,-1
 217 1138 l 1,6,-1
 98 1138 l 1,0,-1
EndSplineSet
EndChar

StartChar: caron
Encoding: 711 711 427
Width: 728
GlyphClass: 2
Flags: W
LayerCount: 2
Fore
SplineSet
268 1138 m 1,0,-1
 98 1491 l 1,1,-1
 217 1491 l 1,2,-1
 364 1208 l 1,3,-1
 511 1491 l 1,4,-1
 632 1491 l 1,5,-1
 462 1138 l 1,6,-1
 268 1138 l 1,0,-1
EndSplineSet
EndChar

StartChar: breve
Encoding: 728 728 428
Width: 686
GlyphClass: 2
Flags: W
LayerCount: 2
Fore
SplineSet
573 1404 m 1,0,1
 573 1294 573 1294 505 1238 c 128,-1,2
 437 1182 437 1182 343 1182 c 0,3,4
 250 1182 250 1182 183 1238 c 128,-1,5
 116 1294 116 1294 116 1404 c 1,6,-1
 222 1404 l 1,7,8
 222 1342 222 1342 256 1309 c 128,-1,9
 290 1276 290 1276 343 1276 c 128,-1,10
 396 1276 396 1276 431.5 1309 c 128,-1,11
 467 1342 467 1342 467 1404 c 1,12,-1
 573 1404 l 1,0,1
EndSplineSet
EndChar

StartChar: dotaccent
Encoding: 729 729 429
Width: 374
GlyphClass: 2
Flags: W
LayerCount: 2
Fore
SplineSet
111 1181 m 1,0,-1
 111 1361 l 1,1,-1
 264 1361 l 1,2,-1
 264 1181 l 1,3,-1
 111 1181 l 1,0,-1
EndSplineSet
EndChar

StartChar: ring
Encoding: 730 730 430
Width: 576
GlyphClass: 2
Flags: W
LayerCount: 2
Fore
SplineSet
291 1210 m 0,0,1
 326 1210 326 1210 352.5 1240 c 128,-1,2
 379 1270 379 1270 379 1312 c 0,3,4
 379 1355 379 1355 353.5 1386 c 128,-1,5
 328 1417 328 1417 291 1417 c 0,6,7
 256 1417 256 1417 228.5 1385.5 c 128,-1,8
 201 1354 201 1354 201 1312 c 0,9,10
 201 1266 201 1266 225 1238 c 128,-1,11
 249 1210 249 1210 291 1210 c 0,0,1
293 1144 m 0,12,13
 219 1144 219 1144 166.5 1190 c 128,-1,14
 114 1236 114 1236 114 1312 c 0,15,16
 114 1390 114 1390 166.5 1440.5 c 128,-1,17
 219 1491 219 1491 291 1491 c 128,-1,18
 363 1491 363 1491 415.5 1439 c 128,-1,19
 468 1387 468 1387 468 1312 c 0,20,21
 468 1236 468 1236 416 1190 c 128,-1,22
 364 1144 364 1144 293 1144 c 0,12,13
EndSplineSet
EndChar

StartChar: ogonek
Encoding: 731 731 431
Width: 536
GlyphClass: 2
Flags: W
LayerCount: 2
Fore
SplineSet
283 -381 m 0,0,1
 206 -381 206 -381 156.5 -338.5 c 128,-1,2
 107 -296 107 -296 107 -221 c 0,3,4
 107 -97 107 -97 281 5 c 1,5,-1
 385 5 l 1,6,7
 221 -116 221 -116 221 -195 c 0,8,9
 221 -229 221 -229 246 -252.5 c 128,-1,10
 271 -276 271 -276 301 -276 c 0,11,12
 353 -276 353 -276 426 -246 c 1,13,-1
 426 -352 l 1,14,15
 358 -381 358 -381 283 -381 c 0,0,1
EndSplineSet
EndChar

StartChar: tilde
Encoding: 732 732 432
Width: 805
GlyphClass: 2
Flags: W
LayerCount: 2
Fore
SplineSet
105 1175 m 1,0,1
 105 1275 105 1275 145.5 1324.5 c 128,-1,2
 186 1374 186 1374 261 1374 c 0,3,4
 311 1374 311 1374 378.5 1353 c 128,-1,5
 446 1332 446 1332 488 1310 c 2,6,-1
 530 1289 l 1,7,8
 547 1290 547 1290 556.5 1305.5 c 128,-1,9
 566 1321 566 1321 568 1334 c 128,-1,10
 570 1347 570 1347 572 1374 c 1,11,-1
 672 1374 l 1,12,13
 672 1175 672 1175 536 1175 c 0,14,15
 500 1175 500 1175 429 1197 c 128,-1,16
 358 1219 358 1219 305 1241 c 2,17,-1
 252 1263 l 1,18,19
 230 1262 230 1262 217 1238 c 128,-1,20
 204 1214 204 1214 202 1175 c 1,21,-1
 105 1175 l 1,0,1
EndSplineSet
EndChar

StartChar: hungarumlaut
Encoding: 733 733 433
Width: 743
GlyphClass: 2
Flags: W
LayerCount: 2
Fore
SplineSet
116 1146 m 1,0,-1
 297 1451 l 1,1,-1
 436 1451 l 1,2,-1
 207 1146 l 1,3,-1
 116 1146 l 1,0,-1
329 1146 m 1,4,-1
 512 1451 l 1,5,-1
 649 1451 l 1,6,-1
 421 1146 l 1,7,-1
 329 1146 l 1,4,-1
EndSplineSet
EndChar

StartChar: uni0307
Encoding: 775 775 434
Width: 349
GlyphClass: 2
Flags: W
LayerCount: 2
Fore
SplineSet
97 1181 m 1,0,-1
 97 1361 l 1,1,-1
 250 1361 l 1,2,-1
 250 1181 l 1,3,-1
 97 1181 l 1,0,-1
EndSplineSet
EndChar

StartChar: uni030F
Encoding: 783 783 435
Width: 738
GlyphClass: 2
Flags: W
LayerCount: 2
Fore
SplineSet
303 1146 m 1,0,-1
 76 1451 l 1,1,-1
 212 1451 l 1,2,-1
 396 1146 l 1,3,-1
 303 1146 l 1,0,-1
547 1146 m 1,4,-1
 322 1451 l 1,5,-1
 460 1451 l 1,6,-1
 640 1146 l 1,7,-1
 547 1146 l 1,4,-1
EndSplineSet
EndChar

StartChar: uni0311
Encoding: 785 785 436
Width: 648
GlyphClass: 2
Flags: W
LayerCount: 2
Fore
SplineSet
200 1182 m 1,0,-1
 95 1182 l 1,1,2
 95 1293 95 1293 162.5 1355 c 128,-1,3
 230 1417 230 1417 321 1417 c 0,4,5
 413 1417 413 1417 482 1355 c 128,-1,6
 551 1293 551 1293 551 1182 c 1,7,-1
 445 1182 l 1,8,9
 445 1244 445 1244 409.5 1277 c 128,-1,10
 374 1310 374 1310 321 1310 c 128,-1,11
 268 1310 268 1310 234 1277 c 128,-1,12
 200 1244 200 1244 200 1182 c 1,0,-1
EndSplineSet
EndChar

StartChar: uni031B
Encoding: 795 795 437
Width: 437
GlyphClass: 2
Flags: W
LayerCount: 2
Fore
SplineSet
190 142 m 0,0,1
 153 142 153 142 106 147 c 1,2,-1
 106 233 l 1,3,4
 113 233 113 233 128 232 c 128,-1,5
 143 231 143 231 151 231 c 0,6,7
 220 231 220 231 220 322 c 0,8,9
 220 385 220 385 193 456 c 1,10,-1
 299 456 l 1,11,12
 328 387 328 387 328 319 c 0,13,14
 328 243 328 243 292 192.5 c 128,-1,15
 256 142 256 142 190 142 c 0,0,1
EndSplineSet
EndChar

StartChar: uni0326
Encoding: 806 806 438
Width: 369
GlyphClass: 2
Flags: W
LayerCount: 2
Fore
SplineSet
57 -612 m 1,0,-1
 143 -158 l 1,1,-1
 294 -158 l 1,2,-1
 164 -612 l 1,3,-1
 57 -612 l 1,0,-1
EndSplineSet
EndChar

StartChar: tonos
Encoding: 900 900 439
Width: 425
GlyphClass: 2
Flags: W
LayerCount: 2
Fore
SplineSet
216 484 m 128,-1,1
 159 484 159 484 127 519.5 c 128,-1,2
 95 555 95 555 95 604 c 128,-1,3
 95 653 95 653 127 688.5 c 128,-1,4
 159 724 159 724 216 724 c 128,-1,5
 273 724 273 724 305 688.5 c 128,-1,6
 337 653 337 653 337 604 c 128,-1,7
 337 555 337 555 305 519.5 c 128,-1,0
 273 484 273 484 216 484 c 128,-1,1
EndSplineSet
EndChar

StartChar: dieresistonos
Encoding: 901 901 440
Width: 425
GlyphClass: 2
Flags: W
LayerCount: 2
Fore
SplineSet
216 484 m 128,-1,1
 159 484 159 484 127 519.5 c 128,-1,2
 95 555 95 555 95 604 c 128,-1,3
 95 653 95 653 127 688.5 c 128,-1,4
 159 724 159 724 216 724 c 128,-1,5
 273 724 273 724 305 688.5 c 128,-1,6
 337 653 337 653 337 604 c 128,-1,7
 337 555 337 555 305 519.5 c 128,-1,0
 273 484 273 484 216 484 c 128,-1,1
EndSplineSet
EndChar

StartChar: Alphatonos
Encoding: 902 902 441
Width: 451
GlyphClass: 2
Flags: W
LayerCount: 2
Fore
SplineSet
223 484 m 128,-1,1
 166 484 166 484 134 519.5 c 128,-1,2
 102 555 102 555 102 604 c 128,-1,3
 102 653 102 653 134 688.5 c 128,-1,4
 166 724 166 724 223 724 c 128,-1,5
 280 724 280 724 312 688.5 c 128,-1,6
 344 653 344 653 344 604 c 128,-1,7
 344 555 344 555 312 519.5 c 128,-1,0
 280 484 280 484 223 484 c 128,-1,1
EndSplineSet
EndChar

StartChar: Epsilontonos
Encoding: 904 904 442
Width: 451
GlyphClass: 2
Flags: W
LayerCount: 2
Fore
SplineSet
223 484 m 128,-1,1
 166 484 166 484 134 519.5 c 128,-1,2
 102 555 102 555 102 604 c 128,-1,3
 102 653 102 653 134 688.5 c 128,-1,4
 166 724 166 724 223 724 c 128,-1,5
 280 724 280 724 312 688.5 c 128,-1,6
 344 653 344 653 344 604 c 128,-1,7
 344 555 344 555 312 519.5 c 128,-1,0
 280 484 280 484 223 484 c 128,-1,1
EndSplineSet
EndChar

StartChar: Etatonos
Encoding: 905 905 443
Width: 451
GlyphClass: 2
Flags: W
LayerCount: 2
Fore
SplineSet
223 484 m 128,-1,1
 166 484 166 484 134 519.5 c 128,-1,2
 102 555 102 555 102 604 c 128,-1,3
 102 653 102 653 134 688.5 c 128,-1,4
 166 724 166 724 223 724 c 128,-1,5
 280 724 280 724 312 688.5 c 128,-1,6
 344 653 344 653 344 604 c 128,-1,7
 344 555 344 555 312 519.5 c 128,-1,0
 280 484 280 484 223 484 c 128,-1,1
EndSplineSet
EndChar

StartChar: Iotatonos
Encoding: 906 906 444
Width: 451
GlyphClass: 2
Flags: W
LayerCount: 2
Fore
SplineSet
223 484 m 128,-1,1
 166 484 166 484 134 519.5 c 128,-1,2
 102 555 102 555 102 604 c 128,-1,3
 102 653 102 653 134 688.5 c 128,-1,4
 166 724 166 724 223 724 c 128,-1,5
 280 724 280 724 312 688.5 c 128,-1,6
 344 653 344 653 344 604 c 128,-1,7
 344 555 344 555 312 519.5 c 128,-1,0
 280 484 280 484 223 484 c 128,-1,1
EndSplineSet
EndChar

StartChar: Omicrontonos
Encoding: 908 908 445
Width: 451
GlyphClass: 2
Flags: W
LayerCount: 2
Fore
SplineSet
223 484 m 128,-1,1
 166 484 166 484 134 519.5 c 128,-1,2
 102 555 102 555 102 604 c 128,-1,3
 102 653 102 653 134 688.5 c 128,-1,4
 166 724 166 724 223 724 c 128,-1,5
 280 724 280 724 312 688.5 c 128,-1,6
 344 653 344 653 344 604 c 128,-1,7
 344 555 344 555 312 519.5 c 128,-1,0
 280 484 280 484 223 484 c 128,-1,1
EndSplineSet
EndChar

StartChar: Upsilontonos
Encoding: 910 910 446
Width: 451
GlyphClass: 2
Flags: W
LayerCount: 2
Fore
SplineSet
223 484 m 128,-1,1
 166 484 166 484 134 519.5 c 128,-1,2
 102 555 102 555 102 604 c 128,-1,3
 102 653 102 653 134 688.5 c 128,-1,4
 166 724 166 724 223 724 c 128,-1,5
 280 724 280 724 312 688.5 c 128,-1,6
 344 653 344 653 344 604 c 128,-1,7
 344 555 344 555 312 519.5 c 128,-1,0
 280 484 280 484 223 484 c 128,-1,1
EndSplineSet
EndChar

StartChar: Omegatonos
Encoding: 911 911 447
Width: 451
GlyphClass: 2
Flags: W
LayerCount: 2
Fore
SplineSet
223 484 m 128,-1,1
 166 484 166 484 134 519.5 c 128,-1,2
 102 555 102 555 102 604 c 128,-1,3
 102 653 102 653 134 688.5 c 128,-1,4
 166 724 166 724 223 724 c 128,-1,5
 280 724 280 724 312 688.5 c 128,-1,6
 344 653 344 653 344 604 c 128,-1,7
 344 555 344 555 312 519.5 c 128,-1,0
 280 484 280 484 223 484 c 128,-1,1
EndSplineSet
EndChar

StartChar: iotadieresistonos
Encoding: 912 912 448
Width: 517
GlyphClass: 2
Flags: W
LayerCount: 2
Fore
SplineSet
230 1134 m 128,-1,1
 173 1134 173 1134 141 1169.5 c 128,-1,2
 109 1205 109 1205 109 1254 c 128,-1,3
 109 1303 109 1303 141 1338.5 c 128,-1,4
 173 1374 173 1374 230 1374 c 128,-1,5
 287 1374 287 1374 319 1338.5 c 128,-1,6
 351 1303 351 1303 351 1254 c 128,-1,7
 351 1205 351 1205 319 1169.5 c 128,-1,0
 287 1134 287 1134 230 1134 c 128,-1,1
279 484 m 128,-1,9
 222 484 222 484 190 519.5 c 128,-1,10
 158 555 158 555 158 604 c 128,-1,11
 158 653 158 653 190 688.5 c 128,-1,12
 222 724 222 724 279 724 c 128,-1,13
 336 724 336 724 368 688.5 c 128,-1,14
 400 653 400 653 400 604 c 128,-1,15
 400 555 400 555 368 519.5 c 128,-1,8
 336 484 336 484 279 484 c 128,-1,9
EndSplineSet
EndChar

StartChar: Alpha
Encoding: 913 913 449
Width: 1344
GlyphClass: 2
Flags: W
LayerCount: 2
Fore
SplineSet
474 561 m 1,0,-1
 885 561 l 1,1,2
 692 1117 692 1117 672 1186 c 1,3,-1
 474 561 l 1,0,-1
1090 0 m 1,4,-1
 935 430 l 1,5,-1
 421 430 l 1,6,-1
 264 0 l 1,7,-1
 90 0 l 1,8,-1
 574 1346 l 1,9,-1
 772 1346 l 1,10,-1
 1255 0 l 1,11,-1
 1090 0 l 1,4,-1
EndSplineSet
EndChar

StartChar: Beta
Encoding: 914 914 450
Width: 1201
GlyphClass: 2
Flags: W
LayerCount: 2
Fore
SplineSet
136 0 m 1,0,-1
 136 1346 l 1,1,-1
 522 1346 l 2,2,3
 782 1346 782 1346 907 1267 c 128,-1,4
 1032 1188 1032 1188 1032 1015 c 0,5,6
 1032 989 1032 989 1029 964 c 128,-1,7
 1026 939 1026 939 1012.5 900 c 128,-1,8
 999 861 999 861 976.5 828.5 c 128,-1,9
 954 796 954 796 909.5 764 c 128,-1,10
 865 732 865 732 806 713 c 1,11,12
 941 688 941 688 1011.5 598.5 c 128,-1,13
 1082 509 1082 509 1082 383 c 0,14,15
 1082 201 1082 201 962 100.5 c 128,-1,16
 842 0 842 0 606 0 c 2,17,-1
 136 0 l 1,0,-1
294 641 m 1,18,-1
 294 129 l 1,19,-1
 575 129 l 2,20,21
 747 129 747 129 832 192.5 c 128,-1,22
 917 256 917 256 917 389 c 0,23,24
 917 528 917 528 824.5 584.5 c 128,-1,25
 732 641 732 641 537 641 c 2,26,-1
 294 641 l 1,18,-1
294 1213 m 1,27,-1
 294 767 l 1,28,-1
 582 767 l 2,29,30
 723 767 723 767 795 816 c 128,-1,31
 867 865 867 865 867 991 c 128,-1,32
 867 1117 867 1117 781.5 1165 c 128,-1,33
 696 1213 696 1213 514 1213 c 2,34,-1
 294 1213 l 1,27,-1
EndSplineSet
EndChar

StartChar: Gamma
Encoding: 915 915 451
Width: 1005
GlyphClass: 2
Flags: W
LayerCount: 2
Fore
SplineSet
298 1220 m 1,0,-1
 298 0 l 1,1,-1
 136 0 l 1,2,-1
 136 1361 l 1,3,-1
 930 1361 l 1,4,-1
 916 1220 l 1,5,-1
 298 1220 l 1,0,-1
EndSplineSet
EndChar

StartChar: Delta
Encoding: 916 916 452
Width: 1347
GlyphClass: 2
Flags: W
LayerCount: 2
Fore
SplineSet
90 0 m 1,0,-1
 590 1361 l 1,1,-1
 758 1361 l 1,2,-1
 1259 0 l 1,3,-1
 90 0 l 1,0,-1
1044 141 m 1,4,-1
 674 1188 l 1,5,-1
 309 141 l 1,6,-1
 1044 141 l 1,4,-1
EndSplineSet
EndChar

StartChar: Epsilon
Encoding: 917 917 453
Width: 1074
GlyphClass: 2
Flags: W
LayerCount: 2
Fore
SplineSet
311 1207 m 1,0,-1
 311 766 l 1,1,-1
 894 766 l 1,2,-1
 894 629 l 1,3,-1
 311 629 l 1,4,-1
 311 139 l 1,5,-1
 952 139 l 1,6,-1
 945 0 l 1,7,-1
 136 0 l 1,8,-1
 136 1346 l 1,9,-1
 952 1346 l 1,10,-1
 945 1207 l 1,11,-1
 311 1207 l 1,0,-1
EndSplineSet
EndChar

StartChar: Zeta
Encoding: 918 918 454
Width: 1159
GlyphClass: 2
Flags: W
LayerCount: 2
Fore
SplineSet
137 1346 m 1,0,-1
 1044 1346 l 1,1,-1
 1044 1228 l 1,2,-1
 308 140 l 1,3,-1
 1050 140 l 1,4,-1
 1045 0 l 1,5,-1
 111 0 l 1,6,-1
 111 124 l 1,7,-1
 843 1206 l 1,8,-1
 137 1206 l 1,9,-1
 137 1346 l 1,0,-1
EndSplineSet
EndChar

StartChar: Eta
Encoding: 919 919 455
Width: 1320
GlyphClass: 2
Flags: W
LayerCount: 2
Fore
SplineSet
1010 768 m 1,0,-1
 1010 1346 l 1,1,-1
 1185 1346 l 1,2,-1
 1185 0 l 1,3,-1
 1010 0 l 1,4,-1
 1010 630 l 1,5,-1
 311 630 l 1,6,-1
 311 0 l 1,7,-1
 136 0 l 1,8,-1
 136 1346 l 1,9,-1
 311 1346 l 1,10,-1
 311 768 l 1,11,-1
 1010 768 l 1,0,-1
EndSplineSet
EndChar

StartChar: Theta
Encoding: 920 920 456
Width: 451
GlyphClass: 2
Flags: W
LayerCount: 2
Fore
SplineSet
223 484 m 128,-1,1
 166 484 166 484 134 519.5 c 128,-1,2
 102 555 102 555 102 604 c 128,-1,3
 102 653 102 653 134 688.5 c 128,-1,4
 166 724 166 724 223 724 c 128,-1,5
 280 724 280 724 312 688.5 c 128,-1,6
 344 653 344 653 344 604 c 128,-1,7
 344 555 344 555 312 519.5 c 128,-1,0
 280 484 280 484 223 484 c 128,-1,1
EndSplineSet
EndChar

StartChar: Iota
Encoding: 921 921 457
Width: 446
GlyphClass: 2
Flags: W
LayerCount: 2
Fore
SplineSet
136 0 m 1,0,-1
 136 1346 l 1,1,-1
 311 1346 l 1,2,-1
 311 0 l 1,3,-1
 136 0 l 1,0,-1
EndSplineSet
EndChar

StartChar: Kappa
Encoding: 922 922 458
Width: 1220
GlyphClass: 2
Flags: W
LayerCount: 2
Fore
SplineSet
878 1346 m 1,0,-1
 1098 1346 l 1,1,-1
 553 743 l 1,2,-1
 1127 0 l 1,3,-1
 908 0 l 1,4,-1
 415 646 l 1,5,-1
 311 543 l 1,6,-1
 311 0 l 1,7,-1
 136 0 l 1,8,-1
 136 1346 l 1,9,-1
 311 1346 l 1,10,-1
 311 732 l 1,11,-1
 878 1346 l 1,0,-1
EndSplineSet
EndChar

StartChar: Lambda
Encoding: 923 923 459
Width: 1347
GlyphClass: 2
Flags: W
LayerCount: 2
Fore
SplineSet
1094 0 m 1,0,-1
 674 1188 l 1,1,-1
 260 0 l 1,2,-1
 90 0 l 1,3,-1
 590 1361 l 1,4,-1
 758 1361 l 1,5,-1
 1259 0 l 1,6,-1
 1094 0 l 1,0,-1
EndSplineSet
EndChar

StartChar: Mu
Encoding: 924 924 460
Width: 1611
GlyphClass: 2
Flags: W
LayerCount: 2
Fore
SplineSet
1278 1346 m 1,0,-1
 1476 1346 l 1,1,-1
 1476 0 l 1,2,-1
 1323 0 l 1,3,-1
 1323 810 l 1,4,-1
 1330 1132 l 1,5,-1
 1296 1040 l 1,6,-1
 885 83 l 1,7,-1
 731 83 l 1,8,-1
 312 1044 l 1,9,-1
 278 1136 l 1,10,-1
 289 806 l 1,11,-1
 289 0 l 1,12,-1
 136 0 l 1,13,-1
 136 1346 l 1,14,-1
 340 1346 l 1,15,-1
 807 274 l 1,16,-1
 1278 1346 l 1,0,-1
EndSplineSet
EndChar

StartChar: Nu
Encoding: 925 925 461
Width: 1378
GlyphClass: 2
Flags: W
LayerCount: 2
Fore
SplineSet
1096 219 m 1,0,1
 1090 509 1090 509 1090 555 c 2,2,-1
 1090 1346 l 1,3,-1
 1243 1346 l 1,4,-1
 1243 0 l 1,5,-1
 1065 0 l 1,6,7
 971 137 971 137 700 524.5 c 128,-1,8
 429 912 429 912 284 1127 c 1,9,10
 289 894 289 894 289 786 c 2,11,-1
 289 0 l 1,12,-1
 136 0 l 1,13,-1
 136 1346 l 1,14,-1
 312 1346 l 1,15,16
 403 1215 403 1215 676 824.5 c 128,-1,17
 949 434 949 434 1096 219 c 1,0,1
EndSplineSet
EndChar

StartChar: Xi
Encoding: 926 926 462
Width: 451
GlyphClass: 2
Flags: W
LayerCount: 2
Fore
SplineSet
223 484 m 128,-1,1
 166 484 166 484 134 519.5 c 128,-1,2
 102 555 102 555 102 604 c 128,-1,3
 102 653 102 653 134 688.5 c 128,-1,4
 166 724 166 724 223 724 c 128,-1,5
 280 724 280 724 312 688.5 c 128,-1,6
 344 653 344 653 344 604 c 128,-1,7
 344 555 344 555 312 519.5 c 128,-1,0
 280 484 280 484 223 484 c 128,-1,1
EndSplineSet
EndChar

StartChar: Omicron
Encoding: 927 927 463
Width: 1511
GlyphClass: 2
Flags: W
LayerCount: 2
Fore
SplineSet
754 -20 m 0,0,1
 448 -20 448 -20 281 165 c 128,-1,2
 114 350 114 350 114 668 c 0,3,4
 114 991 114 991 283 1178.5 c 128,-1,5
 452 1366 452 1366 755 1366 c 0,6,7
 1054 1366 1054 1366 1224.5 1177 c 128,-1,8
 1395 988 1395 988 1395 667 c 0,9,10
 1395 461 1395 461 1321 307 c 128,-1,11
 1247 153 1247 153 1101 66.5 c 128,-1,12
 955 -20 955 -20 754 -20 c 0,0,1
754 118 m 128,-1,14
 909 118 909 118 1015.5 190 c 128,-1,15
 1122 262 1122 262 1171 383 c 128,-1,16
 1220 504 1220 504 1220 667 c 0,17,18
 1220 835 1220 835 1169.5 959.5 c 128,-1,19
 1119 1084 1119 1084 1013 1156 c 128,-1,20
 907 1228 907 1228 755 1228 c 0,21,22
 528 1228 528 1228 408 1075.5 c 128,-1,23
 288 923 288 923 288 667 c 0,24,25
 288 504 288 504 337 383 c 128,-1,26
 386 262 386 262 492.5 190 c 128,-1,13
 599 118 599 118 754 118 c 128,-1,14
EndSplineSet
EndChar

StartChar: Pi
Encoding: 928 928 464
Width: 1337
GlyphClass: 2
Flags: W
LayerCount: 2
Fore
SplineSet
1041 0 m 1,0,-1
 1041 1223 l 1,1,-1
 298 1223 l 1,2,-1
 298 0 l 1,3,-1
 136 0 l 1,4,-1
 136 1361 l 1,5,-1
 1202 1361 l 1,6,-1
 1202 0 l 1,7,-1
 1041 0 l 1,0,-1
EndSplineSet
EndChar

StartChar: Rho
Encoding: 929 929 465
Width: 1120
GlyphClass: 2
Flags: W
LayerCount: 2
Fore
SplineSet
136 0 m 1,0,-1
 136 1346 l 1,1,-1
 546 1346 l 2,2,3
 678 1346 678 1346 781 1306.5 c 128,-1,4
 884 1267 884 1267 947 1182.5 c 128,-1,5
 1010 1098 1010 1098 1010 979 c 0,6,7
 1010 783 1010 783 890.5 676 c 128,-1,8
 771 569 771 569 525 569 c 0,9,10
 449 569 449 569 311 581 c 1,11,-1
 311 0 l 1,12,-1
 136 0 l 1,0,-1
533 700 m 0,13,14
 694 700 694 700 764.5 768.5 c 128,-1,15
 835 837 835 837 835 976 c 0,16,17
 835 1092 835 1092 755.5 1146.5 c 128,-1,18
 676 1201 676 1201 542 1201 c 2,19,-1
 311 1201 l 1,20,-1
 311 710 l 1,21,22
 471 700 471 700 533 700 c 0,13,14
EndSplineSet
EndChar

StartChar: Sigma
Encoding: 931 931 466
Width: 1074
GlyphClass: 2
Flags: W
LayerCount: 2
Fore
SplineSet
311 1207 m 1,0,-1
 311 766 l 1,1,-1
 894 766 l 1,2,-1
 894 629 l 1,3,-1
 311 629 l 1,4,-1
 311 139 l 1,5,-1
 952 139 l 1,6,-1
 945 0 l 1,7,-1
 136 0 l 1,8,-1
 136 1346 l 1,9,-1
 952 1346 l 1,10,-1
 945 1207 l 1,11,-1
 311 1207 l 1,0,-1
EndSplineSet
EndChar

StartChar: Tau
Encoding: 932 932 467
Width: 1147
GlyphClass: 2
Flags: W
LayerCount: 2
Fore
SplineSet
1067 1346 m 1,0,-1
 1067 1207 l 1,1,-1
 660 1207 l 1,2,-1
 660 0 l 1,3,-1
 485 0 l 1,4,-1
 485 1207 l 1,5,-1
 77 1207 l 1,6,-1
 77 1346 l 1,7,-1
 1067 1346 l 1,0,-1
EndSplineSet
EndChar

StartChar: Upsilon
Encoding: 933 933 468
Width: 1248
GlyphClass: 2
Flags: W
LayerCount: 2
Fore
SplineSet
623 683 m 1,0,-1
 1002 1346 l 1,1,-1
 1177 1346 l 1,2,-1
 711 537 l 1,3,-1
 711 0 l 1,4,-1
 536 0 l 1,5,-1
 536 533 l 1,6,-1
 70 1346 l 1,7,-1
 245 1346 l 1,8,-1
 623 683 l 1,0,-1
EndSplineSet
EndChar

StartChar: Phi
Encoding: 934 934 469
Width: 1547
GlyphClass: 2
Flags: W
LayerCount: 2
Fore
SplineSet
851 0 m 1,0,-1
 690 0 l 1,1,-1
 690 155 l 1,2,3
 504 169 504 169 371 244.5 c 128,-1,4
 238 320 238 320 173 437.5 c 128,-1,5
 108 555 108 555 108 703 c 0,6,7
 108 929 108 929 262 1073 c 128,-1,8
 416 1217 416 1217 690 1236 c 1,9,-1
 690 1361 l 1,10,-1
 851 1361 l 1,11,-1
 851 1236 l 1,12,13
 1127 1217 1127 1217 1281.5 1073.5 c 128,-1,14
 1436 930 1436 930 1436 703 c 0,15,16
 1436 592 1436 592 1398 497 c 128,-1,17
 1360 402 1360 402 1288 329 c 128,-1,18
 1216 256 1216 256 1104 210.5 c 128,-1,19
 992 165 992 165 851 155 c 1,20,-1
 851 0 l 1,0,-1
690 294 m 1,21,-1
 690 1097 l 1,22,23
 490 1079 490 1079 385 974.5 c 128,-1,24
 280 870 280 870 280 703 c 0,25,26
 280 537 280 537 383 425 c 128,-1,27
 486 313 486 313 690 294 c 1,21,-1
851 1097 m 1,28,-1
 851 294 l 1,29,30
 1057 313 1057 313 1160.5 424.5 c 128,-1,31
 1264 536 1264 536 1264 703 c 128,-1,32
 1264 870 1264 870 1159 974.5 c 128,-1,33
 1054 1079 1054 1079 851 1097 c 1,28,-1
EndSplineSet
EndChar

StartChar: Chi
Encoding: 935 935 470
Width: 1279
GlyphClass: 2
Flags: W
LayerCount: 2
Fore
SplineSet
733 679 m 1,0,-1
 1181 0 l 1,1,-1
 999 0 l 1,2,-1
 642 542 l 1,3,-1
 286 0 l 1,4,-1
 104 0 l 1,5,-1
 551 679 l 1,6,-1
 104 1346 l 1,7,-1
 286 1346 l 1,8,-1
 642 816 l 1,9,-1
 999 1346 l 1,10,-1
 1181 1346 l 1,11,-1
 733 679 l 1,0,-1
EndSplineSet
EndChar

StartChar: Psi
Encoding: 936 936 471
Width: 451
GlyphClass: 2
Flags: W
LayerCount: 2
Fore
SplineSet
223 484 m 128,-1,1
 166 484 166 484 134 519.5 c 128,-1,2
 102 555 102 555 102 604 c 128,-1,3
 102 653 102 653 134 688.5 c 128,-1,4
 166 724 166 724 223 724 c 128,-1,5
 280 724 280 724 312 688.5 c 128,-1,6
 344 653 344 653 344 604 c 128,-1,7
 344 555 344 555 312 519.5 c 128,-1,0
 280 484 280 484 223 484 c 128,-1,1
EndSplineSet
EndChar

StartChar: Omega
Encoding: 937 937 472
Width: 1511
GlyphClass: 2
Flags: W
LayerCount: 2
Fore
SplineSet
754 -20 m 0,0,1
 448 -20 448 -20 281 165 c 128,-1,2
 114 350 114 350 114 668 c 0,3,4
 114 991 114 991 283 1178.5 c 128,-1,5
 452 1366 452 1366 755 1366 c 0,6,7
 1054 1366 1054 1366 1224.5 1177 c 128,-1,8
 1395 988 1395 988 1395 667 c 0,9,10
 1395 461 1395 461 1321 307 c 128,-1,11
 1247 153 1247 153 1101 66.5 c 128,-1,12
 955 -20 955 -20 754 -20 c 0,0,1
754 118 m 128,-1,14
 909 118 909 118 1015.5 190 c 128,-1,15
 1122 262 1122 262 1171 383 c 128,-1,16
 1220 504 1220 504 1220 667 c 0,17,18
 1220 835 1220 835 1169.5 959.5 c 128,-1,19
 1119 1084 1119 1084 1013 1156 c 128,-1,20
 907 1228 907 1228 755 1228 c 0,21,22
 528 1228 528 1228 408 1075.5 c 128,-1,23
 288 923 288 923 288 667 c 0,24,25
 288 504 288 504 337 383 c 128,-1,26
 386 262 386 262 492.5 190 c 128,-1,13
 599 118 599 118 754 118 c 128,-1,14
EndSplineSet
EndChar

StartChar: Iotadieresis
Encoding: 938 938 473
Width: 446
GlyphClass: 2
Flags: W
LayerCount: 2
Fore
SplineSet
136 0 m 1,0,-1
 136 1346 l 1,1,-1
 311 1346 l 1,2,-1
 311 0 l 1,3,-1
 136 0 l 1,0,-1
-24 1576 m 1,4,-1
 -24 1769 l 1,5,-1
 116 1769 l 1,6,-1
 116 1576 l 1,7,-1
 -24 1576 l 1,4,-1
330 1576 m 1,8,-1
 330 1769 l 1,9,-1
 472 1769 l 1,10,-1
 472 1576 l 1,11,-1
 330 1576 l 1,8,-1
EndSplineSet
EndChar

StartChar: Upsilondieresis
Encoding: 939 939 474
Width: 1248
GlyphClass: 2
Flags: W
LayerCount: 2
Fore
SplineSet
623 683 m 1,0,-1
 1002 1346 l 1,1,-1
 1177 1346 l 1,2,-1
 711 537 l 1,3,-1
 711 0 l 1,4,-1
 536 0 l 1,5,-1
 536 533 l 1,6,-1
 70 1346 l 1,7,-1
 245 1346 l 1,8,-1
 623 683 l 1,0,-1
376 1576 m 1,9,-1
 376 1769 l 1,10,-1
 516 1769 l 1,11,-1
 516 1576 l 1,12,-1
 376 1576 l 1,9,-1
730 1576 m 1,13,-1
 730 1769 l 1,14,-1
 872 1769 l 1,15,-1
 872 1576 l 1,16,-1
 730 1576 l 1,13,-1
EndSplineSet
EndChar

StartChar: alphatonos
Encoding: 940 940 475
Width: 451
GlyphClass: 2
Flags: W
LayerCount: 2
Fore
SplineSet
223 484 m 128,-1,1
 166 484 166 484 134 519.5 c 128,-1,2
 102 555 102 555 102 604 c 128,-1,3
 102 653 102 653 134 688.5 c 128,-1,4
 166 724 166 724 223 724 c 128,-1,5
 280 724 280 724 312 688.5 c 128,-1,6
 344 653 344 653 344 604 c 128,-1,7
 344 555 344 555 312 519.5 c 128,-1,0
 280 484 280 484 223 484 c 128,-1,1
EndSplineSet
EndChar

StartChar: epsilontonos
Encoding: 941 941 476
Width: 451
GlyphClass: 2
Flags: W
LayerCount: 2
Fore
SplineSet
223 484 m 128,-1,1
 166 484 166 484 134 519.5 c 128,-1,2
 102 555 102 555 102 604 c 128,-1,3
 102 653 102 653 134 688.5 c 128,-1,4
 166 724 166 724 223 724 c 128,-1,5
 280 724 280 724 312 688.5 c 128,-1,6
 344 653 344 653 344 604 c 128,-1,7
 344 555 344 555 312 519.5 c 128,-1,0
 280 484 280 484 223 484 c 128,-1,1
EndSplineSet
EndChar

StartChar: etatonos
Encoding: 942 942 477
Width: 451
GlyphClass: 2
Flags: W
LayerCount: 2
Fore
SplineSet
223 484 m 128,-1,1
 166 484 166 484 134 519.5 c 128,-1,2
 102 555 102 555 102 604 c 128,-1,3
 102 653 102 653 134 688.5 c 128,-1,4
 166 724 166 724 223 724 c 128,-1,5
 280 724 280 724 312 688.5 c 128,-1,6
 344 653 344 653 344 604 c 128,-1,7
 344 555 344 555 312 519.5 c 128,-1,0
 280 484 280 484 223 484 c 128,-1,1
EndSplineSet
EndChar

StartChar: iotatonos
Encoding: 943 943 478
Width: 451
GlyphClass: 2
Flags: W
LayerCount: 2
Fore
SplineSet
223 484 m 128,-1,1
 166 484 166 484 134 519.5 c 128,-1,2
 102 555 102 555 102 604 c 128,-1,3
 102 653 102 653 134 688.5 c 128,-1,4
 166 724 166 724 223 724 c 128,-1,5
 280 724 280 724 312 688.5 c 128,-1,6
 344 653 344 653 344 604 c 128,-1,7
 344 555 344 555 312 519.5 c 128,-1,0
 280 484 280 484 223 484 c 128,-1,1
EndSplineSet
EndChar

StartChar: upsilondieresistonos
Encoding: 944 944 479
Width: 451
GlyphClass: 2
Flags: W
LayerCount: 2
Fore
SplineSet
223 484 m 128,-1,1
 166 484 166 484 134 519.5 c 128,-1,2
 102 555 102 555 102 604 c 128,-1,3
 102 653 102 653 134 688.5 c 128,-1,4
 166 724 166 724 223 724 c 128,-1,5
 280 724 280 724 312 688.5 c 128,-1,6
 344 653 344 653 344 604 c 128,-1,7
 344 555 344 555 312 519.5 c 128,-1,0
 280 484 280 484 223 484 c 128,-1,1
EndSplineSet
EndChar

StartChar: alpha
Encoding: 945 945 480
Width: 451
GlyphClass: 2
Flags: W
LayerCount: 2
Fore
SplineSet
223 484 m 128,-1,1
 166 484 166 484 134 519.5 c 128,-1,2
 102 555 102 555 102 604 c 128,-1,3
 102 653 102 653 134 688.5 c 128,-1,4
 166 724 166 724 223 724 c 128,-1,5
 280 724 280 724 312 688.5 c 128,-1,6
 344 653 344 653 344 604 c 128,-1,7
 344 555 344 555 312 519.5 c 128,-1,0
 280 484 280 484 223 484 c 128,-1,1
EndSplineSet
EndChar

StartChar: beta
Encoding: 946 946 481
Width: 451
GlyphClass: 2
Flags: W
LayerCount: 2
Fore
SplineSet
223 484 m 128,-1,1
 166 484 166 484 134 519.5 c 128,-1,2
 102 555 102 555 102 604 c 128,-1,3
 102 653 102 653 134 688.5 c 128,-1,4
 166 724 166 724 223 724 c 128,-1,5
 280 724 280 724 312 688.5 c 128,-1,6
 344 653 344 653 344 604 c 128,-1,7
 344 555 344 555 312 519.5 c 128,-1,0
 280 484 280 484 223 484 c 128,-1,1
EndSplineSet
EndChar

StartChar: gamma
Encoding: 947 947 482
Width: 451
GlyphClass: 2
Flags: W
LayerCount: 2
Fore
SplineSet
223 484 m 128,-1,1
 166 484 166 484 134 519.5 c 128,-1,2
 102 555 102 555 102 604 c 128,-1,3
 102 653 102 653 134 688.5 c 128,-1,4
 166 724 166 724 223 724 c 128,-1,5
 280 724 280 724 312 688.5 c 128,-1,6
 344 653 344 653 344 604 c 128,-1,7
 344 555 344 555 312 519.5 c 128,-1,0
 280 484 280 484 223 484 c 128,-1,1
EndSplineSet
EndChar

StartChar: delta
Encoding: 948 948 483
Width: 451
GlyphClass: 2
Flags: W
LayerCount: 2
Fore
SplineSet
223 484 m 128,-1,1
 166 484 166 484 134 519.5 c 128,-1,2
 102 555 102 555 102 604 c 128,-1,3
 102 653 102 653 134 688.5 c 128,-1,4
 166 724 166 724 223 724 c 128,-1,5
 280 724 280 724 312 688.5 c 128,-1,6
 344 653 344 653 344 604 c 128,-1,7
 344 555 344 555 312 519.5 c 128,-1,0
 280 484 280 484 223 484 c 128,-1,1
EndSplineSet
EndChar

StartChar: epsilon
Encoding: 949 949 484
Width: 451
GlyphClass: 2
Flags: W
LayerCount: 2
Fore
SplineSet
223 484 m 128,-1,1
 166 484 166 484 134 519.5 c 128,-1,2
 102 555 102 555 102 604 c 128,-1,3
 102 653 102 653 134 688.5 c 128,-1,4
 166 724 166 724 223 724 c 128,-1,5
 280 724 280 724 312 688.5 c 128,-1,6
 344 653 344 653 344 604 c 128,-1,7
 344 555 344 555 312 519.5 c 128,-1,0
 280 484 280 484 223 484 c 128,-1,1
EndSplineSet
EndChar

StartChar: zeta
Encoding: 950 950 485
Width: 451
GlyphClass: 2
Flags: W
LayerCount: 2
Fore
SplineSet
223 484 m 128,-1,1
 166 484 166 484 134 519.5 c 128,-1,2
 102 555 102 555 102 604 c 128,-1,3
 102 653 102 653 134 688.5 c 128,-1,4
 166 724 166 724 223 724 c 128,-1,5
 280 724 280 724 312 688.5 c 128,-1,6
 344 653 344 653 344 604 c 128,-1,7
 344 555 344 555 312 519.5 c 128,-1,0
 280 484 280 484 223 484 c 128,-1,1
EndSplineSet
EndChar

StartChar: eta
Encoding: 951 951 486
Width: 451
GlyphClass: 2
Flags: W
LayerCount: 2
Fore
SplineSet
223 484 m 128,-1,1
 166 484 166 484 134 519.5 c 128,-1,2
 102 555 102 555 102 604 c 128,-1,3
 102 653 102 653 134 688.5 c 128,-1,4
 166 724 166 724 223 724 c 128,-1,5
 280 724 280 724 312 688.5 c 128,-1,6
 344 653 344 653 344 604 c 128,-1,7
 344 555 344 555 312 519.5 c 128,-1,0
 280 484 280 484 223 484 c 128,-1,1
EndSplineSet
EndChar

StartChar: theta
Encoding: 952 952 487
Width: 451
GlyphClass: 2
Flags: W
LayerCount: 2
Fore
SplineSet
223 484 m 128,-1,1
 166 484 166 484 134 519.5 c 128,-1,2
 102 555 102 555 102 604 c 128,-1,3
 102 653 102 653 134 688.5 c 128,-1,4
 166 724 166 724 223 724 c 128,-1,5
 280 724 280 724 312 688.5 c 128,-1,6
 344 653 344 653 344 604 c 128,-1,7
 344 555 344 555 312 519.5 c 128,-1,0
 280 484 280 484 223 484 c 128,-1,1
EndSplineSet
EndChar

StartChar: iota
Encoding: 953 953 488
Width: 451
GlyphClass: 2
Flags: W
LayerCount: 2
Fore
SplineSet
223 484 m 128,-1,1
 166 484 166 484 134 519.5 c 128,-1,2
 102 555 102 555 102 604 c 128,-1,3
 102 653 102 653 134 688.5 c 128,-1,4
 166 724 166 724 223 724 c 128,-1,5
 280 724 280 724 312 688.5 c 128,-1,6
 344 653 344 653 344 604 c 128,-1,7
 344 555 344 555 312 519.5 c 128,-1,0
 280 484 280 484 223 484 c 128,-1,1
EndSplineSet
EndChar

StartChar: kappa
Encoding: 954 954 489
Width: 1047
GlyphClass: 2
Flags: W
LayerCount: 2
Fore
SplineSet
130 0 m 1,0,-1
 130 999 l 1,1,-1
 281 999 l 1,2,-1
 281 520 l 1,3,4
 303 544 303 544 315 557 c 0,5,6
 404 659 404 659 724 998 c 1,7,-1
 917 998 l 1,8,-1
 502 555 l 1,9,-1
 946 0 l 1,10,-1
 757 0 l 1,11,-1
 392 469 l 1,12,-1
 281 373 l 1,13,-1
 281 0 l 1,14,-1
 130 0 l 1,0,-1
EndSplineSet
EndChar

StartChar: lambda
Encoding: 955 955 490
Width: 451
GlyphClass: 2
Flags: W
LayerCount: 2
Fore
SplineSet
223 484 m 128,-1,1
 166 484 166 484 134 519.5 c 128,-1,2
 102 555 102 555 102 604 c 128,-1,3
 102 653 102 653 134 688.5 c 128,-1,4
 166 724 166 724 223 724 c 128,-1,5
 280 724 280 724 312 688.5 c 128,-1,6
 344 653 344 653 344 604 c 128,-1,7
 344 555 344 555 312 519.5 c 128,-1,0
 280 484 280 484 223 484 c 128,-1,1
EndSplineSet
EndChar

StartChar: mu
Encoding: 956 956 491
Width: 451
GlyphClass: 2
Flags: W
LayerCount: 2
Fore
SplineSet
223 484 m 128,-1,1
 166 484 166 484 134 519.5 c 128,-1,2
 102 555 102 555 102 604 c 128,-1,3
 102 653 102 653 134 688.5 c 128,-1,4
 166 724 166 724 223 724 c 128,-1,5
 280 724 280 724 312 688.5 c 128,-1,6
 344 653 344 653 344 604 c 128,-1,7
 344 555 344 555 312 519.5 c 128,-1,0
 280 484 280 484 223 484 c 128,-1,1
EndSplineSet
EndChar

StartChar: nu
Encoding: 957 957 492
Width: 451
GlyphClass: 2
Flags: W
LayerCount: 2
Fore
SplineSet
223 484 m 128,-1,1
 166 484 166 484 134 519.5 c 128,-1,2
 102 555 102 555 102 604 c 128,-1,3
 102 653 102 653 134 688.5 c 128,-1,4
 166 724 166 724 223 724 c 128,-1,5
 280 724 280 724 312 688.5 c 128,-1,6
 344 653 344 653 344 604 c 128,-1,7
 344 555 344 555 312 519.5 c 128,-1,0
 280 484 280 484 223 484 c 128,-1,1
EndSplineSet
EndChar

StartChar: xi
Encoding: 958 958 493
Width: 451
GlyphClass: 2
Flags: W
LayerCount: 2
Fore
SplineSet
223 484 m 128,-1,1
 166 484 166 484 134 519.5 c 128,-1,2
 102 555 102 555 102 604 c 128,-1,3
 102 653 102 653 134 688.5 c 128,-1,4
 166 724 166 724 223 724 c 128,-1,5
 280 724 280 724 312 688.5 c 128,-1,6
 344 653 344 653 344 604 c 128,-1,7
 344 555 344 555 312 519.5 c 128,-1,0
 280 484 280 484 223 484 c 128,-1,1
EndSplineSet
EndChar

StartChar: omicron
Encoding: 959 959 494
Width: 1152
GlyphClass: 2
Flags: W
LayerCount: 2
Fore
SplineSet
575 -21 m 128,-1,1
 364 -21 364 -21 236.5 125 c 128,-1,2
 109 271 109 271 109 499 c 0,3,4
 109 732 109 732 233.5 875.5 c 128,-1,5
 358 1019 358 1019 575 1019 c 128,-1,6
 792 1019 792 1019 916.5 875.5 c 128,-1,7
 1041 732 1041 732 1041 499 c 0,8,9
 1041 271 1041 271 913.5 125 c 128,-1,0
 786 -21 786 -21 575 -21 c 128,-1,1
575 886 m 128,-1,11
 475 886 475 886 408.5 834 c 128,-1,12
 342 782 342 782 313 697 c 128,-1,13
 284 612 284 612 284 497 c 0,14,15
 284 323 284 323 355.5 217.5 c 128,-1,16
 427 112 427 112 575 112 c 128,-1,17
 723 112 723 112 794.5 217.5 c 128,-1,18
 866 323 866 323 866 497 c 0,19,20
 866 612 866 612 837 697 c 128,-1,21
 808 782 808 782 741.5 834 c 128,-1,10
 675 886 675 886 575 886 c 128,-1,11
EndSplineSet
EndChar

StartChar: pi
Encoding: 960 960 495
Width: 1253
GlyphClass: 2
Flags: W
LayerCount: 2
Fore
SplineSet
1014 -7 m 0,0,1
 920 -7 920 -7 883 56.5 c 128,-1,2
 846 120 846 120 846 274 c 2,3,-1
 846 888 l 1,4,-1
 477 888 l 1,5,6
 448 159 448 159 364 0 c 1,7,-1
 229 0 l 1,8,9
 323 202 323 202 340 888 c 1,10,11
 201 884 201 884 118 829 c 1,12,-1
 104 958 l 1,13,14
 142 994 142 994 206 1006.5 c 128,-1,15
 270 1019 270 1019 386 1019 c 2,16,-1
 1138 1019 l 1,17,-1
 1138 888 l 1,18,-1
 972 888 l 1,19,-1
 972 284 l 2,20,21
 972 261 972 261 972.5 246.5 c 128,-1,22
 973 232 973 232 977.5 210.5 c 128,-1,23
 982 189 982 189 990 176 c 128,-1,24
 998 163 998 163 1014 153.5 c 128,-1,25
 1030 144 1030 144 1052 144 c 0,26,27
 1073 144 1073 144 1121 157 c 1,28,-1
 1121 5 l 1,29,30
 1051 -7 1051 -7 1014 -7 c 0,0,1
EndSplineSet
EndChar

StartChar: rho
Encoding: 961 961 496
Width: 1174
GlyphClass: 2
Flags: W
LayerCount: 2
Fore
SplineSet
130 998 m 1,0,-1
 288 998 l 1,1,-1
 305 835 l 1,2,3
 345 922 345 922 431.5 970.5 c 128,-1,4
 518 1019 518 1019 623 1019 c 0,5,6
 828 1019 828 1019 945 874 c 128,-1,7
 1062 729 1062 729 1062 494 c 0,8,9
 1062 269 1062 269 940 124 c 128,-1,10
 818 -21 818 -21 624 -21 c 0,11,12
 526 -21 526 -21 438 22 c 128,-1,13
 350 65 350 65 300 136 c 1,14,15
 305 54 305 54 305 -55 c 2,16,-1
 305 -423 l 1,17,-1
 130 -433 l 1,18,-1
 130 998 l 1,0,-1
596 107 m 0,19,20
 737 107 737 107 812 212 c 128,-1,21
 887 317 887 317 887 500 c 0,22,23
 887 681 887 681 813 785.5 c 128,-1,24
 739 890 739 890 597 890 c 0,25,26
 305 890 305 890 305 516 c 0,27,28
 305 313 305 313 372.5 210 c 128,-1,29
 440 107 440 107 596 107 c 0,19,20
EndSplineSet
EndChar

StartChar: sigma1
Encoding: 962 962 497
Width: 451
GlyphClass: 2
Flags: W
LayerCount: 2
Fore
SplineSet
223 484 m 128,-1,1
 166 484 166 484 134 519.5 c 128,-1,2
 102 555 102 555 102 604 c 128,-1,3
 102 653 102 653 134 688.5 c 128,-1,4
 166 724 166 724 223 724 c 128,-1,5
 280 724 280 724 312 688.5 c 128,-1,6
 344 653 344 653 344 604 c 128,-1,7
 344 555 344 555 312 519.5 c 128,-1,0
 280 484 280 484 223 484 c 128,-1,1
EndSplineSet
EndChar

StartChar: sigma
Encoding: 963 963 498
Width: 451
GlyphClass: 2
Flags: W
LayerCount: 2
Fore
SplineSet
223 484 m 128,-1,1
 166 484 166 484 134 519.5 c 128,-1,2
 102 555 102 555 102 604 c 128,-1,3
 102 653 102 653 134 688.5 c 128,-1,4
 166 724 166 724 223 724 c 128,-1,5
 280 724 280 724 312 688.5 c 128,-1,6
 344 653 344 653 344 604 c 128,-1,7
 344 555 344 555 312 519.5 c 128,-1,0
 280 484 280 484 223 484 c 128,-1,1
EndSplineSet
EndChar

StartChar: tau
Encoding: 964 964 499
Width: 451
GlyphClass: 2
Flags: W
LayerCount: 2
Fore
SplineSet
223 484 m 128,-1,1
 166 484 166 484 134 519.5 c 128,-1,2
 102 555 102 555 102 604 c 128,-1,3
 102 653 102 653 134 688.5 c 128,-1,4
 166 724 166 724 223 724 c 128,-1,5
 280 724 280 724 312 688.5 c 128,-1,6
 344 653 344 653 344 604 c 128,-1,7
 344 555 344 555 312 519.5 c 128,-1,0
 280 484 280 484 223 484 c 128,-1,1
EndSplineSet
EndChar

StartChar: upsilon
Encoding: 965 965 500
Width: 451
GlyphClass: 2
Flags: W
LayerCount: 2
Fore
SplineSet
223 484 m 128,-1,1
 166 484 166 484 134 519.5 c 128,-1,2
 102 555 102 555 102 604 c 128,-1,3
 102 653 102 653 134 688.5 c 128,-1,4
 166 724 166 724 223 724 c 128,-1,5
 280 724 280 724 312 688.5 c 128,-1,6
 344 653 344 653 344 604 c 128,-1,7
 344 555 344 555 312 519.5 c 128,-1,0
 280 484 280 484 223 484 c 128,-1,1
EndSplineSet
EndChar

StartChar: phi
Encoding: 966 966 501
Width: 451
GlyphClass: 2
Flags: W
LayerCount: 2
Fore
SplineSet
223 484 m 128,-1,1
 166 484 166 484 134 519.5 c 128,-1,2
 102 555 102 555 102 604 c 128,-1,3
 102 653 102 653 134 688.5 c 128,-1,4
 166 724 166 724 223 724 c 128,-1,5
 280 724 280 724 312 688.5 c 128,-1,6
 344 653 344 653 344 604 c 128,-1,7
 344 555 344 555 312 519.5 c 128,-1,0
 280 484 280 484 223 484 c 128,-1,1
EndSplineSet
EndChar

StartChar: chi
Encoding: 967 967 502
Width: 1147
GlyphClass: 2
Flags: W
LayerCount: 2
Fore
SplineSet
572 623 m 1,0,-1
 840 998 l 1,1,-1
 1032 998 l 1,2,-1
 671 506 l 1,3,-1
 1041 0 l 1,4,-1
 854 0 l 1,5,-1
 573 396 l 1,6,-1
 292 0 l 1,7,-1
 108 0 l 1,8,-1
 474 508 l 1,9,-1
 122 998 l 1,10,-1
 306 998 l 1,11,-1
 572 623 l 1,0,-1
EndSplineSet
EndChar

StartChar: psi
Encoding: 968 968 503
Width: 451
GlyphClass: 2
Flags: W
LayerCount: 2
Fore
SplineSet
223 484 m 128,-1,1
 166 484 166 484 134 519.5 c 128,-1,2
 102 555 102 555 102 604 c 128,-1,3
 102 653 102 653 134 688.5 c 128,-1,4
 166 724 166 724 223 724 c 128,-1,5
 280 724 280 724 312 688.5 c 128,-1,6
 344 653 344 653 344 604 c 128,-1,7
 344 555 344 555 312 519.5 c 128,-1,0
 280 484 280 484 223 484 c 128,-1,1
EndSplineSet
EndChar

StartChar: omega
Encoding: 969 969 504
Width: 451
GlyphClass: 2
Flags: W
LayerCount: 2
Fore
SplineSet
223 484 m 128,-1,1
 166 484 166 484 134 519.5 c 128,-1,2
 102 555 102 555 102 604 c 128,-1,3
 102 653 102 653 134 688.5 c 128,-1,4
 166 724 166 724 223 724 c 128,-1,5
 280 724 280 724 312 688.5 c 128,-1,6
 344 653 344 653 344 604 c 128,-1,7
 344 555 344 555 312 519.5 c 128,-1,0
 280 484 280 484 223 484 c 128,-1,1
EndSplineSet
EndChar

StartChar: iotadieresis
Encoding: 970 970 505
Width: 697
GlyphClass: 2
Flags: W
LayerCount: 2
Fore
SplineSet
394 484 m 128,-1,1
 337 484 337 484 305 519.5 c 128,-1,2
 273 555 273 555 273 604 c 128,-1,3
 273 653 273 653 305 688.5 c 128,-1,4
 337 724 337 724 394 724 c 128,-1,5
 451 724 451 724 483 688.5 c 128,-1,6
 515 653 515 653 515 604 c 128,-1,7
 515 555 515 555 483 519.5 c 128,-1,0
 451 484 451 484 394 484 c 128,-1,1
235 1334 m 1,8,-1
 235 1141 l 1,9,-1
 95 1141 l 1,10,-1
 95 1334 l 1,11,-1
 235 1334 l 1,8,-1
590 1334 m 1,12,-1
 590 1141 l 1,13,-1
 450 1141 l 1,14,-1
 450 1334 l 1,15,-1
 590 1334 l 1,12,-1
EndSplineSet
EndChar

StartChar: upsilondieresis
Encoding: 971 971 506
Width: 451
GlyphClass: 2
Flags: W
LayerCount: 2
Fore
SplineSet
223 484 m 128,-1,1
 166 484 166 484 134 519.5 c 128,-1,2
 102 555 102 555 102 604 c 128,-1,3
 102 653 102 653 134 688.5 c 128,-1,4
 166 724 166 724 223 724 c 128,-1,5
 280 724 280 724 312 688.5 c 128,-1,6
 344 653 344 653 344 604 c 128,-1,7
 344 555 344 555 312 519.5 c 128,-1,0
 280 484 280 484 223 484 c 128,-1,1
EndSplineSet
EndChar

StartChar: omicrontonos
Encoding: 972 972 507
Width: 451
GlyphClass: 2
Flags: W
LayerCount: 2
Fore
SplineSet
223 484 m 128,-1,1
 166 484 166 484 134 519.5 c 128,-1,2
 102 555 102 555 102 604 c 128,-1,3
 102 653 102 653 134 688.5 c 128,-1,4
 166 724 166 724 223 724 c 128,-1,5
 280 724 280 724 312 688.5 c 128,-1,6
 344 653 344 653 344 604 c 128,-1,7
 344 555 344 555 312 519.5 c 128,-1,0
 280 484 280 484 223 484 c 128,-1,1
EndSplineSet
EndChar

StartChar: upsilontonos
Encoding: 973 973 508
Width: 451
GlyphClass: 2
Flags: W
LayerCount: 2
Fore
SplineSet
223 484 m 128,-1,1
 166 484 166 484 134 519.5 c 128,-1,2
 102 555 102 555 102 604 c 128,-1,3
 102 653 102 653 134 688.5 c 128,-1,4
 166 724 166 724 223 724 c 128,-1,5
 280 724 280 724 312 688.5 c 128,-1,6
 344 653 344 653 344 604 c 128,-1,7
 344 555 344 555 312 519.5 c 128,-1,0
 280 484 280 484 223 484 c 128,-1,1
EndSplineSet
EndChar

StartChar: omegatonos
Encoding: 974 974 509
Width: 451
GlyphClass: 2
Flags: W
LayerCount: 2
Fore
SplineSet
223 484 m 128,-1,1
 166 484 166 484 134 519.5 c 128,-1,2
 102 555 102 555 102 604 c 128,-1,3
 102 653 102 653 134 688.5 c 128,-1,4
 166 724 166 724 223 724 c 128,-1,5
 280 724 280 724 312 688.5 c 128,-1,6
 344 653 344 653 344 604 c 128,-1,7
 344 555 344 555 312 519.5 c 128,-1,0
 280 484 280 484 223 484 c 128,-1,1
EndSplineSet
EndChar

StartChar: afii10051
Encoding: 1026 1026 512
Width: 1088
GlyphClass: 2
Flags: W
LayerCount: 2
Fore
SplineSet
39 1390 m 1,0,-1
 1049 1390 l 1,1,-1
 1049 1251 l 1,2,-1
 633 1251 l 1,3,-1
 633 0 l 1,4,-1
 454 0 l 1,5,-1
 454 1251 l 1,6,-1
 39 1251 l 1,7,-1
 39 1390 l 1,0,-1
EndSplineSet
EndChar

StartChar: afii10053
Encoding: 1028 1028 514
Width: 1268
GlyphClass: 2
Flags: W
LayerCount: 2
Fore
SplineSet
754 -21 m 0,0,1
 600 -21 600 -21 477.5 33 c 128,-1,2
 355 87 355 87 276 183 c 128,-1,3
 197 279 197 279 155.5 408 c 128,-1,4
 114 537 114 537 114 689 c 0,5,6
 114 835 114 835 155.5 961 c 128,-1,7
 197 1087 197 1087 276 1182.5 c 128,-1,8
 355 1278 355 1278 479.5 1333 c 128,-1,9
 604 1388 604 1388 760 1388 c 0,10,11
 1024 1388 1024 1388 1158 1269 c 1,12,-1
 1105 1138 l 1,13,14
 1044 1186 1044 1186 957 1217.5 c 128,-1,15
 870 1249 870 1249 773 1249 c 0,16,17
 675 1249 675 1249 595.5 1222 c 128,-1,18
 516 1195 516 1195 462 1148.5 c 128,-1,19
 408 1102 408 1102 369.5 1037 c 128,-1,20
 331 972 331 972 312 899.5 c 128,-1,21
 293 827 293 827 288 744 c 1,22,-1
 916 744 l 1,23,-1
 916 604 l 1,24,-1
 289 604 l 1,25,26
 299 502 299 502 333.5 414.5 c 128,-1,27
 368 327 368 327 426 260 c 128,-1,28
 484 193 484 193 570.5 155 c 128,-1,29
 657 117 657 117 763 117 c 0,30,31
 862 117 862 117 952 148 c 128,-1,32
 1042 179 1042 179 1104 226 c 1,33,-1
 1162 103 l 1,34,35
 1009 -21 1009 -21 754 -21 c 0,0,1
EndSplineSet
EndChar

StartChar: afii10054
Encoding: 1029 1029 515
Width: 1200
GlyphClass: 2
Flags: W
LayerCount: 2
Fore
SplineSet
607 -20 m 0,0,1
 445 -20 445 -20 319 13 c 128,-1,2
 193 46 193 46 119 91 c 1,3,-1
 167 222 l 1,4,5
 378 118 378 118 617 118 c 0,6,7
 915 118 915 118 915 388 c 0,8,9
 915 475 915 475 867 528.5 c 128,-1,10
 819 582 819 582 695 614 c 2,11,-1
 428 682 l 1,12,13
 121 759 121 759 121 1009 c 0,14,15
 121 1106 121 1106 156 1176 c 128,-1,16
 191 1246 191 1246 258.5 1287 c 128,-1,17
 326 1328 326 1328 414 1347 c 128,-1,18
 502 1366 502 1366 618 1366 c 0,19,20
 884 1366 884 1366 1025 1278 c 1,21,-1
 979 1155 l 1,22,23
 828 1228 828 1228 623 1228 c 0,24,25
 454 1228 454 1228 371 1179.5 c 128,-1,26
 288 1131 288 1131 288 1020 c 0,27,28
 288 942 288 942 337 895.5 c 128,-1,29
 386 849 386 849 487 824 c 2,30,-1
 743 763 l 2,31,32
 908 723 908 723 995 637 c 128,-1,33
 1082 551 1082 551 1082 393 c 0,34,35
 1082 188 1082 188 953.5 84 c 128,-1,36
 825 -20 825 -20 607 -20 c 0,0,1
EndSplineSet
EndChar

StartChar: afii10055
Encoding: 1030 1030 516
Width: 432
GlyphClass: 2
Flags: W
LayerCount: 2
Fore
SplineSet
136 0 m 1,0,-1
 136 1362 l 1,1,-1
 297 1362 l 1,2,-1
 297 0 l 1,3,-1
 136 0 l 1,0,-1
EndSplineSet
EndChar

StartChar: afii10057
Encoding: 1032 1032 518
Width: 632
GlyphClass: 2
Flags: W
LayerCount: 2
Fore
SplineSet
100 -195 m 1,0,-1
 81 -45 l 1,1,-1
 148 -45 l 2,2,3
 197 -45 197 -45 230 -33 c 128,-1,4
 263 -21 263 -21 281.5 -3.5 c 128,-1,5
 300 14 300 14 309.5 47 c 128,-1,6
 319 80 319 80 321 109 c 128,-1,7
 323 138 323 138 323 186 c 2,8,-1
 323 1346 l 1,9,-1
 498 1346 l 1,10,-1
 498 219 l 2,11,12
 498 143 498 143 493 90.5 c 128,-1,13
 488 38 488 38 474 -12 c 128,-1,14
 460 -62 460 -62 435 -93.5 c 128,-1,15
 410 -125 410 -125 369.5 -149.5 c 128,-1,16
 329 -174 329 -174 270.5 -184.5 c 128,-1,17
 212 -195 212 -195 132 -195 c 2,18,-1
 100 -195 l 1,0,-1
EndSplineSet
EndChar

StartChar: afii10058
Encoding: 1033 1033 519
Width: 1755
GlyphClass: 2
Flags: W
LayerCount: 2
Fore
SplineSet
78 -24 m 1,0,-1
 78 119 l 1,1,-1
 120 119 l 2,2,3
 168 119 168 119 201 131 c 128,-1,4
 234 143 234 143 252.5 160.5 c 128,-1,5
 271 178 271 178 280.5 211 c 128,-1,6
 290 244 290 244 292 272.5 c 128,-1,7
 294 301 294 301 294 349 c 2,8,-1
 294 1346 l 1,9,-1
 992 1346 l 1,10,-1
 992 793 l 1,11,-1
 1227 793 l 2,12,13
 1425 793 1425 793 1539 694.5 c 128,-1,14
 1653 596 1653 596 1653 389 c 0,15,16
 1653 197 1653 197 1539.5 98.5 c 128,-1,17
 1426 0 1426 0 1227 0 c 2,18,-1
 818 0 l 1,19,-1
 818 1205 l 1,20,-1
 468 1205 l 1,21,-1
 468 394 l 2,22,23
 468 302 468 302 461 242 c 128,-1,24
 454 182 454 182 432 127 c 128,-1,25
 410 72 410 72 370 41.5 c 128,-1,26
 330 11 330 11 264.5 -6.5 c 128,-1,27
 199 -24 199 -24 104 -24 c 2,28,-1
 78 -24 l 1,0,-1
992 652 m 1,29,-1
 992 141 l 1,30,-1
 1227 141 l 2,31,32
 1341 141 1341 141 1410 207.5 c 128,-1,33
 1479 274 1479 274 1479 392 c 0,34,35
 1479 512 1479 512 1411 582 c 128,-1,36
 1343 652 1343 652 1227 652 c 2,37,-1
 992 652 l 1,29,-1
EndSplineSet
EndChar

StartChar: afii10059
Encoding: 1034 1034 520
Width: 1853
GlyphClass: 2
Flags: W
LayerCount: 2
Fore
SplineSet
1335 653 m 2,0,-1
 1120 653 l 1,1,-1
 1120 129 l 1,2,-1
 1343 129 l 2,3,4
 1627 129 1627 129 1627 392 c 0,5,6
 1627 526 1627 526 1554 589.5 c 128,-1,7
 1481 653 1481 653 1335 653 c 2,0,-1
334 630 m 1,8,-1
 334 0 l 1,9,-1
 160 0 l 1,10,-1
 160 1346 l 1,11,-1
 334 1346 l 1,12,-1
 334 768 l 1,13,-1
 946 768 l 1,14,-1
 946 1346 l 1,15,-1
 1120 1346 l 1,16,-1
 1120 779 l 1,17,-1
 1340 779 l 2,18,19
 1792 779 1792 779 1792 393 c 0,20,21
 1792 0 1792 0 1334 0 c 2,22,-1
 946 0 l 1,23,-1
 946 630 l 1,24,-1
 334 630 l 1,8,-1
EndSplineSet
EndChar

StartChar: afii10060
Encoding: 1035 1035 521
Width: 1088
GlyphClass: 2
Flags: W
LayerCount: 2
Fore
SplineSet
39 1390 m 1,0,-1
 1049 1390 l 1,1,-1
 1049 1251 l 1,2,-1
 633 1251 l 1,3,-1
 633 0 l 1,4,-1
 454 0 l 1,5,-1
 454 1251 l 1,6,-1
 39 1251 l 1,7,-1
 39 1390 l 1,0,-1
EndSplineSet
EndChar

StartChar: afii10145
Encoding: 1039 1039 525
Width: 1327
GlyphClass: 2
Flags: W
LayerCount: 2
Fore
SplineSet
760 0 m 1,0,-1
 760 -275 l 1,1,-1
 601 -275 l 1,2,-1
 601 0 l 1,3,-1
 160 0 l 1,4,-1
 160 1346 l 1,5,-1
 334 1346 l 1,6,-1
 334 138 l 1,7,-1
 993 138 l 1,8,-1
 993 1346 l 1,9,-1
 1167 1346 l 1,10,-1
 1167 0 l 1,11,-1
 760 0 l 1,0,-1
EndSplineSet
EndChar

StartChar: afii10017
Encoding: 1040 1040 526
Width: 1224
GlyphClass: 2
Flags: W
LayerCount: 2
Fore
SplineSet
641 1223 m 1,0,-1
 426 561 l 1,1,-1
 870 561 l 1,2,-1
 641 1223 l 1,0,-1
215 0 m 1,3,-1
 37 0 l 1,4,-1
 541 1390 l 1,5,-1
 743 1390 l 1,6,-1
 1246 0 l 1,7,-1
 1078 0 l 1,8,-1
 919 430 l 1,9,-1
 375 430 l 1,10,-1
 215 0 l 1,3,-1
EndSplineSet
EndChar

StartChar: afii10018
Encoding: 1041 1041 527
Width: 1174
GlyphClass: 2
Flags: W
LayerCount: 2
Fore
SplineSet
334 653 m 1,0,-1
 334 129 l 1,1,-1
 639 129 l 2,2,3
 779 129 779 129 846.5 193 c 128,-1,4
 914 257 914 257 914 392 c 128,-1,5
 914 527 914 527 845 590 c 128,-1,6
 776 653 776 653 631 653 c 2,7,-1
 334 653 l 1,0,-1
1088 393 m 0,8,9
 1088 0 1088 0 630 0 c 2,10,-1
 160 0 l 1,11,-1
 160 1346 l 1,12,-1
 974 1346 l 1,13,-1
 974 1213 l 1,14,-1
 334 1213 l 1,15,-1
 334 779 l 1,16,-1
 636 779 l 2,17,18
 1088 779 1088 779 1088 393 c 0,8,9
EndSplineSet
EndChar

StartChar: afii10019
Encoding: 1042 1042 528
Width: 1194
GlyphClass: 2
Flags: W
LayerCount: 2
Fore
SplineSet
657 0 m 2,0,-1
 178 0 l 1,1,-1
 178 1390 l 1,2,-1
 571 1390 l 2,3,4
 835 1390 835 1390 963 1309.5 c 128,-1,5
 1091 1229 1091 1229 1091 1055 c 0,6,7
 1091 1029 1091 1029 1088 1003 c 128,-1,8
 1085 977 1085 977 1071 936 c 128,-1,9
 1057 895 1057 895 1034 861.5 c 128,-1,10
 1011 828 1011 828 966 795 c 128,-1,11
 921 762 921 762 861 743 c 1,12,13
 999 718 999 718 1070.5 628.5 c 128,-1,14
 1142 539 1142 539 1142 413 c 0,15,16
 1142 227 1142 227 1018 113.5 c 128,-1,17
 894 0 894 0 657 0 c 2,0,-1
339 671 m 1,18,-1
 339 129 l 1,19,-1
 625 129 l 2,20,21
 796 129 796 129 885 205.5 c 128,-1,22
 974 282 974 282 974 419 c 0,23,24
 974 558 974 558 880 614.5 c 128,-1,25
 786 671 786 671 587 671 c 2,26,-1
 339 671 l 1,18,-1
339 1257 m 1,27,-1
 339 797 l 1,28,-1
 632 797 l 2,29,30
 773 797 773 797 848 850.5 c 128,-1,31
 923 904 923 904 923 1031 c 128,-1,32
 923 1158 923 1158 835 1207.5 c 128,-1,33
 747 1257 747 1257 563 1257 c 2,34,-1
 339 1257 l 1,27,-1
EndSplineSet
EndChar

StartChar: afii10020
Encoding: 1043 1043 529
Width: 1047
GlyphClass: 2
Flags: W
LayerCount: 2
Fore
SplineSet
995 1205 m 1,0,-1
 334 1205 l 1,1,-1
 334 0 l 1,2,-1
 160 0 l 1,3,-1
 160 1346 l 1,4,-1
 1008 1346 l 1,5,-1
 995 1205 l 1,0,-1
EndSplineSet
EndChar

StartChar: afii10021
Encoding: 1044 1044 530
Width: 1368
GlyphClass: 2
Flags: W
LayerCount: 2
Fore
SplineSet
482 1205 m 1,0,-1
 482 1202 l 1,1,2
 457 957 457 957 456 938 c 0,3,4
 411 486 411 486 390 364 c 0,5,6
 363 211 363 211 317 138 c 1,7,-1
 978 138 l 1,8,-1
 978 1205 l 1,9,-1
 482 1205 l 1,0,-1
126 -275 m 1,10,-1
 -38 -275 l 1,11,-1
 -38 138 l 1,12,-1
 112 138 l 1,13,14
 156 169 156 169 183 253.5 c 128,-1,15
 210 338 210 338 232 500 c 128,-1,16
 254 662 254 662 289 1019 c 0,17,18
 312 1252 312 1252 321 1346 c 1,19,-1
 1152 1346 l 1,20,-1
 1152 138 l 1,21,-1
 1306 138 l 1,22,-1
 1306 -275 l 1,23,-1
 1145 -275 l 1,24,-1
 1145 0 l 1,25,-1
 126 0 l 1,26,-1
 126 -275 l 1,10,-1
EndSplineSet
EndChar

StartChar: afii10022
Encoding: 1045 1045 531
Width: 1067
GlyphClass: 2
Flags: W
LayerCount: 2
Fore
SplineSet
989 1251 m 1,0,-1
 356 1251 l 1,1,-1
 356 799 l 1,2,-1
 936 799 l 1,3,-1
 936 662 l 1,4,-1
 356 662 l 1,5,-1
 356 139 l 1,6,-1
 996 139 l 1,7,-1
 988 0 l 1,8,-1
 178 0 l 1,9,-1
 178 1390 l 1,10,-1
 996 1390 l 1,11,-1
 989 1251 l 1,0,-1
EndSplineSet
EndChar

StartChar: afii10024
Encoding: 1046 1046 532
Width: 1851
GlyphClass: 2
Flags: W
LayerCount: 2
Fore
SplineSet
832 0 m 1,0,-1
 832 599 l 1,1,-1
 304 0 l 1,2,-1
 95 0 l 1,3,-1
 692 668 l 1,4,-1
 166 1346 l 1,5,-1
 362 1346 l 1,6,-1
 832 735 l 1,7,-1
 832 1346 l 1,8,-1
 1006 1346 l 1,9,-1
 1006 733 l 1,10,-1
 1477 1346 l 1,11,-1
 1673 1346 l 1,12,-1
 1147 668 l 1,13,-1
 1744 0 l 1,14,-1
 1535 0 l 1,15,-1
 1006 600 l 1,16,-1
 1006 0 l 1,17,-1
 832 0 l 1,0,-1
EndSplineSet
EndChar

StartChar: afii10025
Encoding: 1047 1047 533
Width: 1111
GlyphClass: 2
Flags: W
LayerCount: 2
Fore
SplineSet
991 363 m 0,0,1
 991 189 991 189 873 85.5 c 128,-1,2
 755 -18 755 -18 540 -18 c 0,3,4
 415 -18 415 -18 306.5 13.5 c 128,-1,5
 198 45 198 45 127 95 c 1,6,-1
 183 223 l 1,7,8
 241 182 241 182 337 151 c 128,-1,9
 433 120 433 120 527 120 c 0,10,11
 657 120 657 120 737 185.5 c 128,-1,12
 817 251 817 251 817 377 c 0,13,14
 817 478 817 478 745.5 552.5 c 128,-1,15
 674 627 674 627 550 627 c 2,16,-1
 425 627 l 1,17,-1
 425 770 l 1,18,-1
 545 770 l 2,19,20
 662 770 662 770 723.5 840.5 c 128,-1,21
 785 911 785 911 785 999 c 0,22,23
 785 1113 785 1113 719 1170.5 c 128,-1,24
 653 1228 653 1228 546 1228 c 0,25,26
 463 1228 463 1228 375.5 1202 c 128,-1,27
 288 1176 288 1176 218 1134 c 1,28,-1
 159 1259 l 1,29,30
 250 1313 250 1313 339 1339.5 c 128,-1,31
 428 1366 428 1366 556 1366 c 0,32,33
 645 1366 645 1366 716 1344.5 c 128,-1,34
 787 1323 787 1323 831.5 1288.5 c 128,-1,35
 876 1254 876 1254 905.5 1208 c 128,-1,36
 935 1162 935 1162 947 1117 c 128,-1,37
 959 1072 959 1072 959 1026 c 0,38,39
 959 907 959 907 895 823 c 128,-1,40
 831 739 831 739 719 706 c 1,41,42
 769 695 769 695 814 670.5 c 128,-1,43
 859 646 859 646 900.5 606 c 128,-1,44
 942 566 942 566 966.5 503 c 128,-1,45
 991 440 991 440 991 363 c 0,0,1
EndSplineSet
EndChar

StartChar: afii10026
Encoding: 1048 1048 534
Width: 1426
GlyphClass: 2
Flags: W
LayerCount: 2
Fore
SplineSet
308 219 m 1,0,1
 456 436 456 436 731.5 830.5 c 128,-1,2
 1007 1225 1007 1225 1091 1346 c 1,3,-1
 1267 1346 l 1,4,-1
 1267 0 l 1,5,-1
 1114 0 l 1,6,-1
 1114 786 l 1,7,-1
 1119 1127 l 1,8,9
 973 911 973 911 701 521 c 128,-1,10
 429 131 429 131 339 0 c 1,11,-1
 160 0 l 1,12,-1
 160 1346 l 1,13,-1
 313 1346 l 1,14,-1
 313 555 l 1,15,-1
 308 219 l 1,0,1
EndSplineSet
EndChar

StartChar: afii10028
Encoding: 1050 1050 536
Width: 1243
GlyphClass: 2
Flags: W
LayerCount: 2
Fore
SplineSet
334 0 m 1,0,-1
 160 0 l 1,1,-1
 160 1346 l 1,2,-1
 334 1346 l 1,3,-1
 334 739 l 1,4,-1
 881 1346 l 1,5,-1
 1101 1346 l 1,6,-1
 496 672 l 1,7,-1
 1130 0 l 1,8,-1
 895 0 l 1,9,-1
 334 607 l 1,10,-1
 334 0 l 1,0,-1
EndSplineSet
EndChar

StartChar: afii10029
Encoding: 1051 1051 537
Width: 1248
GlyphClass: 2
Flags: W
LayerCount: 2
Fore
SplineSet
914 0 m 1,0,-1
 914 1205 l 1,1,-1
 391 1205 l 1,2,3
 390 1175 390 1175 384.5 1069 c 128,-1,4
 379 963 379 963 378 939 c 0,5,6
 369 756 369 756 363.5 661.5 c 128,-1,7
 358 567 358 567 346.5 448 c 128,-1,8
 335 329 335 329 324 276.5 c 128,-1,9
 313 224 313 224 291 156.5 c 128,-1,10
 269 89 269 89 243.5 64.5 c 128,-1,11
 218 40 218 40 176.5 10.5 c 128,-1,12
 135 -19 135 -19 87 -29 c 128,-1,13
 39 -39 39 -39 -30 -46 c 1,14,-1
 -60 91 l 1,15,16
 -49 94 -49 94 -28 99 c 0,17,18
 6 107 6 107 20.5 111 c 128,-1,19
 35 115 35 115 59 127.5 c 128,-1,20
 83 140 83 140 92 150.5 c 128,-1,21
 101 161 101 161 117 190 c 128,-1,22
 133 219 133 219 138.5 247 c 128,-1,23
 144 275 144 275 155 330.5 c 128,-1,24
 166 386 166 386 170 442.5 c 128,-1,25
 174 499 174 499 182 592.5 c 128,-1,26
 190 686 190 686 195 781.5 c 128,-1,27
 200 877 200 877 207 1019 c 0,28,29
 218 1220 218 1220 224 1346 c 1,30,-1
 1088 1346 l 1,31,-1
 1088 0 l 1,32,-1
 914 0 l 1,0,-1
EndSplineSet
EndChar

StartChar: afii10030
Encoding: 1052 1052 538
Width: 1648
GlyphClass: 2
Flags: W
LayerCount: 2
Fore
SplineSet
832 305 m 1,0,-1
 1278 1390 l 1,1,-1
 1485 1390 l 1,2,-1
 1485 0 l 1,3,-1
 1330 0 l 1,4,-1
 1330 843 l 1,5,-1
 1337 1163 l 1,6,-1
 911 108 l 1,7,-1
 753 108 l 1,8,-1
 322 1167 l 1,9,-1
 333 839 l 1,10,-1
 333 0 l 1,11,-1
 178 0 l 1,12,-1
 178 1390 l 1,13,-1
 391 1390 l 1,14,-1
 832 305 l 1,0,-1
EndSplineSet
EndChar

StartChar: afii10031
Encoding: 1053 1053 539
Width: 1435
GlyphClass: 2
Flags: W
LayerCount: 2
Fore
SplineSet
356 766 m 1,0,-1
 1079 766 l 1,1,-1
 1079 1390 l 1,2,-1
 1257 1390 l 1,3,-1
 1257 0 l 1,4,-1
 1079 0 l 1,5,-1
 1079 634 l 1,6,-1
 356 634 l 1,7,-1
 356 0 l 1,8,-1
 178 0 l 1,9,-1
 178 1390 l 1,10,-1
 356 1390 l 1,11,-1
 356 766 l 1,0,-1
EndSplineSet
EndChar

StartChar: afii10032
Encoding: 1054 1054 540
Width: 1507
GlyphClass: 2
Flags: W
LayerCount: 2
Fore
SplineSet
758 1413 m 0,0,1
 959 1413 959 1413 1107.5 1322.5 c 128,-1,2
 1256 1232 1256 1232 1333 1070.5 c 128,-1,3
 1410 909 1410 909 1410 697 c 0,4,5
 1410 490 1410 490 1335 330 c 128,-1,6
 1260 170 1260 170 1110.5 76 c 128,-1,7
 961 -18 961 -18 757 -18 c 0,8,9
 601 -18 601 -18 476.5 35 c 128,-1,10
 352 88 352 88 270.5 183.5 c 128,-1,11
 189 279 189 279 146 410 c 128,-1,12
 103 541 103 541 103 698 c 0,13,14
 103 912 103 912 179 1072.5 c 128,-1,15
 255 1233 255 1233 404 1323 c 128,-1,16
 553 1413 553 1413 758 1413 c 0,0,1
282 697 m 0,17,18
 282 600 282 600 300 514.5 c 128,-1,19
 318 429 318 429 356 356.5 c 128,-1,20
 394 284 394 284 449.5 231.5 c 128,-1,21
 505 179 505 179 583.5 149.5 c 128,-1,22
 662 120 662 120 757 120 c 0,23,24
 875 120 875 120 967 165 c 128,-1,25
 1059 210 1059 210 1116 289.5 c 128,-1,26
 1173 369 1173 369 1202 472.5 c 128,-1,27
 1231 576 1231 576 1231 697 c 0,28,29
 1231 865 1231 865 1180 993.5 c 128,-1,30
 1129 1122 1129 1122 1020.5 1198.5 c 128,-1,31
 912 1275 912 1275 758 1275 c 0,32,33
 642 1275 642 1275 550.5 1231.5 c 128,-1,34
 459 1188 459 1188 400.5 1110 c 128,-1,35
 342 1032 342 1032 312 927 c 128,-1,36
 282 822 282 822 282 697 c 0,17,18
EndSplineSet
EndChar

StartChar: afii10033
Encoding: 1055 1055 541
Width: 1368
GlyphClass: 2
Flags: W
LayerCount: 2
Fore
SplineSet
334 1208 m 1,0,-1
 334 0 l 1,1,-1
 160 0 l 1,2,-1
 160 1346 l 1,3,-1
 1208 1346 l 1,4,-1
 1208 0 l 1,5,-1
 1034 0 l 1,6,-1
 1034 1208 l 1,7,-1
 334 1208 l 1,0,-1
EndSplineSet
EndChar

StartChar: afii10034
Encoding: 1056 1056 542
Width: 1166
GlyphClass: 2
Flags: W
LayerCount: 2
Fore
SplineSet
178 0 m 1,0,-1
 178 1390 l 1,1,-1
 628 1390 l 2,2,3
 833 1390 833 1390 959.5 1295.5 c 128,-1,4
 1086 1201 1086 1201 1086 1023 c 0,5,6
 1086 613 1086 613 607 613 c 0,7,8
 410 613 410 613 357 616 c 1,9,-1
 357 0 l 1,10,-1
 178 0 l 1,0,-1
615 744 m 0,11,12
 777 744 777 744 842 811.5 c 128,-1,13
 907 879 907 879 907 1020 c 0,14,15
 907 1138 907 1138 832 1195.5 c 128,-1,16
 757 1253 757 1253 624 1253 c 2,17,-1
 357 1253 l 1,18,-1
 357 746 l 1,19,20
 552 744 552 744 615 744 c 0,11,12
EndSplineSet
EndChar

StartChar: afii10035
Encoding: 1057 1057 543
Width: 1183
GlyphClass: 2
Flags: W
LayerCount: 2
Fore
SplineSet
1131 68 m 1,0,1
 1076 34 1076 34 969 8 c 128,-1,2
 862 -18 862 -18 743 -18 c 1,3,4
 550 -15 550 -15 403.5 84 c 128,-1,5
 257 183 257 183 180 350 c 128,-1,6
 103 517 103 517 103 725 c 0,7,8
 103 928 103 928 181 1083 c 128,-1,9
 259 1238 259 1238 409 1325.5 c 128,-1,10
 559 1413 559 1413 761 1413 c 0,11,12
 993 1413 993 1413 1151 1313 c 1,13,-1
 1097 1189 l 1,14,15
 952 1275 952 1275 763 1275 c 0,16,17
 532 1275 532 1275 403.5 1120.5 c 128,-1,18
 275 966 275 966 275 719 c 0,19,20
 275 623 275 623 294.5 535 c 128,-1,21
 314 447 314 447 355 371 c 128,-1,22
 396 295 396 295 455 239.5 c 128,-1,23
 514 184 514 184 597 152 c 128,-1,24
 680 120 680 120 779 120 c 0,25,26
 945 120 945 120 1105 196 c 1,27,-1
 1131 68 l 1,0,1
EndSplineSet
EndChar

StartChar: afii10036
Encoding: 1058 1058 544
Width: 1088
GlyphClass: 2
Flags: W
LayerCount: 2
Fore
SplineSet
39 1390 m 1,0,-1
 1049 1390 l 1,1,-1
 1049 1251 l 1,2,-1
 633 1251 l 1,3,-1
 633 0 l 1,4,-1
 454 0 l 1,5,-1
 454 1251 l 1,6,-1
 39 1251 l 1,7,-1
 39 1390 l 1,0,-1
EndSplineSet
EndChar

StartChar: afii10037
Encoding: 1059 1059 545
Width: 1248
GlyphClass: 2
Flags: W
LayerCount: 2
Fore
SplineSet
255 1346 m 1,0,-1
 670 580 l 1,1,-1
 1029 1346 l 1,2,-1
 1217 1346 l 1,3,-1
 577 0 l 1,4,-1
 390 0 l 1,5,-1
 567 424 l 1,6,-1
 64 1346 l 1,7,-1
 255 1346 l 1,0,-1
EndSplineSet
EndChar

StartChar: afii10038
Encoding: 1060 1060 546
Width: 1566
GlyphClass: 2
Flags: W
LayerCount: 2
Fore
SplineSet
850 0 m 1,0,-1
 702 0 l 1,1,-1
 702 116 l 1,2,3
 408 141 408 141 248.5 288.5 c 128,-1,4
 89 436 89 436 89 678 c 128,-1,5
 89 920 89 920 248.5 1067 c 128,-1,6
 408 1214 408 1214 702 1239 c 1,7,-1
 702 1361 l 1,8,-1
 850 1361 l 1,9,-1
 850 1241 l 1,10,11
 1145 1221 1145 1221 1311 1075.5 c 128,-1,12
 1477 930 1477 930 1477 678 c 128,-1,13
 1477 426 1477 426 1311 280.5 c 128,-1,14
 1145 135 1145 135 850 115 c 1,15,-1
 850 0 l 1,0,-1
702 259 m 1,16,-1
 702 1097 l 1,17,18
 481 1074 481 1074 371 965 c 128,-1,19
 261 856 261 856 261 678 c 0,20,21
 261 499 261 499 371 391 c 128,-1,22
 481 283 481 283 702 259 c 1,16,-1
850 1098 m 1,23,-1
 850 258 l 1,24,25
 1080 279 1080 279 1192.5 388.5 c 128,-1,26
 1305 498 1305 498 1305 678 c 128,-1,27
 1305 858 1305 858 1192.5 967.5 c 128,-1,28
 1080 1077 1080 1077 850 1098 c 1,23,-1
EndSplineSet
EndChar

StartChar: afii10039
Encoding: 1061 1061 547
Width: 1196
GlyphClass: 2
Flags: W
LayerCount: 2
Fore
SplineSet
696 709 m 1,0,-1
 1161 0 l 1,1,-1
 975 0 l 1,2,-1
 603 572 l 1,3,-1
 232 0 l 1,4,-1
 46 0 l 1,5,-1
 510 709 l 1,6,-1
 46 1390 l 1,7,-1
 232 1390 l 1,8,-1
 603 846 l 1,9,-1
 975 1390 l 1,10,-1
 1161 1390 l 1,11,-1
 696 709 l 1,0,-1
EndSplineSet
EndChar

StartChar: afii10040
Encoding: 1062 1062 548
Width: 1386
GlyphClass: 2
Flags: W
LayerCount: 2
Fore
SplineSet
1280 -275 m 1,0,-1
 1120 -275 l 1,1,-1
 1120 0 l 1,2,-1
 160 0 l 1,3,-1
 160 1346 l 1,4,-1
 334 1346 l 1,5,-1
 334 138 l 1,6,-1
 967 138 l 1,7,-1
 967 1346 l 1,8,-1
 1141 1346 l 1,9,-1
 1141 141 l 1,10,-1
 1280 141 l 1,11,-1
 1280 -275 l 1,0,-1
EndSplineSet
EndChar

StartChar: afii10041
Encoding: 1063 1063 549
Width: 1139
GlyphClass: 2
Flags: W
LayerCount: 2
Fore
SplineSet
1017 0 m 1,0,-1
 843 0 l 1,1,-1
 843 461 l 1,2,-1
 500 461 l 2,3,4
 311 461 311 461 210 557.5 c 128,-1,5
 109 654 109 654 109 834 c 2,6,-1
 109 1346 l 1,7,-1
 283 1346 l 1,8,-1
 283 866 l 2,9,10
 283 786 283 786 297.5 735 c 128,-1,11
 312 684 312 684 346 657.5 c 128,-1,12
 380 631 380 631 422.5 621.5 c 128,-1,13
 465 612 465 612 533 612 c 2,14,-1
 843 612 l 1,15,-1
 843 1346 l 1,16,-1
 1017 1346 l 1,17,-1
 1017 0 l 1,0,-1
EndSplineSet
EndChar

StartChar: afii10042
Encoding: 1064 1064 550
Width: 1525
GlyphClass: 2
Flags: W
LayerCount: 2
Fore
SplineSet
682 141 m 1,0,-1
 682 1346 l 1,1,-1
 843 1346 l 1,2,-1
 843 141 l 1,3,-1
 1228 141 l 1,4,-1
 1228 1346 l 1,5,-1
 1390 1346 l 1,6,-1
 1390 0 l 1,7,-1
 136 0 l 1,8,-1
 136 1346 l 1,9,-1
 298 1346 l 1,10,-1
 298 141 l 1,11,-1
 682 141 l 1,0,-1
EndSplineSet
EndChar

StartChar: afii10043
Encoding: 1065 1065 551
Width: 1591
GlyphClass: 2
Flags: W
LayerCount: 2
Fore
SplineSet
706 141 m 1,0,-1
 706 1346 l 1,1,-1
 867 1346 l 1,2,-1
 867 141 l 1,3,-1
 1252 141 l 1,4,-1
 1252 1346 l 1,5,-1
 1414 1346 l 1,6,-1
 1414 141 l 1,7,-1
 1515 141 l 1,8,-1
 1515 -275 l 1,9,-1
 1356 -275 l 1,10,-1
 1356 0 l 1,11,-1
 160 0 l 1,12,-1
 160 1346 l 1,13,-1
 322 1346 l 1,14,-1
 322 141 l 1,15,-1
 706 141 l 1,0,-1
EndSplineSet
EndChar

StartChar: afii10044
Encoding: 1066 1066 552
Width: 1395
GlyphClass: 2
Flags: W
LayerCount: 2
Fore
SplineSet
623 1346 m 1,0,-1
 623 773 l 1,1,-1
 814 773 l 2,2,3
 1055 773 1055 773 1183.5 677.5 c 128,-1,4
 1312 582 1312 582 1312 389 c 0,5,6
 1312 0 1312 0 817 0 c 2,7,-1
 448 0 l 1,8,-1
 448 1205 l 1,9,-1
 128 1205 l 1,10,-1
 128 1346 l 1,11,-1
 623 1346 l 1,0,-1
623 633 m 1,12,-1
 623 142 l 1,13,-1
 836 142 l 2,14,15
 925 142 925 142 984.5 158 c 128,-1,16
 1044 174 1044 174 1077 207.5 c 128,-1,17
 1110 241 1110 241 1123.5 285 c 128,-1,18
 1137 329 1137 329 1137 392 c 0,19,20
 1137 509 1137 509 1067 571 c 128,-1,21
 997 633 997 633 833 633 c 2,22,-1
 623 633 l 1,12,-1
EndSplineSet
EndChar

StartChar: afii10045
Encoding: 1067 1067 553
Width: 1032
GlyphClass: 2
Flags: W
LayerCount: 2
Fore
SplineSet
324 1346 m 1,0,-1
 324 773 l 1,1,-1
 454 773 l 2,2,3
 695 773 695 773 822 673 c 128,-1,4
 949 573 949 573 949 387 c 0,5,6
 949 205 949 205 820 102.5 c 128,-1,7
 691 0 691 0 441 0 c 2,8,-1
 149 0 l 1,9,-1
 149 1346 l 1,10,-1
 324 1346 l 1,0,-1
324 633 m 1,11,-1
 324 141 l 1,12,-1
 459 141 l 2,13,14
 627 141 627 141 700.5 200.5 c 128,-1,15
 774 260 774 260 774 383 c 0,16,17
 774 505 774 505 699.5 569 c 128,-1,18
 625 633 625 633 453 633 c 2,19,-1
 324 633 l 1,11,-1
EndSplineSet
EndChar

StartChar: afii10046
Encoding: 1068 1068 554
Width: 1431
GlyphClass: 2
Flags: W
LayerCount: 2
Fore
SplineSet
723 1346 m 1,0,-1
 723 773 l 1,1,-1
 862 773 l 2,2,3
 1101 773 1101 773 1224.5 677 c 128,-1,4
 1348 581 1348 581 1348 396 c 0,5,6
 1348 213 1348 213 1224.5 106.5 c 128,-1,7
 1101 0 1101 0 864 0 c 2,8,-1
 548 0 l 1,9,-1
 548 1346 l 1,10,-1
 723 1346 l 1,0,-1
723 633 m 1,11,-1
 723 141 l 1,12,-1
 871 141 l 2,13,14
 959 141 959 141 1019 157 c 128,-1,15
 1079 173 1079 173 1112.5 207 c 128,-1,16
 1146 241 1146 241 1159.5 285 c 128,-1,17
 1173 329 1173 329 1173 392 c 0,18,19
 1173 514 1173 514 1106 573.5 c 128,-1,20
 1039 633 1039 633 874 633 c 2,21,-1
 723 633 l 1,11,-1
149 1346 m 1,22,-1
 324 1346 l 1,23,-1
 324 0 l 1,24,-1
 149 0 l 1,25,-1
 149 1346 l 1,22,-1
EndSplineSet
EndChar

StartChar: afii10047
Encoding: 1069 1069 555
Width: 1275
GlyphClass: 2
Flags: W
LayerCount: 2
Fore
SplineSet
519 -21 m 0,0,1
 264 -21 264 -21 111 103 c 1,2,-1
 169 226 l 1,3,4
 231 179 231 179 321.5 148 c 128,-1,5
 412 117 412 117 511 117 c 0,6,7
 719 117 719 117 841 254 c 128,-1,8
 963 391 963 391 984 604 c 1,9,-1
 357 604 l 1,10,-1
 357 744 l 1,11,-1
 986 744 l 1,12,13
 981 827 981 827 961.5 899.5 c 128,-1,14
 942 972 942 972 904 1037 c 128,-1,15
 866 1102 866 1102 811.5 1148.5 c 128,-1,16
 757 1195 757 1195 677.5 1222 c 128,-1,17
 598 1249 598 1249 500 1249 c 0,18,19
 403 1249 403 1249 316 1217.5 c 128,-1,20
 229 1186 229 1186 168 1138 c 1,21,-1
 116 1269 l 1,22,23
 253 1388 253 1388 521 1388 c 0,24,25
 675 1388 675 1388 798 1333 c 128,-1,26
 921 1278 921 1278 999 1182.5 c 128,-1,27
 1077 1087 1077 1087 1118 961 c 128,-1,28
 1159 835 1159 835 1159 689 c 0,29,30
 1159 537 1159 537 1117.5 408 c 128,-1,31
 1076 279 1076 279 997 183 c 128,-1,32
 918 87 918 87 795.5 33 c 128,-1,33
 673 -21 673 -21 519 -21 c 0,0,1
EndSplineSet
EndChar

StartChar: afii10048
Encoding: 1070 1070 556
Width: 1885
GlyphClass: 2
Flags: W
LayerCount: 2
Fore
SplineSet
1176 -21 m 0,0,1
 1045 -21 1045 -21 936 29.5 c 128,-1,2
 827 80 827 80 753.5 168 c 128,-1,3
 680 256 680 256 636 372.5 c 128,-1,4
 592 489 592 489 582 624 c 1,5,-1
 298 624 l 1,6,-1
 298 0 l 1,7,-1
 136 0 l 1,8,-1
 136 1360 l 1,9,-1
 298 1360 l 1,10,-1
 298 762 l 1,11,-1
 585 762 l 1,12,13
 600 948 600 948 670 1087.5 c 128,-1,14
 740 1227 740 1227 868 1307.5 c 128,-1,15
 996 1388 996 1388 1168 1388 c 0,16,17
 1308 1388 1308 1388 1422 1334 c 128,-1,18
 1536 1280 1536 1280 1611.5 1184.5 c 128,-1,19
 1687 1089 1687 1089 1728 958.5 c 128,-1,20
 1769 828 1769 828 1769 675 c 0,21,22
 1769 531 1769 531 1729.5 405 c 128,-1,23
 1690 279 1690 279 1616.5 184 c 128,-1,24
 1543 89 1543 89 1429.5 34 c 128,-1,25
 1316 -21 1316 -21 1176 -21 c 0,0,1
1178 117 m 0,26,27
 1260 117 1260 117 1329 146.5 c 128,-1,28
 1398 176 1398 176 1447 228 c 128,-1,29
 1496 280 1496 280 1530 351.5 c 128,-1,30
 1564 423 1564 423 1580.5 506 c 128,-1,31
 1597 589 1597 589 1597 681 c 0,32,33
 1597 791 1597 791 1570 891.5 c 128,-1,34
 1543 992 1543 992 1492 1072.5 c 128,-1,35
 1441 1153 1441 1153 1357.5 1201 c 128,-1,36
 1274 1249 1274 1249 1169 1249 c 0,37,38
 1067 1249 1067 1249 986 1202 c 128,-1,39
 905 1155 905 1155 855 1075 c 128,-1,40
 805 995 805 995 779 894 c 128,-1,41
 753 793 753 793 753 679 c 0,42,43
 753 566 753 566 780.5 465.5 c 128,-1,44
 808 365 808 365 859.5 287 c 128,-1,45
 911 209 911 209 993 163 c 128,-1,46
 1075 117 1075 117 1178 117 c 0,26,27
EndSplineSet
EndChar

StartChar: afii10049
Encoding: 1071 1071 557
Width: 1262
GlyphClass: 2
Flags: W
LayerCount: 2
Fore
SplineSet
328 0 m 1,0,-1
 133 0 l 1,1,2
 162 61 162 61 292.5 314 c 128,-1,3
 423 567 423 567 440 602 c 1,4,5
 322 646 322 646 257 735.5 c 128,-1,6
 192 825 192 825 192 954 c 0,7,8
 192 1150 192 1150 324 1248 c 128,-1,9
 456 1346 456 1346 710 1346 c 2,10,-1
 1152 1346 l 1,11,-1
 1152 0 l 1,12,-1
 978 0 l 1,13,-1
 978 566 l 1,14,-1
 823 566 l 2,15,16
 672 566 672 566 602 572 c 1,17,18
 555 473 555 473 465 285.5 c 128,-1,19
 375 98 375 98 328 0 c 1,0,-1
978 706 m 1,20,-1
 978 1205 l 1,21,-1
 693 1205 l 2,22,23
 523 1205 523 1205 444.5 1144 c 128,-1,24
 366 1083 366 1083 366 961 c 0,25,26
 366 836 366 836 438.5 771 c 128,-1,27
 511 706 511 706 693 706 c 2,28,-1
 978 706 l 1,20,-1
EndSplineSet
EndChar

StartChar: afii10065
Encoding: 1072 1072 558
Width: 1054
GlyphClass: 2
Flags: W
LayerCount: 2
Fore
SplineSet
774 112 m 1,0,1
 730 48 730 48 637.5 13.5 c 128,-1,2
 545 -21 545 -21 438 -21 c 0,3,4
 301 -21 301 -21 214 54 c 128,-1,5
 127 129 127 129 127 263 c 0,6,7
 127 417 127 417 246 491.5 c 128,-1,8
 365 566 365 566 592 583 c 1,9,-1
 767 597 l 1,10,-1
 767 685 l 2,11,12
 767 788 767 788 714.5 837 c 128,-1,13
 662 886 662 886 554 886 c 0,14,15
 480 886 480 886 388 866 c 128,-1,16
 296 846 296 846 227 812 c 1,17,18
 214 844 214 844 180 935 c 1,19,20
 245 971 245 971 349.5 995 c 128,-1,21
 454 1019 454 1019 550 1019 c 0,22,23
 742 1019 742 1019 842 936 c 128,-1,24
 942 853 942 853 942 661 c 2,25,-1
 942 0 l 1,26,-1
 801 0 l 1,27,-1
 774 112 l 1,0,1
301 262 m 0,28,29
 301 184 301 184 347.5 143 c 128,-1,30
 394 102 394 102 461 102 c 0,31,32
 556 102 556 102 650 145.5 c 128,-1,33
 744 189 744 189 767 251 c 1,34,-1
 767 490 l 1,35,36
 674 481 674 481 651 478 c 0,37,38
 451 454 451 454 376 409.5 c 128,-1,39
 301 365 301 365 301 262 c 0,28,29
EndSplineSet
EndChar

StartChar: afii10066
Encoding: 1073 1073 559
Width: 983
GlyphClass: 2
Flags: W
LayerCount: 2
Fore
SplineSet
521 -18 m 0,0,1
 442 -18 442 -18 376.5 3.5 c 128,-1,2
 311 25 311 25 267.5 58.5 c 128,-1,3
 224 92 224 92 190 139 c 128,-1,4
 156 186 156 186 137.5 231.5 c 128,-1,5
 119 277 119 277 107.5 328 c 128,-1,6
 96 379 96 379 92.5 415 c 128,-1,7
 89 451 89 451 89 484 c 0,8,9
 89 797 89 797 263 973.5 c 128,-1,10
 437 1150 437 1150 803 1165 c 1,11,-1
 824 1036 l 1,12,13
 594 1029 594 1029 451.5 940.5 c 128,-1,14
 309 852 309 852 274 680 c 1,15,16
 356 728 356 728 421 753 c 128,-1,17
 486 778 486 778 562 778 c 0,18,19
 673 778 673 778 757.5 721 c 128,-1,20
 842 664 842 664 883 578 c 128,-1,21
 924 492 924 492 924 396 c 0,22,23
 924 218 924 218 813 100 c 128,-1,24
 702 -18 702 -18 521 -18 c 0,0,1
516 112 m 0,25,26
 649 112 649 112 712.5 183 c 128,-1,27
 776 254 776 254 776 399 c 0,28,29
 776 512 776 512 712 582.5 c 128,-1,30
 648 653 648 653 547 653 c 0,31,32
 490 653 490 653 408.5 623 c 128,-1,33
 327 593 327 593 264 528 c 1,34,35
 260 493 260 493 260 455 c 0,36,37
 260 289 260 289 334.5 200.5 c 128,-1,38
 409 112 409 112 516 112 c 0,25,26
EndSplineSet
EndChar

StartChar: afii10067
Encoding: 1074 1074 560
Width: 1041
GlyphClass: 2
Flags: W
LayerCount: 2
Fore
SplineSet
149 0 m 1,0,-1
 149 999 l 1,1,-1
 595 999 l 2,2,3
 762 999 762 999 845 928.5 c 128,-1,4
 928 858 928 858 928 748 c 0,5,6
 928 668 928 668 888 615.5 c 128,-1,7
 848 563 848 563 756 533 c 1,8,9
 860 508 860 508 910 437 c 128,-1,10
 960 366 960 366 960 288 c 0,11,12
 960 229 960 229 940 179 c 128,-1,13
 920 129 920 129 878 88 c 128,-1,14
 836 47 836 47 763.5 23.5 c 128,-1,15
 691 0 691 0 595 0 c 2,16,-1
 149 0 l 1,0,-1
324 455 m 1,17,-1
 324 122 l 1,18,-1
 590 122 l 2,19,20
 701 122 701 122 743 165 c 128,-1,21
 785 208 785 208 785 293 c 0,22,23
 785 325 785 325 778 351 c 128,-1,24
 771 377 771 377 753.5 402 c 128,-1,25
 736 427 736 427 698 441 c 128,-1,26
 660 455 660 455 605 455 c 2,27,-1
 324 455 l 1,17,-1
324 870 m 1,28,-1
 324 580 l 1,29,-1
 599 580 l 2,30,31
 682 580 682 580 717.5 621.5 c 128,-1,32
 753 663 753 663 753 724 c 0,33,34
 753 791 753 791 713 830.5 c 128,-1,35
 673 870 673 870 587 870 c 2,36,-1
 324 870 l 1,28,-1
EndSplineSet
EndChar

StartChar: afii10068
Encoding: 1075 1075 561
Width: 846
GlyphClass: 2
Flags: W
LayerCount: 2
Fore
SplineSet
779 878 m 1,0,-1
 324 878 l 1,1,-1
 324 0 l 1,2,-1
 149 0 l 1,3,-1
 149 999 l 1,4,-1
 790 999 l 1,5,-1
 779 878 l 1,0,-1
EndSplineSet
EndChar

StartChar: afii10069
Encoding: 1076 1076 562
Width: 1119
GlyphClass: 2
Flags: W
LayerCount: 2
Fore
SplineSet
45 -275 m 1,0,-1
 45 120 l 1,1,-1
 133 120 l 1,2,3
 221 190 221 190 259 451 c 2,4,-1
 337 999 l 1,5,-1
 970 999 l 1,6,-1
 970 120 l 1,7,-1
 1049 120 l 1,8,-1
 1049 -275 l 1,9,-1
 901 -275 l 1,10,-1
 901 0 l 1,11,-1
 189 0 l 1,12,-1
 189 -275 l 1,13,-1
 45 -275 l 1,0,-1
795 878 m 1,14,-1
 489 878 l 1,15,-1
 434 478 l 2,16,17
 416 346 416 346 383 246.5 c 128,-1,18
 350 147 350 147 322 120 c 1,19,-1
 795 120 l 1,20,-1
 795 878 l 1,14,-1
EndSplineSet
EndChar

StartChar: afii10070
Encoding: 1077 1077 563
Width: 1108
GlyphClass: 2
Flags: W
LayerCount: 2
Fore
SplineSet
583 888 m 0,0,1
 463 888 463 888 377 804.5 c 128,-1,2
 291 721 291 721 279 582 c 1,3,-1
 814 582 l 1,4,5
 810 734 810 734 755.5 811 c 128,-1,6
 701 888 701 888 583 888 c 0,0,1
956 65 m 1,7,8
 814 -21 814 -21 597 -21 c 0,9,10
 377 -21 377 -21 240 119 c 128,-1,11
 103 259 103 259 103 496 c 0,12,13
 103 724 103 724 240.5 871.5 c 128,-1,14
 378 1019 378 1019 578 1019 c 0,15,16
 768 1019 768 1019 873 892.5 c 128,-1,17
 978 766 978 766 978 553 c 1,18,-1
 972 469 l 1,19,-1
 275 469 l 1,20,21
 278 302 278 302 376 207 c 128,-1,22
 474 112 474 112 622 112 c 0,23,24
 769 112 769 112 932 197 c 1,25,-1
 956 65 l 1,7,8
EndSplineSet
EndChar

StartChar: afii10072
Encoding: 1078 1078 564
Width: 1415
GlyphClass: 2
Flags: W
LayerCount: 2
Fore
SplineSet
623 550 m 1,0,-1
 623 999 l 1,1,-1
 791 999 l 1,2,-1
 791 550 l 1,3,-1
 1188 999 l 1,4,-1
 1369 999 l 1,5,-1
 921 511 l 1,6,-1
 1378 0 l 1,7,-1
 1193 0 l 1,8,-1
 791 460 l 1,9,-1
 791 0 l 1,10,-1
 623 0 l 1,11,-1
 623 460 l 1,12,-1
 222 0 l 1,13,-1
 37 0 l 1,14,-1
 494 511 l 1,15,-1
 46 999 l 1,16,-1
 228 999 l 1,17,-1
 623 550 l 1,0,-1
EndSplineSet
EndChar

StartChar: afii10073
Encoding: 1079 1079 565
Width: 865
GlyphClass: 2
Flags: W
LayerCount: 2
Fore
SplineSet
780 270 m 0,0,1
 780 149 780 149 673.5 65.5 c 128,-1,2
 567 -18 567 -18 401 -18 c 0,3,4
 208 -18 208 -18 98 70 c 1,5,-1
 133 193 l 1,6,7
 177 159 177 159 252.5 135.5 c 128,-1,8
 328 112 328 112 401 112 c 0,9,10
 496 112 496 112 553.5 159.5 c 128,-1,11
 611 207 611 207 611 283 c 0,12,13
 611 357 611 357 559 407 c 128,-1,14
 507 457 507 457 395 457 c 2,15,-1
 268 457 l 1,16,-1
 268 576 l 1,17,-1
 395 576 l 2,18,19
 490 576 490 576 540.5 619.5 c 128,-1,20
 591 663 591 663 591 726 c 0,21,22
 591 802 591 802 539 844 c 128,-1,23
 487 886 487 886 386 886 c 0,24,25
 316 886 316 886 248 864 c 128,-1,26
 180 842 180 842 132 807 c 1,27,28
 101 893 101 893 88 925 c 1,29,30
 201 1019 201 1019 402 1019 c 0,31,32
 493 1019 493 1019 561.5 996 c 128,-1,33
 630 973 630 973 669.5 933.5 c 128,-1,34
 709 894 709 894 728.5 846.5 c 128,-1,35
 748 799 748 799 748 745 c 0,36,37
 748 575 748 575 597 522 c 1,38,39
 687 492 687 492 733.5 424 c 128,-1,40
 780 356 780 356 780 270 c 0,0,1
EndSplineSet
EndChar

StartChar: afii10074
Encoding: 1080 1080 566
Width: 1066
GlyphClass: 2
Flags: W
LayerCount: 2
Fore
SplineSet
283 238 m 1,0,-1
 784 905 l 1,1,-1
 784 999 l 1,2,-1
 937 999 l 1,3,-1
 937 0 l 1,4,-1
 784 0 l 1,5,-1
 784 679 l 1,6,-1
 274 0 l 1,7,-1
 130 0 l 1,8,-1
 130 999 l 1,9,-1
 283 999 l 1,10,-1
 283 238 l 1,0,-1
EndSplineSet
EndChar

StartChar: afii10076
Encoding: 1082 1082 568
Width: 1064
GlyphClass: 2
Flags: W
LayerCount: 2
Fore
SplineSet
149 999 m 1,0,-1
 324 999 l 1,1,-1
 324 560 l 1,2,-1
 725 998 l 1,3,-1
 940 998 l 1,4,-1
 473 502 l 1,5,-1
 990 0 l 1,6,-1
 774 0 l 1,7,-1
 324 439 l 1,8,-1
 324 0 l 1,9,-1
 149 0 l 1,10,-1
 149 999 l 1,0,-1
EndSplineSet
EndChar

StartChar: afii10077
Encoding: 1083 1083 569
Width: 1128
GlyphClass: 2
Flags: W
LayerCount: 2
Fore
SplineSet
804 0 m 1,0,-1
 804 870 l 1,1,-1
 493 870 l 1,2,-1
 434 454 l 2,3,4
 420 359 420 359 405.5 294 c 128,-1,5
 391 229 391 229 363.5 166 c 128,-1,6
 336 103 336 103 298 66.5 c 128,-1,7
 260 30 260 30 201 8 c 128,-1,8
 142 -14 142 -14 62 -14 c 1,9,-1
 48 118 l 1,10,11
 155 118 155 118 196 187.5 c 128,-1,12
 237 257 237 257 268 480 c 2,13,-1
 341 999 l 1,14,-1
 979 999 l 1,15,-1
 979 0 l 1,16,-1
 804 0 l 1,0,-1
EndSplineSet
EndChar

